G04*
G04 #@! TF.GenerationSoftware,Altium Limited,Altium Designer,22.5.1 (42)*
G04*
G04 Layer_Physical_Order=2*
G04 Layer_Color=16711680*
%FSLAX44Y44*%
%MOMM*%
G71*
G04*
G04 #@! TF.SameCoordinates,548A175F-BCEF-4031-9993-F39C1D0A8298*
G04*
G04*
G04 #@! TF.FilePolarity,Positive*
G04*
G01*
G75*
%ADD13C,0.2540*%
%ADD53R,1.4000X1.4000*%
%ADD54C,1.4000*%
%ADD57R,1.5500X1.5500*%
%ADD58C,1.5500*%
%ADD59R,1.5500X1.5500*%
%ADD62C,1.0500*%
%ADD63R,1.0500X1.0500*%
%ADD64C,0.6100*%
%ADD65C,0.5000*%
G36*
X1300480Y836930D02*
X1306830D01*
X1308100Y835660D01*
X1311910D01*
X1314450Y833120D01*
X1318260D01*
X1322070Y829310D01*
X1324610D01*
X1329690Y824230D01*
X1330960D01*
X1338580Y816610D01*
Y814070D01*
X1342390Y810260D01*
Y807720D01*
X1344930Y805180D01*
Y802640D01*
X1347470Y800100D01*
Y795020D01*
X1348740Y793750D01*
Y783590D01*
X1350010Y782320D01*
X1348740Y781050D01*
Y254000D01*
X1347470Y252730D01*
Y246380D01*
X1346200Y245110D01*
Y241300D01*
X1343660Y238760D01*
Y236220D01*
X1341120Y233680D01*
Y232410D01*
X1339850D01*
X1337310Y229870D01*
Y227330D01*
X1333500Y223520D01*
X1332230D01*
X1325880Y217170D01*
X1324610D01*
X1320800Y213360D01*
X1315720D01*
X1313180Y210820D01*
X1310640D01*
X1309370Y209550D01*
X1304290D01*
X1303020Y208280D01*
X762000D01*
X759460Y210820D01*
X753110D01*
X750570Y213360D01*
X748030D01*
X742950Y218440D01*
X741680D01*
X732790Y227330D01*
X731520D01*
Y228600D01*
X726440Y233680D01*
Y237490D01*
X722630Y241300D01*
Y245110D01*
X720090Y247650D01*
Y256540D01*
X718820Y257810D01*
Y788670D01*
X720090Y789940D01*
Y796290D01*
X722630Y798830D01*
Y802640D01*
X723900Y803910D01*
Y806450D01*
X726440Y808990D01*
Y811530D01*
X728980Y814070D01*
Y815340D01*
X740410Y826770D01*
X742950D01*
X745490Y829310D01*
Y830580D01*
X746760D01*
X749300Y833120D01*
X754380D01*
X756920Y835660D01*
X760730D01*
X762000Y836930D01*
X767080D01*
X768350Y838200D01*
X1299210D01*
X1300480Y836930D01*
D02*
G37*
%LPC*%
G36*
X1296096Y814535D02*
X1292164D01*
X1292059Y814492D01*
X1291949Y814521D01*
X1288050Y814008D01*
X1287952Y813951D01*
X1287839Y813966D01*
X1284040Y812948D01*
X1283950Y812879D01*
X1283837D01*
X1280203Y811374D01*
X1280123Y811293D01*
X1280010Y811279D01*
X1276605Y809312D01*
X1276535Y809222D01*
X1276426Y809193D01*
X1273306Y806799D01*
X1273249Y806700D01*
X1273144Y806657D01*
X1270363Y803876D01*
X1270320Y803771D01*
X1270221Y803714D01*
X1267827Y800594D01*
X1267798Y800485D01*
X1267708Y800415D01*
X1265741Y797010D01*
X1265726Y796897D01*
X1265646Y796817D01*
X1264141Y793183D01*
Y793070D01*
X1264072Y792980D01*
X1263054Y789181D01*
X1263069Y789068D01*
X1263012Y788970D01*
X1262499Y785071D01*
X1262528Y784961D01*
X1262485Y784856D01*
Y780924D01*
X1262528Y780819D01*
X1262499Y780709D01*
X1263012Y776810D01*
X1263069Y776712D01*
X1263054Y776599D01*
X1264072Y772800D01*
X1264141Y772710D01*
Y772597D01*
X1265646Y768963D01*
X1265726Y768883D01*
X1265741Y768770D01*
X1267708Y765365D01*
X1267798Y765295D01*
X1267827Y765186D01*
X1270221Y762066D01*
X1270320Y762009D01*
X1270363Y761904D01*
X1273144Y759123D01*
X1273249Y759080D01*
X1273306Y758981D01*
X1276426Y756587D01*
X1276535Y756558D01*
X1276605Y756468D01*
X1280010Y754501D01*
X1280123Y754486D01*
X1280203Y754406D01*
X1283837Y752901D01*
X1283950D01*
X1284040Y752832D01*
X1287839Y751814D01*
X1287952Y751829D01*
X1288050Y751772D01*
X1291949Y751259D01*
X1292059Y751288D01*
X1292164Y751245D01*
X1296096D01*
X1296201Y751288D01*
X1296311Y751259D01*
X1300210Y751772D01*
X1300308Y751829D01*
X1300421Y751814D01*
X1304220Y752832D01*
X1304310Y752901D01*
X1304423D01*
X1308057Y754406D01*
X1308137Y754486D01*
X1308250Y754501D01*
X1311655Y756468D01*
X1311725Y756558D01*
X1311834Y756587D01*
X1314954Y758981D01*
X1315011Y759080D01*
X1315116Y759123D01*
X1317897Y761904D01*
X1317940Y762009D01*
X1318039Y762066D01*
X1320433Y765186D01*
X1320462Y765295D01*
X1320552Y765365D01*
X1322519Y768770D01*
X1322534Y768883D01*
X1322614Y768963D01*
X1324119Y772597D01*
Y772710D01*
X1324188Y772800D01*
X1325206Y776599D01*
X1325191Y776712D01*
X1325248Y776810D01*
X1325761Y780709D01*
X1325732Y780819D01*
X1325775Y780924D01*
Y784856D01*
X1325732Y784961D01*
X1325761Y785071D01*
X1325248Y788970D01*
X1325191Y789068D01*
X1325206Y789181D01*
X1324188Y792980D01*
X1324119Y793070D01*
Y793183D01*
X1322614Y796817D01*
X1322534Y796897D01*
X1322519Y797010D01*
X1320552Y800415D01*
X1320462Y800485D01*
X1320433Y800594D01*
X1318039Y803714D01*
X1317940Y803771D01*
X1317897Y803876D01*
X1315116Y806657D01*
X1315011Y806700D01*
X1314954Y806799D01*
X1311834Y809193D01*
X1311725Y809222D01*
X1311655Y809312D01*
X1308250Y811279D01*
X1308137Y811293D01*
X1308057Y811374D01*
X1304423Y812879D01*
X1304310D01*
X1304220Y812948D01*
X1300421Y813966D01*
X1300308Y813951D01*
X1300210Y814008D01*
X1296311Y814521D01*
X1296201Y814492D01*
X1296096Y814535D01*
D02*
G37*
G36*
X776096D02*
X772164D01*
X772059Y814492D01*
X771949Y814521D01*
X768050Y814008D01*
X767952Y813951D01*
X767839Y813966D01*
X764040Y812948D01*
X763950Y812879D01*
X763837D01*
X760203Y811374D01*
X760123Y811293D01*
X760010Y811279D01*
X756605Y809312D01*
X756535Y809222D01*
X756426Y809193D01*
X753306Y806799D01*
X753249Y806700D01*
X753144Y806657D01*
X750363Y803876D01*
X750320Y803771D01*
X750221Y803714D01*
X747827Y800594D01*
X747798Y800485D01*
X747708Y800415D01*
X745741Y797010D01*
X745726Y796897D01*
X745646Y796817D01*
X744141Y793183D01*
Y793070D01*
X744072Y792980D01*
X743054Y789181D01*
X743069Y789068D01*
X743012Y788970D01*
X742499Y785071D01*
X742528Y784961D01*
X742485Y784856D01*
Y780924D01*
X742528Y780819D01*
X742499Y780709D01*
X743012Y776810D01*
X743069Y776712D01*
X743054Y776599D01*
X744072Y772800D01*
X744141Y772710D01*
Y772597D01*
X745646Y768963D01*
X745726Y768883D01*
X745741Y768770D01*
X747708Y765365D01*
X747798Y765295D01*
X747827Y765186D01*
X750221Y762066D01*
X750320Y762009D01*
X750363Y761904D01*
X753144Y759123D01*
X753249Y759080D01*
X753306Y758981D01*
X756426Y756587D01*
X756535Y756558D01*
X756605Y756468D01*
X760010Y754501D01*
X760123Y754486D01*
X760203Y754406D01*
X763837Y752901D01*
X763950D01*
X764040Y752832D01*
X767839Y751814D01*
X767952Y751829D01*
X768050Y751772D01*
X771949Y751259D01*
X772059Y751288D01*
X772164Y751245D01*
X776096D01*
X776201Y751288D01*
X776311Y751259D01*
X780210Y751772D01*
X780308Y751829D01*
X780421Y751814D01*
X784220Y752832D01*
X784310Y752901D01*
X784424D01*
X788057Y754406D01*
X788137Y754486D01*
X788250Y754501D01*
X791656Y756468D01*
X791725Y756558D01*
X791834Y756587D01*
X794954Y758981D01*
X795011Y759080D01*
X795116Y759123D01*
X797897Y761904D01*
X797940Y762009D01*
X798039Y762066D01*
X800433Y765186D01*
X800462Y765295D01*
X800552Y765365D01*
X802519Y768770D01*
X802533Y768883D01*
X802614Y768963D01*
X804119Y772597D01*
Y772710D01*
X804188Y772800D01*
X805206Y776599D01*
X805191Y776712D01*
X805248Y776810D01*
X805761Y780709D01*
X805732Y780819D01*
X805775Y780924D01*
Y784856D01*
X805732Y784961D01*
X805761Y785071D01*
X805248Y788970D01*
X805191Y789068D01*
X805206Y789181D01*
X804188Y792980D01*
X804119Y793070D01*
Y793183D01*
X802614Y796817D01*
X802533Y796897D01*
X802519Y797010D01*
X800552Y800415D01*
X800462Y800485D01*
X800433Y800594D01*
X798039Y803714D01*
X797940Y803771D01*
X797897Y803876D01*
X795116Y806657D01*
X795011Y806700D01*
X794954Y806799D01*
X791834Y809193D01*
X791725Y809222D01*
X791656Y809312D01*
X788250Y811279D01*
X788137Y811293D01*
X788057Y811374D01*
X784424Y812879D01*
X784310D01*
X784220Y812948D01*
X780421Y813966D01*
X780308Y813951D01*
X780210Y814008D01*
X776311Y814521D01*
X776201Y814492D01*
X776096Y814535D01*
D02*
G37*
G36*
X899490Y768650D02*
X890470D01*
Y759630D01*
X899490D01*
Y768650D01*
D02*
G37*
G36*
X887930D02*
X878910D01*
Y759630D01*
X887930D01*
Y768650D01*
D02*
G37*
G36*
X915420Y767630D02*
X912980D01*
X910622Y766998D01*
X908508Y765778D01*
X906782Y764052D01*
X905562Y761938D01*
X904930Y759580D01*
Y757140D01*
X905562Y754782D01*
X906782Y752668D01*
X908508Y750942D01*
X910622Y749722D01*
X912980Y749090D01*
X915420D01*
X917778Y749722D01*
X919892Y750942D01*
X921618Y752668D01*
X922838Y754782D01*
X923470Y757140D01*
Y759580D01*
X922838Y761938D01*
X921618Y764052D01*
X919892Y765778D01*
X917778Y766998D01*
X915420Y767630D01*
D02*
G37*
G36*
X899490Y757090D02*
X890470D01*
Y748070D01*
X899490D01*
Y757090D01*
D02*
G37*
G36*
X887930D02*
X878910D01*
Y748070D01*
X887930D01*
Y757090D01*
D02*
G37*
G36*
X806281Y729042D02*
Y724787D01*
X810535D01*
X809750Y726684D01*
X808177Y728256D01*
X806281Y729042D01*
D02*
G37*
G36*
X803741D02*
X801844Y728256D01*
X800272Y726684D01*
X799486Y724787D01*
X803741D01*
Y729042D01*
D02*
G37*
G36*
X810535Y722247D02*
X806281D01*
Y717992D01*
X808177Y718778D01*
X809750Y720350D01*
X810535Y722247D01*
D02*
G37*
G36*
X803741D02*
X799486D01*
X800272Y720350D01*
X801844Y718778D01*
X803741Y717992D01*
Y722247D01*
D02*
G37*
G36*
X960120Y720535D02*
Y716280D01*
X964375D01*
X963589Y718176D01*
X962017Y719749D01*
X960120Y720535D01*
D02*
G37*
G36*
X957580D02*
X955684Y719749D01*
X954111Y718176D01*
X953325Y716280D01*
X957580D01*
Y720535D01*
D02*
G37*
G36*
X964375Y713740D02*
X960120D01*
Y709485D01*
X962017Y710271D01*
X963589Y711843D01*
X964375Y713740D01*
D02*
G37*
G36*
X957580D02*
X953325D01*
X954111Y711843D01*
X955684Y710271D01*
X957580Y709485D01*
Y713740D01*
D02*
G37*
G36*
X1008968Y652319D02*
Y648064D01*
X1013222D01*
X1012437Y649961D01*
X1010864Y651533D01*
X1008968Y652319D01*
D02*
G37*
G36*
X1013222Y645524D02*
X1008968D01*
Y641270D01*
X1010864Y642055D01*
X1012437Y643628D01*
X1013222Y645524D01*
D02*
G37*
G36*
X793470Y633895D02*
Y629640D01*
X797725D01*
X796939Y631536D01*
X795367Y633109D01*
X793470Y633895D01*
D02*
G37*
G36*
X790930D02*
X789034Y633109D01*
X787461Y631536D01*
X786675Y629640D01*
X790930D01*
Y633895D01*
D02*
G37*
G36*
X1063518Y731414D02*
X1061700D01*
X1060021Y730718D01*
X1058735Y729433D01*
X1058039Y727753D01*
Y725935D01*
X1058735Y724255D01*
X1060021Y722970D01*
X1060145Y722918D01*
Y697138D01*
X1051652Y688645D01*
X886683D01*
X885595Y688428D01*
X884672Y687811D01*
X831715Y634854D01*
X830258D01*
X828579Y634159D01*
X827293Y632873D01*
X826598Y631193D01*
Y629375D01*
X827293Y627696D01*
X828579Y626410D01*
X830258Y625714D01*
X832077D01*
X833756Y626410D01*
X835042Y627696D01*
X835738Y629375D01*
Y630831D01*
X887861Y682955D01*
X1052830D01*
X1053919Y683172D01*
X1054841Y683789D01*
X1065001Y693949D01*
X1065618Y694871D01*
X1065835Y695960D01*
Y723606D01*
X1066484Y724255D01*
X1067179Y725935D01*
Y727753D01*
X1066484Y729433D01*
X1065198Y730718D01*
X1063518Y731414D01*
D02*
G37*
G36*
X1294680Y643859D02*
X1276140D01*
Y625319D01*
X1294680D01*
Y643859D01*
D02*
G37*
G36*
X797725Y627100D02*
X793470D01*
Y622845D01*
X795367Y623631D01*
X796939Y625204D01*
X797725Y627100D01*
D02*
G37*
G36*
X790930D02*
X786675D01*
X787461Y625204D01*
X789034Y623631D01*
X790930Y622845D01*
Y627100D01*
D02*
G37*
G36*
X968328Y623109D02*
Y618854D01*
X972582D01*
X971797Y620751D01*
X970224Y622323D01*
X968328Y623109D01*
D02*
G37*
G36*
X965788D02*
X963891Y622323D01*
X962318Y620751D01*
X961533Y618854D01*
X965788D01*
Y623109D01*
D02*
G37*
G36*
X1164590Y616395D02*
Y612140D01*
X1168845D01*
X1168059Y614036D01*
X1166487Y615609D01*
X1164590Y616395D01*
D02*
G37*
G36*
X1162050D02*
X1160154Y615609D01*
X1158581Y614036D01*
X1157795Y612140D01*
X1162050D01*
Y616395D01*
D02*
G37*
G36*
X972582Y616314D02*
X968328D01*
Y612060D01*
X970224Y612845D01*
X971797Y614418D01*
X972582Y616314D01*
D02*
G37*
G36*
X965788D02*
X961533D01*
X962318Y614418D01*
X963891Y612845D01*
X965788Y612060D01*
Y616314D01*
D02*
G37*
G36*
X1057228Y612949D02*
Y608694D01*
X1061482D01*
X1060697Y610591D01*
X1059124Y612163D01*
X1057228Y612949D01*
D02*
G37*
G36*
X1168845Y609600D02*
X1164590D01*
Y605345D01*
X1166487Y606131D01*
X1168059Y607704D01*
X1168845Y609600D01*
D02*
G37*
G36*
X1162050D02*
X1157795D01*
X1158581Y607704D01*
X1160154Y606131D01*
X1162050Y605345D01*
Y609600D01*
D02*
G37*
G36*
X1090248Y609139D02*
Y604884D01*
X1094502D01*
X1093717Y606781D01*
X1092144Y608353D01*
X1090248Y609139D01*
D02*
G37*
G36*
X1087708D02*
X1085811Y608353D01*
X1084239Y606781D01*
X1083453Y604884D01*
X1087708D01*
Y609139D01*
D02*
G37*
G36*
X994049Y667510D02*
X992231D01*
X990551Y666814D01*
X989266Y665529D01*
X988570Y663849D01*
Y662031D01*
X989266Y660351D01*
X990551Y659066D01*
X992231Y658370D01*
X993687D01*
X996645Y655412D01*
Y614680D01*
X996862Y613591D01*
X997479Y612669D01*
X1001270Y608877D01*
Y607421D01*
X1001966Y605741D01*
X1002883Y604825D01*
X1002361Y603555D01*
X965108D01*
X957885Y610778D01*
Y627572D01*
X958914Y628601D01*
X959610Y630281D01*
Y632099D01*
X958914Y633779D01*
X957629Y635064D01*
X955949Y635760D01*
X954131D01*
X952451Y635064D01*
X951166Y633779D01*
X950470Y632099D01*
Y630281D01*
X951166Y628601D01*
X952195Y627572D01*
Y609600D01*
X952412Y608511D01*
X953029Y607589D01*
X961919Y598699D01*
X962841Y598082D01*
X963930Y597865D01*
X1046480D01*
X1047569Y598082D01*
X1048491Y598699D01*
X1051031Y601239D01*
X1051596Y602084D01*
X1051711Y602186D01*
X1053028Y602587D01*
X1054688Y601900D01*
Y607424D01*
Y612949D01*
X1053135Y612306D01*
X1051865Y612896D01*
Y635000D01*
X1051648Y636089D01*
X1051031Y637011D01*
X1048510Y639533D01*
Y640989D01*
X1047814Y642669D01*
X1046529Y643954D01*
X1044849Y644650D01*
X1043031D01*
X1041351Y643954D01*
X1040066Y642669D01*
X1039370Y640989D01*
Y639171D01*
X1040066Y637491D01*
X1041351Y636206D01*
X1043031Y635510D01*
X1044487D01*
X1046175Y633822D01*
Y604428D01*
X1045302Y603555D01*
X1009319D01*
X1008798Y604825D01*
X1009714Y605741D01*
X1010410Y607421D01*
Y609239D01*
X1009714Y610919D01*
X1008429Y612204D01*
X1006749Y612900D01*
X1005293D01*
X1002335Y615858D01*
Y642456D01*
X1003605Y642982D01*
X1004531Y642055D01*
X1006428Y641270D01*
Y646794D01*
Y652319D01*
X1004531Y651533D01*
X1003605Y650607D01*
X1002335Y651133D01*
Y656590D01*
X1002118Y657679D01*
X1001501Y658602D01*
X997710Y662393D01*
Y663849D01*
X997014Y665529D01*
X995729Y666814D01*
X994049Y667510D01*
D02*
G37*
G36*
X1061482Y606154D02*
X1057228D01*
Y601900D01*
X1059124Y602685D01*
X1060697Y604258D01*
X1061482Y606154D01*
D02*
G37*
G36*
X1094502Y602344D02*
X1090248D01*
Y598090D01*
X1092144Y598875D01*
X1093717Y600448D01*
X1094502Y602344D01*
D02*
G37*
G36*
X1087708D02*
X1083453D01*
X1084239Y600448D01*
X1085811Y598875D01*
X1087708Y598090D01*
Y602344D01*
D02*
G37*
G36*
X1089299Y739900D02*
X1087481D01*
X1085801Y739204D01*
X1084516Y737919D01*
X1083820Y736239D01*
Y734783D01*
X1072409Y723371D01*
X1071792Y722449D01*
X1071575Y721360D01*
Y590458D01*
X1063082Y581965D01*
X1004671D01*
X1003802Y582834D01*
X1002123Y583530D01*
X1000304D01*
X998625Y582834D01*
X997339Y581548D01*
X996644Y579869D01*
Y578051D01*
X997339Y576371D01*
X998625Y575085D01*
X1000304Y574390D01*
X1002123D01*
X1003802Y575085D01*
X1004992Y576275D01*
X1064260D01*
X1065349Y576492D01*
X1066271Y577109D01*
X1076431Y587268D01*
X1077048Y588191D01*
X1077265Y589280D01*
Y720182D01*
X1087843Y730760D01*
X1089299D01*
X1090979Y731456D01*
X1092264Y732741D01*
X1092960Y734421D01*
Y736239D01*
X1092264Y737919D01*
X1090979Y739204D01*
X1089299Y739900D01*
D02*
G37*
G36*
X880110Y548810D02*
X873590D01*
Y542290D01*
X880110D01*
Y548810D01*
D02*
G37*
G36*
X797412Y558830D02*
X795168D01*
X793001Y558249D01*
X791059Y557128D01*
X789472Y555541D01*
X788351Y553599D01*
X787770Y551432D01*
Y549188D01*
X788351Y547021D01*
X789472Y545079D01*
X791059Y543492D01*
X793001Y542371D01*
X795168Y541790D01*
X797412D01*
X799579Y542371D01*
X801521Y543492D01*
X803108Y545079D01*
X804229Y547021D01*
X804810Y549188D01*
Y551432D01*
X804229Y553599D01*
X803108Y555541D01*
X801521Y557128D01*
X799579Y558249D01*
X797412Y558830D01*
D02*
G37*
G36*
X880110Y539750D02*
X873590D01*
Y533230D01*
X880110D01*
Y539750D01*
D02*
G37*
G36*
X805830Y534850D02*
X797560D01*
Y526580D01*
X805830D01*
Y534850D01*
D02*
G37*
G36*
X795020D02*
X786750D01*
Y526580D01*
X795020D01*
Y534850D01*
D02*
G37*
G36*
X805830Y524040D02*
X797560D01*
Y515770D01*
X805830D01*
Y524040D01*
D02*
G37*
G36*
X795020D02*
X786750D01*
Y515770D01*
X795020D01*
Y524040D01*
D02*
G37*
G36*
X1269720Y519594D02*
Y515340D01*
X1273975D01*
X1273189Y517237D01*
X1271617Y518809D01*
X1269720Y519594D01*
D02*
G37*
G36*
X1267180D02*
X1265284Y518809D01*
X1263711Y517237D01*
X1262925Y515340D01*
X1267180D01*
Y519594D01*
D02*
G37*
G36*
X1273975Y512800D02*
X1269720D01*
Y508545D01*
X1271617Y509331D01*
X1273189Y510904D01*
X1273975Y512800D01*
D02*
G37*
G36*
X1267180D02*
X1262925D01*
X1263711Y510904D01*
X1265284Y509331D01*
X1267180Y508545D01*
Y512800D01*
D02*
G37*
G36*
X882650Y509715D02*
Y505460D01*
X886905D01*
X886119Y507356D01*
X884547Y508929D01*
X882650Y509715D01*
D02*
G37*
G36*
X880110D02*
X878214Y508929D01*
X876641Y507356D01*
X875855Y505460D01*
X880110D01*
Y509715D01*
D02*
G37*
G36*
X1286630Y618859D02*
X1284190D01*
X1281832Y618227D01*
X1279718Y617007D01*
X1277992Y615281D01*
X1276772Y613167D01*
X1276140Y610809D01*
Y608369D01*
X1276772Y606011D01*
X1277992Y603897D01*
X1279718Y602171D01*
X1281832Y600951D01*
X1284190Y600319D01*
X1286630D01*
X1288988Y600951D01*
X1289646Y601330D01*
X1298905Y592071D01*
Y534670D01*
X1299122Y533581D01*
X1299739Y532659D01*
X1301445Y530952D01*
Y507808D01*
X1300416Y506779D01*
X1299720Y505099D01*
Y503281D01*
X1300416Y501601D01*
X1301701Y500316D01*
X1303381Y499620D01*
X1305199D01*
X1306879Y500316D01*
X1308164Y501601D01*
X1308860Y503281D01*
Y505099D01*
X1308164Y506779D01*
X1307135Y507808D01*
Y532130D01*
X1306918Y533219D01*
X1306301Y534142D01*
X1304595Y535848D01*
Y593249D01*
X1304378Y594338D01*
X1303761Y595261D01*
X1293669Y605353D01*
X1294048Y606011D01*
X1294680Y608369D01*
Y610809D01*
X1294048Y613167D01*
X1292828Y615281D01*
X1291102Y617007D01*
X1288988Y618227D01*
X1286630Y618859D01*
D02*
G37*
G36*
X1333220Y503084D02*
Y498830D01*
X1337475D01*
X1336689Y500727D01*
X1335116Y502299D01*
X1333220Y503084D01*
D02*
G37*
G36*
X1330680D02*
X1328784Y502299D01*
X1327211Y500727D01*
X1326425Y498830D01*
X1330680D01*
Y503084D01*
D02*
G37*
G36*
X886905Y502920D02*
X882650D01*
Y498665D01*
X884547Y499451D01*
X886119Y501023D01*
X886905Y502920D01*
D02*
G37*
G36*
X880110D02*
X875855D01*
X876641Y501023D01*
X878214Y499451D01*
X880110Y498665D01*
Y502920D01*
D02*
G37*
G36*
X1337475Y496290D02*
X1333220D01*
Y492035D01*
X1335116Y492821D01*
X1336689Y494394D01*
X1337475Y496290D01*
D02*
G37*
G36*
X1330680D02*
X1326425D01*
X1327211Y494394D01*
X1328784Y492821D01*
X1330680Y492035D01*
Y496290D01*
D02*
G37*
G36*
X804121Y468676D02*
Y460410D01*
X812387D01*
X811741Y462822D01*
X810485Y464998D01*
X808709Y466774D01*
X806533Y468030D01*
X804121Y468676D01*
D02*
G37*
G36*
X801581D02*
X799169Y468030D01*
X796993Y466774D01*
X795217Y464998D01*
X793961Y462822D01*
X793315Y460410D01*
X801581D01*
Y468676D01*
D02*
G37*
G36*
X1333220Y454824D02*
Y450570D01*
X1337475D01*
X1336689Y452467D01*
X1335116Y454039D01*
X1333220Y454824D01*
D02*
G37*
G36*
X1330680D02*
X1328784Y454039D01*
X1327211Y452467D01*
X1326425Y450570D01*
X1330680D01*
Y454824D01*
D02*
G37*
G36*
X812387Y457870D02*
X804121D01*
Y449604D01*
X806533Y450250D01*
X808709Y451506D01*
X810485Y453282D01*
X811741Y455458D01*
X812387Y457870D01*
D02*
G37*
G36*
X801581D02*
X793315D01*
X793961Y455458D01*
X795217Y453282D01*
X796993Y451506D01*
X799169Y450250D01*
X801581Y449604D01*
Y457870D01*
D02*
G37*
G36*
X1337475Y448030D02*
X1333220D01*
Y443775D01*
X1335116Y444561D01*
X1336689Y446133D01*
X1337475Y448030D01*
D02*
G37*
G36*
X1330680D02*
X1326425D01*
X1327211Y446133D01*
X1328784Y444561D01*
X1330680Y443775D01*
Y448030D01*
D02*
G37*
G36*
X1008019Y437640D02*
X1006201D01*
X1004521Y436944D01*
X1003492Y435915D01*
X951038D01*
X950009Y436944D01*
X948329Y437640D01*
X946511D01*
X944831Y436944D01*
X943546Y435659D01*
X942850Y433979D01*
Y432161D01*
X943546Y430481D01*
X944831Y429196D01*
X946511Y428500D01*
X948329D01*
X950009Y429196D01*
X951038Y430225D01*
X1003492D01*
X1004521Y429196D01*
X1006201Y428500D01*
X1008019D01*
X1009699Y429196D01*
X1010984Y430481D01*
X1011680Y432161D01*
Y433979D01*
X1010984Y435659D01*
X1009699Y436944D01*
X1008019Y437640D01*
D02*
G37*
G36*
X803973Y442660D02*
X801729D01*
X799562Y442079D01*
X797620Y440958D01*
X796033Y439371D01*
X794912Y437429D01*
X794331Y435262D01*
Y433018D01*
X794912Y430851D01*
X796033Y428909D01*
X797620Y427322D01*
X799562Y426201D01*
X801729Y425620D01*
X803973D01*
X806140Y426201D01*
X808082Y427322D01*
X809669Y428909D01*
X810790Y430851D01*
X811371Y433018D01*
Y435262D01*
X810790Y437429D01*
X809669Y439371D01*
X808082Y440958D01*
X806140Y442079D01*
X803973Y442660D01*
D02*
G37*
G36*
X1007337Y424034D02*
X1005518D01*
X1003839Y423339D01*
X1002809Y422309D01*
X950356D01*
X949326Y423339D01*
X947647Y424034D01*
X945828D01*
X944149Y423339D01*
X942863Y422053D01*
X942168Y420373D01*
Y418555D01*
X942863Y416876D01*
X944149Y415590D01*
X945828Y414894D01*
X947647D01*
X949326Y415590D01*
X950356Y416620D01*
X1002809D01*
X1003839Y415590D01*
X1005518Y414894D01*
X1007337D01*
X1009016Y415590D01*
X1010302Y416876D01*
X1010997Y418555D01*
Y420373D01*
X1010302Y422053D01*
X1009016Y423339D01*
X1007337Y424034D01*
D02*
G37*
G36*
X966697Y451974D02*
X964878D01*
X963199Y451278D01*
X961913Y449993D01*
X961218Y448313D01*
Y446495D01*
X961913Y444816D01*
X963199Y443530D01*
X964878Y442834D01*
X966697D01*
X968376Y443530D01*
X969406Y444560D01*
X1022077D01*
X1022633Y444004D01*
Y418003D01*
X1021603Y416973D01*
X1020908Y415293D01*
Y413475D01*
X1021603Y411796D01*
X1022889Y410510D01*
X1024568Y409814D01*
X1026387D01*
X1028066Y410510D01*
X1029352Y411796D01*
X1030048Y413475D01*
Y415293D01*
X1029352Y416973D01*
X1028322Y418003D01*
Y445182D01*
X1028106Y446271D01*
X1027489Y447194D01*
X1025267Y449416D01*
X1024344Y450032D01*
X1023256Y450249D01*
X969406D01*
X968376Y451278D01*
X966697Y451974D01*
D02*
G37*
G36*
X797412Y583830D02*
X795168D01*
X793001Y583249D01*
X791059Y582128D01*
X789472Y580541D01*
X788351Y578599D01*
X787770Y576432D01*
Y574188D01*
X788351Y572021D01*
X789472Y570079D01*
X791059Y568492D01*
X793001Y567371D01*
X795168Y566790D01*
X797412D01*
X799579Y567371D01*
X801521Y568492D01*
X803108Y570079D01*
X804229Y572021D01*
X804348Y572465D01*
X821782D01*
X858215Y536032D01*
Y454660D01*
X858432Y453571D01*
X859049Y452649D01*
X873018Y438679D01*
X873941Y438062D01*
X875030Y437845D01*
X910682D01*
X912825Y435702D01*
Y370126D01*
X911555Y369600D01*
X910937Y370219D01*
X909040Y371004D01*
Y365480D01*
Y359955D01*
X910937Y360741D01*
X911555Y361360D01*
X912825Y360834D01*
Y355058D01*
X913042Y353969D01*
X913659Y353046D01*
X913747Y352958D01*
X913640Y352699D01*
Y350881D01*
X914336Y349201D01*
X915621Y347916D01*
X917301Y347220D01*
X919119D01*
X920445Y347769D01*
X921715Y347173D01*
Y332740D01*
X921932Y331651D01*
X922303Y331097D01*
X922543Y330516D01*
X923829Y329230D01*
X925508Y328534D01*
X927327D01*
X929006Y329230D01*
X930292Y330516D01*
X930987Y332195D01*
Y334013D01*
X930292Y335693D01*
X929006Y336978D01*
X927405Y337642D01*
Y357062D01*
X928434Y358091D01*
X929130Y359771D01*
Y361589D01*
X928434Y363269D01*
X927405Y364298D01*
Y392522D01*
X940072Y405190D01*
X943119D01*
X944149Y404160D01*
X945828Y403464D01*
X947647D01*
X949326Y404160D01*
X950612Y405446D01*
X951308Y407125D01*
Y408943D01*
X950612Y410623D01*
X949326Y411908D01*
X947647Y412604D01*
X945828D01*
X944149Y411908D01*
X943119Y410879D01*
X938894D01*
X937806Y410662D01*
X936883Y410046D01*
X922549Y395711D01*
X921932Y394789D01*
X921715Y393700D01*
Y364298D01*
X920686Y363269D01*
X919990Y361589D01*
Y359771D01*
X920686Y358091D01*
X921219Y357559D01*
X921116Y356799D01*
X919807Y356075D01*
X919119Y356360D01*
X918515D01*
Y436880D01*
X918298Y437969D01*
X917681Y438891D01*
X913871Y442701D01*
X912949Y443318D01*
X911860Y443535D01*
X876208D01*
X863905Y455838D01*
Y537210D01*
X863688Y538299D01*
X863071Y539221D01*
X824971Y577321D01*
X824049Y577938D01*
X822960Y578155D01*
X804348D01*
X804229Y578599D01*
X803108Y580541D01*
X801521Y582128D01*
X799579Y583249D01*
X797412Y583830D01*
D02*
G37*
G36*
X1270990Y406564D02*
Y402310D01*
X1275245D01*
X1274459Y404207D01*
X1272887Y405779D01*
X1270990Y406564D01*
D02*
G37*
G36*
X1268450D02*
X1266553Y405779D01*
X1264981Y404207D01*
X1264195Y402310D01*
X1268450D01*
Y406564D01*
D02*
G37*
G36*
X1107160D02*
Y402310D01*
X1111414D01*
X1110629Y404207D01*
X1109056Y405779D01*
X1107160Y406564D01*
D02*
G37*
G36*
X1104620D02*
X1102723Y405779D01*
X1101151Y404207D01*
X1100365Y402310D01*
X1104620D01*
Y406564D01*
D02*
G37*
G36*
X803973Y417660D02*
X801729D01*
X799562Y417079D01*
X797620Y415958D01*
X796033Y414371D01*
X794912Y412429D01*
X794331Y410262D01*
Y408018D01*
X794912Y405851D01*
X796033Y403909D01*
X797620Y402322D01*
X799562Y401201D01*
X801729Y400620D01*
X803973D01*
X806140Y401201D01*
X808082Y402322D01*
X809669Y403909D01*
X810790Y405851D01*
X811371Y408018D01*
Y410262D01*
X810790Y412429D01*
X809669Y414371D01*
X808082Y415958D01*
X806140Y417079D01*
X803973Y417660D01*
D02*
G37*
G36*
X1275245Y399770D02*
X1270990D01*
Y395515D01*
X1272887Y396301D01*
X1274459Y397873D01*
X1275245Y399770D01*
D02*
G37*
G36*
X1268450D02*
X1264195D01*
X1264981Y397873D01*
X1266553Y396301D01*
X1268450Y395515D01*
Y399770D01*
D02*
G37*
G36*
X1111414D02*
X1107160D01*
Y395515D01*
X1109056Y396301D01*
X1110629Y397873D01*
X1111414Y399770D01*
D02*
G37*
G36*
X1104620D02*
X1100365D01*
X1101151Y397873D01*
X1102723Y396301D01*
X1104620Y395515D01*
Y399770D01*
D02*
G37*
G36*
X1046200Y398945D02*
Y394690D01*
X1050454D01*
X1049669Y396586D01*
X1048096Y398159D01*
X1046200Y398945D01*
D02*
G37*
G36*
X1007520Y392689D02*
X1005935Y392033D01*
X1004517Y390615D01*
X1003977Y389311D01*
X1002603D01*
X1002063Y390615D01*
X1000645Y392033D01*
X999060Y392689D01*
Y387760D01*
X996520D01*
Y392689D01*
X994935Y392033D01*
X993517Y390615D01*
X992977Y389311D01*
X991603D01*
X991063Y390615D01*
X989645Y392033D01*
X988060Y392689D01*
Y387760D01*
X985520D01*
Y392689D01*
X983935Y392033D01*
X982517Y390615D01*
X981977Y389311D01*
X980603D01*
X980063Y390615D01*
X978645Y392033D01*
X977060Y392689D01*
Y387760D01*
X974520D01*
Y392689D01*
X972935Y392033D01*
X971517Y390615D01*
X970977Y389311D01*
X969603D01*
X969063Y390615D01*
X967645Y392033D01*
X966060Y392689D01*
Y387760D01*
X964790D01*
Y386490D01*
X959861D01*
X960517Y384905D01*
X961935Y383487D01*
X963239Y382947D01*
Y381573D01*
X961935Y381033D01*
X960517Y379615D01*
X959861Y378030D01*
X964790D01*
Y375490D01*
X959861D01*
X960517Y373905D01*
X961935Y372487D01*
X963239Y371947D01*
Y370573D01*
X961935Y370033D01*
X960517Y368615D01*
X959861Y367030D01*
X964790D01*
Y364490D01*
X959861D01*
X960517Y362905D01*
X961935Y361487D01*
X963239Y360947D01*
Y359573D01*
X961935Y359033D01*
X960517Y357615D01*
X959861Y356030D01*
X964790D01*
Y353490D01*
X959861D01*
X960517Y351905D01*
X961935Y350487D01*
X963239Y349947D01*
Y348573D01*
X961935Y348033D01*
X960517Y346615D01*
X959861Y345030D01*
X964790D01*
Y342490D01*
X959861D01*
X960403Y341181D01*
Y316387D01*
X960081Y316253D01*
X958509Y314681D01*
X957723Y312784D01*
X968772D01*
X967987Y314681D01*
X966414Y316253D01*
X966092Y316387D01*
Y338844D01*
X967645Y339487D01*
X969063Y340905D01*
X969603Y342209D01*
X970977D01*
X971517Y340905D01*
X972935Y339487D01*
X974520Y338831D01*
Y343760D01*
X977060D01*
Y338831D01*
X978645Y339487D01*
X980063Y340905D01*
X980603Y342209D01*
X981977D01*
X982517Y340905D01*
X983935Y339487D01*
X985520Y338831D01*
Y343760D01*
X988060D01*
Y338831D01*
X989645Y339487D01*
X991063Y340905D01*
X991603Y342209D01*
X992977D01*
X993517Y340905D01*
X994935Y339487D01*
X996520Y338831D01*
Y343760D01*
X999060D01*
Y338831D01*
X1000645Y339487D01*
X1002063Y340905D01*
X1002603Y342209D01*
X1003977D01*
X1004517Y340905D01*
X1005935Y339487D01*
X1007520Y338831D01*
Y343760D01*
X1008790D01*
Y345030D01*
X1013719D01*
X1013063Y346615D01*
X1011645Y348033D01*
X1010341Y348573D01*
Y349947D01*
X1011645Y350487D01*
X1013063Y351905D01*
X1013719Y353490D01*
X1008790D01*
Y356030D01*
X1013719D01*
X1013063Y357615D01*
X1011645Y359033D01*
X1010341Y359573D01*
Y360947D01*
X1011645Y361487D01*
X1013063Y362905D01*
X1013719Y364490D01*
X1008790D01*
Y367030D01*
X1013719D01*
X1013063Y368615D01*
X1011645Y370033D01*
X1010341Y370573D01*
Y371947D01*
X1011645Y372487D01*
X1013063Y373905D01*
X1013719Y375490D01*
X1008790D01*
Y378030D01*
X1013719D01*
X1013063Y379615D01*
X1011645Y381033D01*
X1010341Y381573D01*
Y382947D01*
X1011645Y383487D01*
X1013063Y384905D01*
X1013719Y386490D01*
X1008790D01*
Y387760D01*
X1007520D01*
Y392689D01*
D02*
G37*
G36*
X1010060D02*
Y389030D01*
X1013719D01*
X1013063Y390615D01*
X1011645Y392033D01*
X1010060Y392689D01*
D02*
G37*
G36*
X963520D02*
X961935Y392033D01*
X960517Y390615D01*
X959861Y389030D01*
X963520D01*
Y392689D01*
D02*
G37*
G36*
X1050454Y392150D02*
X1046200D01*
Y387895D01*
X1048096Y388681D01*
X1049669Y390253D01*
X1050454Y392150D01*
D02*
G37*
G36*
X1013460Y559105D02*
X896620D01*
X895531Y558888D01*
X894609Y558271D01*
X892069Y555731D01*
X891452Y554809D01*
X891235Y553720D01*
Y547611D01*
X890303Y547054D01*
X889170Y547663D01*
Y548810D01*
X882650D01*
Y541020D01*
Y533230D01*
X889170D01*
Y534657D01*
X890440Y535304D01*
X891467Y534711D01*
X893189Y534250D01*
X894971D01*
X896693Y534711D01*
X898237Y535603D01*
X899497Y536863D01*
X899697Y537209D01*
X901163D01*
X901363Y536863D01*
X902623Y535603D01*
X904167Y534711D01*
X905889Y534250D01*
X907671D01*
X909393Y534711D01*
X910937Y535603D01*
X912197Y536863D01*
X913089Y538407D01*
X913550Y540129D01*
Y541911D01*
X913089Y543633D01*
X912197Y545177D01*
X910937Y546437D01*
X909393Y547329D01*
X907671Y547790D01*
X905889D01*
X904167Y547329D01*
X902623Y546437D01*
X901363Y545177D01*
X901163Y544831D01*
X899697D01*
X899497Y545177D01*
X898237Y546437D01*
X896925Y547195D01*
Y552542D01*
X897798Y553415D01*
X1012282D01*
X1033475Y532222D01*
Y359410D01*
X1033692Y358321D01*
X1034309Y357399D01*
X1036167Y355540D01*
X1037090Y354923D01*
X1038179Y354707D01*
X1039890D01*
X1040066Y354281D01*
X1041351Y352996D01*
X1042684Y352444D01*
X1043056Y351423D01*
X1043067Y351030D01*
X1042606Y350569D01*
X1041910Y348889D01*
Y347071D01*
X1042606Y345391D01*
X1043891Y344106D01*
X1045571Y343410D01*
X1047027D01*
X1054629Y335809D01*
X1055551Y335192D01*
X1056640Y334975D01*
X1070802D01*
X1071831Y333946D01*
X1073511Y333250D01*
X1075329D01*
X1077009Y333946D01*
X1078294Y335231D01*
X1078990Y336911D01*
Y338729D01*
X1078294Y340409D01*
X1077009Y341694D01*
X1075329Y342390D01*
X1073511D01*
X1071831Y341694D01*
X1070802Y340665D01*
X1057818D01*
X1051050Y347433D01*
Y348889D01*
X1050354Y350569D01*
X1049069Y351854D01*
X1047736Y352407D01*
X1047364Y353427D01*
X1047353Y353820D01*
X1047814Y354281D01*
X1048510Y355961D01*
Y357779D01*
X1047946Y359140D01*
X1048671Y360076D01*
X1048792Y360164D01*
X1049381Y359920D01*
X1051199D01*
X1052879Y360616D01*
X1053273Y361010D01*
X1070389D01*
X1070546Y360631D01*
X1071831Y359346D01*
X1073511Y358650D01*
X1075329D01*
X1077009Y359346D01*
X1078294Y360631D01*
X1078990Y362311D01*
Y364129D01*
X1078294Y365809D01*
X1077009Y367094D01*
X1075329Y367790D01*
X1073511D01*
X1071831Y367094D01*
X1071437Y366700D01*
X1054321D01*
X1054164Y367079D01*
X1052879Y368364D01*
X1051199Y369060D01*
X1050419D01*
X1049893Y370330D01*
X1050354Y370791D01*
X1051050Y372471D01*
Y372964D01*
X1051162Y373075D01*
X1093562D01*
X1098245Y368392D01*
Y358445D01*
X1079500D01*
X1078411Y358228D01*
X1077489Y357612D01*
X1074967Y355090D01*
X1073511D01*
X1071831Y354394D01*
X1070546Y353109D01*
X1069850Y351429D01*
Y349611D01*
X1070546Y347931D01*
X1071831Y346646D01*
X1073511Y345950D01*
X1075329D01*
X1077009Y346646D01*
X1078294Y347931D01*
X1078990Y349611D01*
Y351067D01*
X1080678Y352755D01*
X1099602D01*
X1100691Y352972D01*
X1101613Y353589D01*
X1103101Y355076D01*
X1103718Y355999D01*
X1103935Y357088D01*
Y369570D01*
X1103718Y370659D01*
X1103101Y371581D01*
X1096751Y377931D01*
X1095829Y378548D01*
X1094740Y378765D01*
X1049983D01*
X1048895Y378548D01*
X1047972Y377931D01*
X1047814Y377774D01*
X1047389Y377950D01*
X1045571D01*
X1043891Y377254D01*
X1042606Y375969D01*
X1041910Y374289D01*
Y372471D01*
X1042606Y370791D01*
X1043891Y369506D01*
X1045571Y368810D01*
X1046351D01*
X1046877Y367540D01*
X1046416Y367079D01*
X1045720Y365399D01*
Y363581D01*
X1046284Y362220D01*
X1045559Y361283D01*
X1045438Y361196D01*
X1044849Y361440D01*
X1043031D01*
X1041351Y360744D01*
X1041003Y360396D01*
X1039357D01*
X1039165Y360588D01*
Y389621D01*
X1039294Y389701D01*
X1040435Y390010D01*
X1041764Y388681D01*
X1043660Y387895D01*
Y393420D01*
Y398945D01*
X1041764Y398159D01*
X1040435Y396830D01*
X1039294Y397140D01*
X1039165Y397220D01*
Y533400D01*
X1038948Y534489D01*
X1038331Y535411D01*
X1015471Y558271D01*
X1014549Y558888D01*
X1013460Y559105D01*
D02*
G37*
G36*
X811371Y392660D02*
X794331D01*
Y375620D01*
X811371D01*
Y392660D01*
D02*
G37*
G36*
X906500Y371004D02*
X904604Y370219D01*
X903031Y368647D01*
X902245Y366750D01*
X906500D01*
Y371004D01*
D02*
G37*
G36*
Y364210D02*
X902245D01*
X903031Y362313D01*
X904604Y360741D01*
X906500Y359955D01*
Y364210D01*
D02*
G37*
G36*
X868400Y354495D02*
Y350240D01*
X872654D01*
X871869Y352136D01*
X870296Y353709D01*
X868400Y354495D01*
D02*
G37*
G36*
X865860D02*
X863963Y353709D01*
X862391Y352136D01*
X861605Y350240D01*
X865860D01*
Y354495D01*
D02*
G37*
G36*
X872654Y347700D02*
X868400D01*
Y343445D01*
X870296Y344231D01*
X871869Y345803D01*
X872654Y347700D01*
D02*
G37*
G36*
X865860D02*
X861605D01*
X862391Y345803D01*
X863963Y344231D01*
X865860Y343445D01*
Y347700D01*
D02*
G37*
G36*
X1013719Y342490D02*
X1010060D01*
Y338831D01*
X1011645Y339487D01*
X1013063Y340905D01*
X1013719Y342490D01*
D02*
G37*
G36*
X968772Y310244D02*
X964518D01*
Y305990D01*
X966414Y306775D01*
X967987Y308348D01*
X968772Y310244D01*
D02*
G37*
G36*
X961978D02*
X957723D01*
X958509Y308348D01*
X960081Y306775D01*
X961978Y305990D01*
Y310244D01*
D02*
G37*
G36*
X1014957Y317354D02*
X1013139D01*
X1011459Y316658D01*
X1010173Y315373D01*
X1009478Y313693D01*
Y312237D01*
X1006155Y308915D01*
X993140D01*
X992051Y308698D01*
X991129Y308081D01*
X986882Y303835D01*
X959928D01*
X958899Y304864D01*
X957219Y305560D01*
X955401D01*
X953721Y304864D01*
X952436Y303579D01*
X951740Y301899D01*
Y300081D01*
X952436Y298401D01*
X953721Y297116D01*
X955401Y296420D01*
X957219D01*
X958899Y297116D01*
X959928Y298145D01*
X988060D01*
X989149Y298362D01*
X990071Y298979D01*
X994318Y303225D01*
X1007333D01*
X1008422Y303442D01*
X1009345Y304059D01*
X1013500Y308214D01*
X1014957D01*
X1016636Y308910D01*
X1017922Y310196D01*
X1018617Y311875D01*
Y313693D01*
X1017922Y315373D01*
X1016636Y316658D01*
X1014957Y317354D01*
D02*
G37*
G36*
X843847Y521354D02*
X842029D01*
X840350Y520658D01*
X839064Y519373D01*
X838368Y517693D01*
Y515875D01*
X839064Y514195D01*
X840350Y512910D01*
X840776Y512733D01*
Y324779D01*
X840993Y323691D01*
X841609Y322768D01*
X860319Y304058D01*
X861241Y303442D01*
X862330Y303225D01*
X929640D01*
X930729Y303442D01*
X931651Y304059D01*
X939271Y311679D01*
X939888Y312601D01*
X940105Y313690D01*
Y357062D01*
X941134Y358091D01*
X941830Y359771D01*
Y361589D01*
X941134Y363269D01*
X939849Y364554D01*
X938169Y365250D01*
X936351D01*
X934671Y364554D01*
X933386Y363269D01*
X932690Y361589D01*
Y359771D01*
X933386Y358091D01*
X934415Y357062D01*
Y314868D01*
X928462Y308915D01*
X863508D01*
X846465Y325958D01*
Y513848D01*
X846812Y514195D01*
X847508Y515875D01*
Y517693D01*
X846812Y519373D01*
X845527Y520658D01*
X843847Y521354D01*
D02*
G37*
G36*
X1296096Y294535D02*
X1292164D01*
X1292059Y294492D01*
X1291949Y294521D01*
X1288050Y294008D01*
X1287952Y293951D01*
X1287839Y293966D01*
X1284040Y292948D01*
X1283950Y292879D01*
X1283837D01*
X1280203Y291374D01*
X1280123Y291294D01*
X1280010Y291279D01*
X1276605Y289312D01*
X1276535Y289222D01*
X1276426Y289193D01*
X1273306Y286799D01*
X1273249Y286700D01*
X1273144Y286657D01*
X1270363Y283876D01*
X1270320Y283771D01*
X1270221Y283714D01*
X1267827Y280594D01*
X1267798Y280485D01*
X1267708Y280415D01*
X1265741Y277010D01*
X1265726Y276897D01*
X1265646Y276817D01*
X1264141Y273183D01*
Y273070D01*
X1264072Y272980D01*
X1263054Y269181D01*
X1263069Y269068D01*
X1263012Y268970D01*
X1262499Y265071D01*
X1262528Y264961D01*
X1262485Y264856D01*
Y260924D01*
X1262528Y260819D01*
X1262499Y260709D01*
X1263012Y256810D01*
X1263069Y256712D01*
X1263054Y256599D01*
X1264072Y252800D01*
X1264141Y252710D01*
Y252596D01*
X1265646Y248963D01*
X1265726Y248883D01*
X1265741Y248770D01*
X1267708Y245364D01*
X1267798Y245295D01*
X1267827Y245186D01*
X1270221Y242066D01*
X1270320Y242009D01*
X1270363Y241904D01*
X1273144Y239123D01*
X1273249Y239080D01*
X1273306Y238981D01*
X1276426Y236587D01*
X1276535Y236558D01*
X1276605Y236468D01*
X1280010Y234501D01*
X1280123Y234487D01*
X1280203Y234406D01*
X1283837Y232901D01*
X1283950D01*
X1284040Y232832D01*
X1287839Y231814D01*
X1287952Y231829D01*
X1288050Y231772D01*
X1291949Y231259D01*
X1292059Y231288D01*
X1292164Y231245D01*
X1296096D01*
X1296201Y231288D01*
X1296311Y231259D01*
X1300210Y231772D01*
X1300308Y231829D01*
X1300421Y231814D01*
X1304220Y232832D01*
X1304310Y232901D01*
X1304423D01*
X1308057Y234406D01*
X1308137Y234487D01*
X1308250Y234501D01*
X1311655Y236468D01*
X1311725Y236558D01*
X1311834Y236587D01*
X1314954Y238981D01*
X1315011Y239080D01*
X1315116Y239123D01*
X1317897Y241904D01*
X1317940Y242009D01*
X1318039Y242066D01*
X1320433Y245186D01*
X1320462Y245295D01*
X1320552Y245364D01*
X1322519Y248770D01*
X1322534Y248883D01*
X1322614Y248963D01*
X1324119Y252596D01*
Y252710D01*
X1324188Y252800D01*
X1325206Y256599D01*
X1325191Y256712D01*
X1325248Y256810D01*
X1325761Y260709D01*
X1325732Y260819D01*
X1325775Y260924D01*
Y264856D01*
X1325732Y264961D01*
X1325761Y265071D01*
X1325248Y268970D01*
X1325191Y269068D01*
X1325206Y269181D01*
X1324188Y272980D01*
X1324119Y273070D01*
Y273183D01*
X1322614Y276817D01*
X1322534Y276897D01*
X1322519Y277010D01*
X1320552Y280415D01*
X1320462Y280485D01*
X1320433Y280594D01*
X1318039Y283714D01*
X1317940Y283771D01*
X1317897Y283876D01*
X1315116Y286657D01*
X1315011Y286700D01*
X1314954Y286799D01*
X1311834Y289193D01*
X1311725Y289222D01*
X1311655Y289312D01*
X1308250Y291279D01*
X1308137Y291294D01*
X1308057Y291374D01*
X1304423Y292879D01*
X1304310D01*
X1304220Y292948D01*
X1300421Y293966D01*
X1300308Y293951D01*
X1300210Y294008D01*
X1296311Y294521D01*
X1296201Y294492D01*
X1296096Y294535D01*
D02*
G37*
G36*
X776096D02*
X772164D01*
X772059Y294492D01*
X771949Y294521D01*
X768050Y294008D01*
X767952Y293951D01*
X767839Y293966D01*
X764040Y292948D01*
X763950Y292879D01*
X763837D01*
X760203Y291374D01*
X760123Y291294D01*
X760010Y291279D01*
X756605Y289312D01*
X756535Y289222D01*
X756426Y289193D01*
X753306Y286799D01*
X753249Y286700D01*
X753144Y286657D01*
X750363Y283876D01*
X750320Y283771D01*
X750221Y283714D01*
X747827Y280594D01*
X747798Y280485D01*
X747708Y280415D01*
X745741Y277010D01*
X745726Y276897D01*
X745646Y276817D01*
X744141Y273183D01*
Y273070D01*
X744072Y272980D01*
X743054Y269181D01*
X743069Y269068D01*
X743012Y268970D01*
X742499Y265071D01*
X742528Y264961D01*
X742485Y264856D01*
Y260924D01*
X742528Y260819D01*
X742499Y260709D01*
X743012Y256810D01*
X743069Y256712D01*
X743054Y256599D01*
X744072Y252800D01*
X744141Y252710D01*
Y252596D01*
X745646Y248963D01*
X745726Y248883D01*
X745741Y248770D01*
X747708Y245364D01*
X747798Y245295D01*
X747827Y245186D01*
X750221Y242066D01*
X750320Y242009D01*
X750363Y241904D01*
X753144Y239123D01*
X753249Y239080D01*
X753306Y238981D01*
X756426Y236587D01*
X756535Y236558D01*
X756605Y236468D01*
X760010Y234501D01*
X760123Y234487D01*
X760203Y234406D01*
X763837Y232901D01*
X763950D01*
X764040Y232832D01*
X767839Y231814D01*
X767952Y231829D01*
X768050Y231772D01*
X771949Y231259D01*
X772059Y231288D01*
X772164Y231245D01*
X776096D01*
X776201Y231288D01*
X776311Y231259D01*
X780210Y231772D01*
X780308Y231829D01*
X780421Y231814D01*
X784220Y232832D01*
X784310Y232901D01*
X784424D01*
X788057Y234406D01*
X788137Y234487D01*
X788250Y234501D01*
X791656Y236468D01*
X791725Y236558D01*
X791834Y236587D01*
X794954Y238981D01*
X795011Y239080D01*
X795116Y239123D01*
X797897Y241904D01*
X797940Y242009D01*
X798039Y242066D01*
X800433Y245186D01*
X800462Y245295D01*
X800552Y245364D01*
X802519Y248770D01*
X802533Y248883D01*
X802614Y248963D01*
X804119Y252596D01*
Y252710D01*
X804188Y252800D01*
X805206Y256599D01*
X805191Y256712D01*
X805248Y256810D01*
X805761Y260709D01*
X805732Y260819D01*
X805775Y260924D01*
Y264856D01*
X805732Y264961D01*
X805761Y265071D01*
X805248Y268970D01*
X805191Y269068D01*
X805206Y269181D01*
X804188Y272980D01*
X804119Y273070D01*
Y273183D01*
X802614Y276817D01*
X802533Y276897D01*
X802519Y277010D01*
X800552Y280415D01*
X800462Y280485D01*
X800433Y280594D01*
X798039Y283714D01*
X797940Y283771D01*
X797897Y283876D01*
X795116Y286657D01*
X795011Y286700D01*
X794954Y286799D01*
X791834Y289193D01*
X791725Y289222D01*
X791656Y289312D01*
X788250Y291279D01*
X788137Y291294D01*
X788057Y291374D01*
X784424Y292879D01*
X784310D01*
X784220Y292948D01*
X780421Y293966D01*
X780308Y293951D01*
X780210Y294008D01*
X776311Y294521D01*
X776201Y294492D01*
X776096Y294535D01*
D02*
G37*
G36*
X947420Y286195D02*
Y281940D01*
X951675D01*
X950889Y283836D01*
X949316Y285409D01*
X947420Y286195D01*
D02*
G37*
G36*
X944880D02*
X942983Y285409D01*
X941411Y283836D01*
X940625Y281940D01*
X944880D01*
Y286195D01*
D02*
G37*
G36*
X951675Y279400D02*
X947420D01*
Y275145D01*
X949316Y275931D01*
X950889Y277504D01*
X951675Y279400D01*
D02*
G37*
G36*
X944880D02*
X940625D01*
X941411Y277504D01*
X942983Y275931D01*
X944880Y275145D01*
Y279400D01*
D02*
G37*
%LPD*%
D13*
X924560Y332740D02*
Y360680D01*
X1304290Y504190D02*
Y532130D01*
X1301750Y534670D02*
X1304290Y532130D01*
X1285410Y609589D02*
X1301750Y593249D01*
Y534670D02*
Y593249D01*
X1000760Y579120D02*
X1064260D01*
X1074420Y589280D01*
Y721360D02*
X1088390Y735330D01*
X1074420Y589280D02*
Y721360D01*
X1062990Y695960D02*
Y726440D01*
X1052830Y685800D02*
X1062990Y695960D01*
X886683Y685800D02*
X1052830D01*
X831168Y630284D02*
X886683Y685800D01*
X843621Y324779D02*
Y516420D01*
Y324779D02*
X862330Y306070D01*
X929640D01*
X937260Y313690D01*
Y360680D01*
X924560D02*
Y393700D01*
X938894Y408034D01*
X915670Y355058D02*
Y436880D01*
X911860Y440690D02*
X915670Y436880D01*
X918210Y351790D02*
Y352518D01*
X915670Y355058D02*
X918210Y352518D01*
X956310Y300990D02*
X988060D01*
X993140Y306070D01*
X963248Y311514D02*
Y341552D01*
X993140Y306070D02*
X1007333D01*
X1014048Y312784D01*
X963248Y341552D02*
X964790Y343094D01*
Y343760D01*
X938894Y408034D02*
X946738D01*
X965788Y447404D02*
X1023256D01*
X1025478Y445182D01*
Y414384D02*
Y445182D01*
X1006428Y419464D02*
X1006746D01*
X946738D02*
X1006428D01*
X1006746D02*
X1007110Y419100D01*
X947420Y433070D02*
X1007110D01*
X822960Y575310D02*
X861060Y537210D01*
X796290Y575310D02*
X822960D01*
X861060Y454660D02*
Y537210D01*
Y454660D02*
X875030Y440690D01*
X911860D01*
X1013460Y556260D02*
X1036320Y533400D01*
X896620Y556260D02*
X1013460D01*
X1036320Y359410D02*
Y533400D01*
X894080Y553720D02*
X896620Y556260D01*
X894080Y541020D02*
Y553720D01*
X963930Y600710D02*
X1046480D01*
X955040Y609600D02*
Y631190D01*
X1049020Y603250D02*
Y635000D01*
X1046480Y600710D02*
X1049020Y603250D01*
X955040Y609600D02*
X963930Y600710D01*
X1043940Y640080D02*
X1049020Y635000D01*
X1036320Y359410D02*
X1038179Y357551D01*
X1043259D02*
X1043940Y356870D01*
X1038179Y357551D02*
X1043259D01*
X1050290Y364490D02*
X1050925Y363855D01*
X1073785D02*
X1074420Y363220D01*
X1050925Y363855D02*
X1073785D01*
X1047443Y373380D02*
X1049983Y375920D01*
X1046480Y373380D02*
X1047443D01*
X1049983Y375920D02*
X1094740D01*
X1099602Y355600D02*
X1101090Y357088D01*
Y369570D01*
X1094740Y375920D02*
X1101090Y369570D01*
X1079500Y355600D02*
X1099602D01*
X1074420Y350520D02*
X1079500Y355600D01*
X1046480Y347980D02*
X1056640Y337820D01*
X1074420D01*
X999490Y614680D02*
Y656590D01*
X993140Y662940D02*
X999490Y656590D01*
Y614680D02*
X1005840Y608330D01*
D53*
X802851Y384140D02*
D03*
X796290Y525310D02*
D03*
D54*
X802851Y409140D02*
D03*
Y434140D02*
D03*
Y459140D02*
D03*
X796290Y550310D02*
D03*
Y575310D02*
D03*
D57*
X1285410Y634589D02*
D03*
D58*
Y609589D02*
D03*
X914200Y758360D02*
D03*
D59*
X889200D02*
D03*
D62*
X906780Y541020D02*
D03*
X894080D02*
D03*
D63*
X881380D02*
D03*
D64*
X1163320Y610870D02*
D03*
X946150Y280670D02*
D03*
X881380Y504190D02*
D03*
X1044930Y393420D02*
D03*
X1105890Y401040D02*
D03*
X1269720D02*
D03*
X1331950Y449300D02*
D03*
Y497560D02*
D03*
X1268450Y514070D02*
D03*
X792200Y628370D02*
D03*
X805011Y723517D02*
D03*
X867130Y348970D02*
D03*
X907770Y365480D02*
D03*
X1304290Y504190D02*
D03*
X1001214Y578960D02*
D03*
X1088390Y735330D02*
D03*
X1088978Y603614D02*
D03*
X1055958Y607424D02*
D03*
X967058Y617584D02*
D03*
X1007698Y646794D02*
D03*
X1062609Y726844D02*
D03*
X831168Y630284D02*
D03*
X842938Y516784D02*
D03*
X956310Y300990D02*
D03*
X926418Y333104D02*
D03*
X924560Y360680D02*
D03*
X918210Y351790D02*
D03*
X937260Y360680D02*
D03*
X963248Y311514D02*
D03*
X1014048Y312784D02*
D03*
X946738Y408034D02*
D03*
X965788Y447404D02*
D03*
X1025478Y414384D02*
D03*
X1006428Y419464D02*
D03*
X946738D02*
D03*
X1007110Y433070D02*
D03*
X947420D02*
D03*
X1043940Y356870D02*
D03*
X1050290Y364490D02*
D03*
X1046480Y373380D02*
D03*
X1074420Y350520D02*
D03*
Y363220D02*
D03*
Y337820D02*
D03*
X1046480Y347980D02*
D03*
X955040Y631190D02*
D03*
X1043940Y640080D02*
D03*
X993140Y662940D02*
D03*
X1005840Y608330D02*
D03*
X958850Y715010D02*
D03*
D65*
X964790Y387760D02*
D03*
X975790D02*
D03*
X986790D02*
D03*
X997790D02*
D03*
X1008790D02*
D03*
X964790Y376760D02*
D03*
X975790D02*
D03*
X986790D02*
D03*
X997790D02*
D03*
X1008790D02*
D03*
X964790Y365760D02*
D03*
X975790D02*
D03*
X986790D02*
D03*
X997790D02*
D03*
X1008790D02*
D03*
X964790Y354760D02*
D03*
X975790D02*
D03*
X986790D02*
D03*
X997790D02*
D03*
X1008790D02*
D03*
X964790Y343760D02*
D03*
X975790D02*
D03*
X986790D02*
D03*
X997790D02*
D03*
X1008790D02*
D03*
M02*
