G04*
G04 #@! TF.GenerationSoftware,Altium Limited,Altium Designer,22.5.1 (42)*
G04*
G04 Layer_Color=32768*
%FSLAX44Y44*%
%MOMM*%
G71*
G04*
G04 #@! TF.SameCoordinates,548A175F-BCEF-4031-9993-F39C1D0A8298*
G04*
G04*
G04 #@! TF.FilePolarity,Positive*
G04*
G01*
G75*
%ADD11C,0.2000*%
%ADD66C,0.1000*%
%ADD67C,0.0500*%
D11*
X751531Y619520D02*
Y716520D01*
X813531D01*
Y619520D02*
Y716520D01*
X751531Y619520D02*
X813531D01*
X835851Y358140D02*
Y485140D01*
X769851Y358140D02*
X835851D01*
X769851D02*
Y485140D01*
X835851D01*
X1279789Y484659D02*
Y523721D01*
X1300851D01*
Y484659D02*
Y523721D01*
X1279789Y484659D02*
X1300851D01*
X888856Y345686D02*
X906534Y363364D01*
X874007Y360536D02*
X888856Y345686D01*
X874007Y360536D02*
X891684Y378214D01*
X906534Y363364D01*
X1309910Y584089D02*
Y660089D01*
X1250410Y584089D02*
X1309910D01*
X1250410D02*
Y660089D01*
X1309910D01*
X771790Y499810D02*
Y600810D01*
X831290D01*
Y499810D02*
Y600810D01*
X771790Y499810D02*
X831290D01*
X819549Y677109D02*
Y717171D01*
X841611D01*
Y677109D02*
Y717171D01*
X819549Y677109D02*
X841611D01*
X871509Y341231D02*
X911571D01*
Y319169D02*
Y341231D01*
X871509Y319169D02*
X911571D01*
X871509D02*
Y341231D01*
X992790Y268170D02*
Y293170D01*
X980790Y268170D02*
X992790D01*
X980790D02*
Y293170D01*
X992790D01*
X870239Y382669D02*
X910301D01*
X870239D02*
Y404731D01*
X910301D01*
Y382669D02*
Y404731D01*
X956920Y457869D02*
Y497931D01*
X978982D01*
Y457869D02*
Y497931D01*
X956920Y457869D02*
X978982D01*
X930250D02*
Y497931D01*
X952312D01*
Y457869D02*
Y497931D01*
X930250Y457869D02*
X952312D01*
X903580D02*
Y497931D01*
X925642D01*
Y457869D02*
Y497931D01*
X903580Y457869D02*
X925642D01*
X876910D02*
Y497931D01*
X898972D01*
Y457869D02*
Y497931D01*
X876910Y457869D02*
X898972D01*
X1053701Y263179D02*
Y303241D01*
X1031639Y263179D02*
X1053701D01*
X1031639D02*
Y303241D01*
X1053701D01*
X1025761Y263179D02*
Y303241D01*
X1003699Y263179D02*
X1025761D01*
X1003699D02*
Y303241D01*
X1025761D01*
X969980Y661770D02*
X1037042D01*
Y610770D02*
Y661770D01*
X969980Y610770D02*
X1037042D01*
X969980D02*
Y661770D01*
X1279789Y435129D02*
Y474191D01*
X1300851D01*
Y435129D02*
Y474191D01*
X1279789Y435129D02*
X1300851D01*
X1216720Y686021D02*
Y723679D01*
X1237342D01*
Y686021D02*
Y723679D01*
X1216720Y686021D02*
X1237342D01*
X928720Y594810D02*
Y619310D01*
X940720D01*
Y594810D02*
Y619310D01*
X928720Y594810D02*
X940720D01*
X1237562Y727229D02*
Y766291D01*
X1216500Y727229D02*
X1237562D01*
X1216500D02*
Y766291D01*
X1237562D01*
X929220Y631160D02*
Y659160D01*
X940220D01*
Y631160D02*
Y659160D01*
X929220Y631160D02*
X940220D01*
X863700Y782860D02*
X939700D01*
Y723360D02*
Y782860D01*
X863700Y723360D02*
X939700D01*
X863700D02*
Y782860D01*
X1314030Y494210D02*
Y516710D01*
X1325030D01*
Y494210D02*
Y516710D01*
X1314030Y494210D02*
X1325030D01*
X1035820Y708069D02*
Y737191D01*
X1049942D01*
Y708069D02*
Y737191D01*
X1035820Y708069D02*
X1049942D01*
X965970Y707647D02*
Y736769D01*
X980092D01*
Y707647D02*
Y736769D01*
X965970Y707647D02*
X980092D01*
X1104550Y607760D02*
Y631760D01*
X1092550Y607760D02*
X1104550D01*
X1092550D02*
Y631760D01*
X1104550D01*
X1195211Y581000D02*
Y663600D01*
X1243611D01*
Y581000D02*
Y663600D01*
X1195211Y581000D02*
X1243611D01*
X1139331D02*
Y663600D01*
X1187731D01*
Y581000D02*
Y663600D01*
X1139331Y581000D02*
X1187731D01*
X897031Y620680D02*
X922031D01*
Y608680D02*
Y620680D01*
X897031Y608680D02*
X922031D01*
X897031D02*
Y620680D01*
Y644810D02*
X922031D01*
Y632810D02*
Y644810D01*
X897031Y632810D02*
X922031D01*
X897031D02*
Y644810D01*
X987290Y584599D02*
X1027352D01*
X987290D02*
Y606661D01*
X1027352D01*
Y584599D02*
Y606661D01*
D66*
X1008591Y717630D02*
Y727630D01*
X1003591Y722630D02*
X1013591D01*
X894080Y536020D02*
Y546020D01*
X889080Y541020D02*
X899080D01*
X981790Y365760D02*
X991790D01*
X986790Y360760D02*
Y370760D01*
X957910Y279400D02*
X967410D01*
X962660Y274650D02*
Y284150D01*
X983521Y468630D02*
X993021D01*
X988271Y463880D02*
Y473380D01*
X825830Y648970D02*
X835330D01*
X830580Y644220D02*
Y653720D01*
X1088390Y641680D02*
Y651180D01*
X1083640Y646430D02*
X1093140D01*
X1149350Y734140D02*
Y744140D01*
X1144350Y739140D02*
X1154350D01*
X1089350Y684140D02*
X1209350D01*
X1089350Y794140D02*
X1209350D01*
Y684140D02*
Y794140D01*
X1089350Y684140D02*
Y794140D01*
X1319530Y453800D02*
Y458800D01*
X1317030Y456300D02*
X1322030D01*
X1078441Y615010D02*
Y624510D01*
X1073691Y619760D02*
X1083191D01*
X1051081D02*
X1060081D01*
X1055581Y615260D02*
Y624260D01*
D67*
X989341Y705130D02*
X1027841D01*
X989341Y740130D02*
X1027841D01*
Y705130D02*
Y740130D01*
X989341Y705130D02*
Y740130D01*
X869580Y526670D02*
X918580D01*
Y565520D01*
X869580Y526670D02*
Y565520D01*
X918580D01*
X941790Y320760D02*
Y410760D01*
X1031790Y320760D02*
Y410760D01*
X941790D02*
X1031790D01*
X941790Y320760D02*
X1031790D01*
X968660Y267900D02*
Y290900D01*
X956660Y267900D02*
Y290900D01*
X968660D01*
X956660Y267900D02*
X968660D01*
X982271Y457130D02*
Y480130D01*
X994271Y457130D02*
Y480130D01*
X982271Y457130D02*
X994271D01*
X982271Y480130D02*
X994271D01*
X824580Y637470D02*
Y660470D01*
X836580Y637470D02*
Y660470D01*
X824580Y637470D02*
X836580D01*
X824580Y660470D02*
X836580D01*
X1071390Y656930D02*
X1105390D01*
X1071390Y635930D02*
X1105390D01*
X1071390D02*
Y656930D01*
X1105390Y635930D02*
Y656930D01*
X1314530Y445050D02*
Y467550D01*
Y445050D02*
X1324530D01*
Y467550D01*
X1314530D02*
X1324530D01*
X1070941Y606260D02*
X1085941D01*
X1070941Y633260D02*
X1085941D01*
X1070941Y606260D02*
Y633260D01*
X1085941Y606260D02*
Y633260D01*
X1066081Y602760D02*
Y636760D01*
X1045081Y602760D02*
Y636760D01*
X1066081D01*
X1045081Y602760D02*
X1066081D01*
M02*
