G04*
G04 #@! TF.GenerationSoftware,Altium Limited,Altium Designer,22.5.1 (42)*
G04*
G04 Layer_Color=0*
%FSLAX44Y44*%
%MOMM*%
G71*
G04*
G04 #@! TF.SameCoordinates,548A175F-BCEF-4031-9993-F39C1D0A8298*
G04*
G04*
G04 #@! TF.FilePolarity,Positive*
G04*
G01*
G75*
%ADD66C,0.1000*%
D66*
X782531Y663020D02*
Y673020D01*
X777531Y668020D02*
X787531D01*
X802851Y416640D02*
Y426640D01*
X797851Y421640D02*
X807851D01*
X1290320Y499190D02*
Y509190D01*
X1285320Y504190D02*
X1295320D01*
X886734Y358414D02*
X893805Y365485D01*
X886734D02*
X893805Y358414D01*
X1280160Y617089D02*
Y627089D01*
X1275160Y622089D02*
X1285160D01*
X801540Y545310D02*
Y555310D01*
X796540Y550310D02*
X806540D01*
X830580Y692140D02*
Y702140D01*
X825580Y697140D02*
X835580D01*
X886540Y330200D02*
X896540D01*
X891540Y325200D02*
Y335200D01*
X986790Y275670D02*
Y285670D01*
X981790Y280670D02*
X991790D01*
X885270Y393700D02*
X895270D01*
X890270Y388700D02*
Y398700D01*
X967951Y472900D02*
Y482900D01*
X962951Y477900D02*
X972951D01*
X941281Y472900D02*
Y482900D01*
X936281Y477900D02*
X946281D01*
X914611Y472900D02*
Y482900D01*
X909611Y477900D02*
X919611D01*
X887941Y472900D02*
Y482900D01*
X882941Y477900D02*
X892941D01*
X1042670Y278210D02*
Y288210D01*
X1037670Y283210D02*
X1047670D01*
X1014730Y278210D02*
Y288210D01*
X1009730Y283210D02*
X1019730D01*
X998511Y636270D02*
X1008511D01*
X1003511Y631270D02*
Y641270D01*
X1290320Y449660D02*
Y459660D01*
X1285320Y454660D02*
X1295320D01*
X1227031Y699850D02*
Y709850D01*
X1222031Y704850D02*
X1232031D01*
X934720Y602060D02*
Y612060D01*
X929720Y607060D02*
X939720D01*
X1227031Y741760D02*
Y751760D01*
X1222031Y746760D02*
X1232031D01*
X934720Y640160D02*
Y650160D01*
X929720Y645160D02*
X939720D01*
X896700Y753110D02*
X906700D01*
X901700Y748110D02*
Y758110D01*
X1319530Y500460D02*
Y510460D01*
X1314530Y505460D02*
X1324530D01*
X1042881Y717630D02*
Y727630D01*
X1037881Y722630D02*
X1047881D01*
X973031Y717208D02*
Y727208D01*
X968031Y722208D02*
X978031D01*
X1098550Y614760D02*
Y624760D01*
X1093550Y619760D02*
X1103550D01*
X1219411Y617300D02*
Y627300D01*
X1214411Y622300D02*
X1224411D01*
X1163531Y617300D02*
Y627300D01*
X1158531Y622300D02*
X1168531D01*
X904531Y614680D02*
X914531D01*
X909531Y609680D02*
Y619680D01*
X904531Y638810D02*
X914531D01*
X909531Y633810D02*
Y643810D01*
X1002321Y595630D02*
X1012321D01*
X1007321Y590630D02*
Y600630D01*
M02*
