G04*
G04 #@! TF.GenerationSoftware,Altium Limited,Altium Designer,22.5.1 (42)*
G04*
G04 Layer_Color=16711935*
%FSLAX44Y44*%
%MOMM*%
G71*
G04*
G04 #@! TF.SameCoordinates,548A175F-BCEF-4031-9993-F39C1D0A8298*
G04*
G04*
G04 #@! TF.FilePolarity,Positive*
G04*
G01*
G75*
%ADD13C,0.2540*%
D13*
X1324130Y782890D02*
X1324022Y785434D01*
X1323698Y787960D01*
X1323162Y790449D01*
X1322416Y792884D01*
X1321467Y795247D01*
X1320320Y797521D01*
X1318985Y799689D01*
X1317471Y801737D01*
X1315789Y803648D01*
X1313950Y805410D01*
X1311969Y807010D01*
X1309859Y808436D01*
X1307636Y809678D01*
X1305316Y810727D01*
X1302915Y811575D01*
X1300450Y812217D01*
X1297941Y812647D01*
X1295403Y812863D01*
X1292857D01*
X1290320Y812647D01*
X1287810Y812217D01*
X1285345Y811575D01*
X1282944Y810727D01*
X1280624Y809678D01*
X1278401Y808436D01*
X1276291Y807010D01*
X1274310Y805410D01*
X1272471Y803648D01*
X1270789Y801737D01*
X1269275Y799689D01*
X1267940Y797521D01*
X1266793Y795247D01*
X1265844Y792884D01*
X1265098Y790449D01*
X1264561Y787960D01*
X1264238Y785434D01*
X1264130Y782890D01*
X1264238Y780346D01*
X1264561Y777820D01*
X1265098Y775331D01*
X1265844Y772896D01*
X1266793Y770533D01*
X1267940Y768259D01*
X1269275Y766091D01*
X1270789Y764043D01*
X1272471Y762132D01*
X1274310Y760370D01*
X1276291Y758770D01*
X1278401Y757344D01*
X1280624Y756102D01*
X1282944Y755053D01*
X1285345Y754205D01*
X1287810Y753563D01*
X1290320Y753133D01*
X1292857Y752917D01*
X1295403D01*
X1297941Y753133D01*
X1300450Y753563D01*
X1302915Y754205D01*
X1305316Y755053D01*
X1307636Y756102D01*
X1309859Y757344D01*
X1311969Y758770D01*
X1313950Y760370D01*
X1315789Y762132D01*
X1317471Y764044D01*
X1318985Y766091D01*
X1320320Y768259D01*
X1321467Y770533D01*
X1322416Y772896D01*
X1323162Y775331D01*
X1323698Y777820D01*
X1324022Y780346D01*
X1324130Y782890D01*
X1349630Y782307D02*
X1349571Y784871D01*
X1349393Y787429D01*
X1349098Y789977D01*
X1348685Y792508D01*
X1348155Y795017D01*
X1347511Y797499D01*
X1346752Y799949D01*
X1345881Y802361D01*
X1344900Y804730D01*
X1343810Y807051D01*
X1342614Y809320D01*
X1341315Y811531D01*
X1339915Y813680D01*
X1338417Y815761D01*
X1336825Y817771D01*
X1335142Y819706D01*
X1333371Y821561D01*
X1331516Y823332D01*
X1329581Y825015D01*
X1327571Y826607D01*
X1325490Y828105D01*
X1323341Y829505D01*
X1321130Y830804D01*
X1318861Y832000D01*
X1316540Y833090D01*
X1314171Y834071D01*
X1311759Y834942D01*
X1309309Y835701D01*
X1306827Y836345D01*
X1304318Y836875D01*
X1301787Y837288D01*
X1299240Y837583D01*
X1296681Y837761D01*
X1294117Y837820D01*
X774241Y837887D02*
X771699Y837828D01*
X769163Y837652D01*
X766637Y837359D01*
X764127Y836950D01*
X761639Y836425D01*
X759178Y835786D01*
X756750Y835033D01*
X754358Y834170D01*
X752009Y833197D01*
X749707Y832116D01*
X747458Y830931D01*
X745266Y829643D01*
X743136Y828254D01*
X741072Y826769D01*
X739079Y825191D01*
X737160Y823522D01*
X735322Y821766D01*
X733566Y819927D01*
X731896Y818009D01*
X730318Y816015D01*
X728833Y813951D01*
X727445Y811821D01*
X726156Y809629D01*
X724971Y807380D01*
X723890Y805078D01*
X722917Y802729D01*
X722054Y800337D01*
X721302Y797909D01*
X720662Y795448D01*
X720138Y792960D01*
X719728Y790450D01*
X719435Y787924D01*
X719259Y785388D01*
X719200Y782846D01*
X719130Y262816D02*
X719189Y260277D01*
X719365Y257744D01*
X719657Y255222D01*
X720066Y252716D01*
X720590Y250232D01*
X721228Y247774D01*
X721979Y245349D01*
X722842Y242960D01*
X723813Y240615D01*
X724892Y238316D01*
X726076Y236070D01*
X727363Y233881D01*
X728749Y231754D01*
X730232Y229693D01*
X731808Y227702D01*
X733475Y225787D01*
X735229Y223950D01*
X737065Y222197D01*
X738980Y220530D01*
X740971Y218954D01*
X743032Y217471D01*
X745159Y216085D01*
X747348Y214798D01*
X749594Y213614D01*
X751893Y212535D01*
X754239Y211563D01*
X756627Y210701D01*
X759052Y209950D01*
X761510Y209312D01*
X763994Y208788D01*
X766500Y208379D01*
X769023Y208086D01*
X771555Y207911D01*
X774094Y207852D01*
X1294130Y207820D02*
X1296673Y207879D01*
X1299211Y208055D01*
X1301738Y208348D01*
X1304249Y208758D01*
X1306738Y209283D01*
X1309201Y209922D01*
X1311631Y210675D01*
X1314024Y211539D01*
X1316374Y212512D01*
X1318677Y213594D01*
X1320927Y214780D01*
X1323121Y216069D01*
X1325252Y217458D01*
X1327317Y218943D01*
X1329311Y220523D01*
X1331230Y222193D01*
X1333070Y223950D01*
X1334827Y225790D01*
X1336497Y227709D01*
X1338077Y229703D01*
X1339563Y231768D01*
X1340951Y233900D01*
X1342240Y236093D01*
X1343427Y238343D01*
X1344508Y240646D01*
X1345481Y242997D01*
X1346345Y245389D01*
X1347098Y247820D01*
X1347737Y250282D01*
X1348262Y252771D01*
X1348672Y255282D01*
X1348965Y257809D01*
X1349141Y260347D01*
X1349200Y262890D01*
X804130Y782890D02*
X804022Y785434D01*
X803699Y787960D01*
X803162Y790449D01*
X802416Y792884D01*
X801467Y795247D01*
X800320Y797521D01*
X798985Y799689D01*
X797471Y801737D01*
X795789Y803648D01*
X793950Y805410D01*
X791969Y807010D01*
X789859Y808436D01*
X787636Y809678D01*
X785316Y810727D01*
X782915Y811575D01*
X780450Y812217D01*
X777941Y812647D01*
X775403Y812863D01*
X772857D01*
X770320Y812647D01*
X767810Y812217D01*
X765345Y811575D01*
X762944Y810727D01*
X760624Y809678D01*
X758401Y808436D01*
X756291Y807010D01*
X754310Y805410D01*
X752471Y803648D01*
X750789Y801737D01*
X749275Y799689D01*
X747940Y797521D01*
X746793Y795247D01*
X745844Y792884D01*
X745098Y790449D01*
X744562Y787960D01*
X744238Y785434D01*
X744130Y782890D01*
X744238Y780346D01*
X744562Y777820D01*
X745098Y775331D01*
X745844Y772896D01*
X746793Y770533D01*
X747940Y768259D01*
X749275Y766091D01*
X750789Y764043D01*
X752471Y762132D01*
X754310Y760370D01*
X756291Y758770D01*
X758401Y757344D01*
X760624Y756102D01*
X762944Y755053D01*
X765345Y754205D01*
X767810Y753563D01*
X770320Y753133D01*
X772857Y752917D01*
X775403D01*
X777941Y753133D01*
X780451Y753563D01*
X782915Y754205D01*
X785316Y755053D01*
X787636Y756102D01*
X789859Y757344D01*
X791969Y758770D01*
X793950Y760370D01*
X795789Y762132D01*
X797471Y764044D01*
X798985Y766091D01*
X800321Y768259D01*
X801467Y770533D01*
X802416Y772896D01*
X803162Y775331D01*
X803699Y777820D01*
X804022Y780346D01*
X804130Y782890D01*
Y262890D02*
X804022Y265434D01*
X803699Y267960D01*
X803162Y270449D01*
X802416Y272884D01*
X801467Y275247D01*
X800320Y277521D01*
X798985Y279689D01*
X797471Y281737D01*
X795789Y283648D01*
X793950Y285410D01*
X791969Y287010D01*
X789859Y288436D01*
X787636Y289678D01*
X785316Y290727D01*
X782915Y291575D01*
X780450Y292217D01*
X777941Y292647D01*
X775403Y292863D01*
X772857D01*
X770320Y292647D01*
X767810Y292217D01*
X765345Y291575D01*
X762944Y290727D01*
X760624Y289678D01*
X758401Y288436D01*
X756291Y287010D01*
X754310Y285410D01*
X752471Y283648D01*
X750789Y281737D01*
X749275Y279689D01*
X747940Y277521D01*
X746793Y275247D01*
X745844Y272884D01*
X745098Y270449D01*
X744562Y267960D01*
X744238Y265434D01*
X744130Y262890D01*
X744238Y260346D01*
X744562Y257820D01*
X745098Y255331D01*
X745844Y252896D01*
X746793Y250533D01*
X747940Y248259D01*
X749275Y246091D01*
X750789Y244043D01*
X752471Y242132D01*
X754310Y240370D01*
X756291Y238770D01*
X758401Y237344D01*
X760624Y236102D01*
X762944Y235053D01*
X765345Y234205D01*
X767810Y233563D01*
X770320Y233133D01*
X772857Y232917D01*
X775403D01*
X777941Y233133D01*
X780451Y233563D01*
X782915Y234205D01*
X785316Y235053D01*
X787636Y236102D01*
X789859Y237344D01*
X791969Y238770D01*
X793950Y240370D01*
X795789Y242132D01*
X797471Y244044D01*
X798985Y246091D01*
X800321Y248259D01*
X801467Y250533D01*
X802416Y252896D01*
X803162Y255331D01*
X803699Y257820D01*
X804022Y260346D01*
X804130Y262890D01*
X1324130D02*
X1324022Y265434D01*
X1323698Y267960D01*
X1323162Y270449D01*
X1322416Y272884D01*
X1321467Y275247D01*
X1320320Y277521D01*
X1318985Y279689D01*
X1317471Y281737D01*
X1315789Y283648D01*
X1313950Y285410D01*
X1311969Y287010D01*
X1309859Y288436D01*
X1307636Y289678D01*
X1305316Y290727D01*
X1302915Y291575D01*
X1300450Y292217D01*
X1297941Y292647D01*
X1295403Y292863D01*
X1292857D01*
X1290320Y292647D01*
X1287810Y292217D01*
X1285345Y291575D01*
X1282944Y290727D01*
X1280624Y289678D01*
X1278401Y288436D01*
X1276291Y287010D01*
X1274310Y285410D01*
X1272471Y283648D01*
X1270789Y281737D01*
X1269275Y279689D01*
X1267940Y277521D01*
X1266793Y275247D01*
X1265844Y272884D01*
X1265098Y270449D01*
X1264561Y267960D01*
X1264238Y265434D01*
X1264130Y262890D01*
X1264238Y260346D01*
X1264561Y257820D01*
X1265098Y255331D01*
X1265844Y252896D01*
X1266793Y250533D01*
X1267940Y248259D01*
X1269275Y246091D01*
X1270789Y244043D01*
X1272471Y242132D01*
X1274310Y240370D01*
X1276291Y238770D01*
X1278401Y237344D01*
X1280624Y236102D01*
X1282944Y235053D01*
X1285345Y234205D01*
X1287810Y233563D01*
X1290320Y233133D01*
X1292857Y232917D01*
X1295403D01*
X1297941Y233133D01*
X1300450Y233563D01*
X1302915Y234205D01*
X1305316Y235053D01*
X1307636Y236102D01*
X1309859Y237344D01*
X1311969Y238770D01*
X1313950Y240370D01*
X1315789Y242132D01*
X1317471Y244044D01*
X1318985Y246091D01*
X1320320Y248259D01*
X1321467Y250533D01*
X1322416Y252896D01*
X1323162Y255331D01*
X1323698Y257820D01*
X1324022Y260346D01*
X1324130Y262890D01*
X1349130D02*
X1349630Y782307D01*
X774094Y207852D02*
X1294130Y207820D01*
X719130Y262816D02*
X719200Y782846D01*
X774241Y837887D02*
X1294117Y837820D01*
M02*
