G04*
G04 #@! TF.GenerationSoftware,Altium Limited,Altium Designer,22.5.1 (42)*
G04*
G04 Layer_Color=16711935*
%FSLAX44Y44*%
%MOMM*%
G71*
G04*
G04 #@! TF.SameCoordinates,548A175F-BCEF-4031-9993-F39C1D0A8298*
G04*
G04*
G04 #@! TF.FilePolarity,Positive*
G04*
G01*
G75*
%ADD11C,0.2000*%
%ADD66C,0.1000*%
D11*
X752531Y638020D02*
Y698020D01*
X812531D01*
Y638020D02*
Y698020D01*
X752531Y638020D02*
X812531D01*
X834851Y359140D02*
Y484140D01*
X770851Y359140D02*
X834851D01*
X770851D02*
Y484140D01*
X834851D01*
X1286320Y496190D02*
Y512190D01*
X1294320D01*
Y496190D02*
Y512190D01*
X1286320Y496190D02*
X1294320D01*
X888856Y348515D02*
X903705Y363364D01*
X876835Y360536D02*
X888856Y348515D01*
X876835Y360536D02*
X891684Y375385D01*
X903705Y363364D01*
X1308910Y585089D02*
Y659089D01*
X1251410Y585089D02*
X1308910D01*
X1251410D02*
Y659089D01*
X1308910D01*
X772790Y500810D02*
Y599810D01*
X830290D01*
Y500810D02*
Y599810D01*
X772790Y500810D02*
X830290D01*
X826580Y689140D02*
Y705140D01*
X834580D01*
Y689140D02*
Y705140D01*
X826580Y689140D02*
X834580D01*
X883540Y334200D02*
X899540D01*
Y326200D02*
Y334200D01*
X883540Y326200D02*
X899540D01*
X883540D02*
Y334200D01*
X991790Y271670D02*
Y289670D01*
X981790Y271670D02*
X991790D01*
X981790D02*
Y289670D01*
X991790D01*
X882270Y389700D02*
X898270D01*
X882270D02*
Y397700D01*
X898270D01*
Y389700D02*
Y397700D01*
X963951Y469900D02*
Y485900D01*
X971951D01*
Y469900D02*
Y485900D01*
X963951Y469900D02*
X971951D01*
X937281D02*
Y485900D01*
X945281D01*
Y469900D02*
Y485900D01*
X937281Y469900D02*
X945281D01*
X910611D02*
Y485900D01*
X918611D01*
Y469900D02*
Y485900D01*
X910611Y469900D02*
X918611D01*
X883941D02*
Y485900D01*
X891941D01*
Y469900D02*
Y485900D01*
X883941Y469900D02*
X891941D01*
X1046670Y275210D02*
Y291210D01*
X1038670Y275210D02*
X1046670D01*
X1038670D02*
Y291210D01*
X1046670D01*
X1018730Y275210D02*
Y291210D01*
X1010730Y275210D02*
X1018730D01*
X1010730D02*
Y291210D01*
X1018730D01*
X984011Y660770D02*
X1023011D01*
Y611770D02*
Y660770D01*
X984011Y611770D02*
X1023011D01*
X984011D02*
Y660770D01*
X1286320Y446660D02*
Y462660D01*
X1294320D01*
Y446660D02*
Y462660D01*
X1286320Y446660D02*
X1294320D01*
X1222781Y697100D02*
Y712600D01*
X1231281D01*
Y697100D02*
Y712600D01*
X1222781Y697100D02*
X1231281D01*
X929970Y598810D02*
Y615310D01*
X939470D01*
Y598810D02*
Y615310D01*
X929970Y598810D02*
X939470D01*
X1231031Y738760D02*
Y754760D01*
X1223031Y738760D02*
X1231031D01*
X1223031D02*
Y754760D01*
X1231031D01*
X930220Y636660D02*
Y653660D01*
X939220D01*
Y636660D02*
Y653660D01*
X930220Y636660D02*
X939220D01*
X864700Y781860D02*
X938700D01*
Y724360D02*
Y781860D01*
X864700Y724360D02*
X938700D01*
X864700D02*
Y781860D01*
X1315030Y496960D02*
Y513960D01*
X1324030D01*
Y496960D02*
Y513960D01*
X1315030Y496960D02*
X1324030D01*
X1038881Y714630D02*
Y730630D01*
X1046881D01*
Y714630D02*
Y730630D01*
X1038881Y714630D02*
X1046881D01*
X969031Y714208D02*
Y730208D01*
X977031D01*
Y714208D02*
Y730208D01*
X969031Y714208D02*
X977031D01*
X1103300Y611010D02*
Y628510D01*
X1093800Y611010D02*
X1103300D01*
X1093800D02*
Y628510D01*
X1103300D01*
X1196411Y584300D02*
Y660300D01*
X1242411D01*
Y584300D02*
Y660300D01*
X1196411Y584300D02*
X1242411D01*
X1140531D02*
Y660300D01*
X1186531D01*
Y584300D02*
Y660300D01*
X1140531Y584300D02*
X1186531D01*
X900531Y619680D02*
X918531D01*
Y609680D02*
Y619680D01*
X900531Y609680D02*
X918531D01*
X900531D02*
Y619680D01*
Y643810D02*
X918531D01*
Y633810D02*
Y643810D01*
X900531Y633810D02*
X918531D01*
X900531D02*
Y643810D01*
X999321Y591630D02*
X1015321D01*
X999321D02*
Y599630D01*
X1015321D01*
Y591630D02*
Y599630D01*
D66*
X913419Y527668D02*
X914754Y529846D01*
X915844Y532156D01*
X916678Y534571D01*
X917244Y537062D01*
X917537Y539600D01*
X917553Y542154D01*
X917291Y544695D01*
X916755Y547193D01*
X915951Y549618D01*
X914888Y551941D01*
X913580Y554135D01*
X912041Y556174D01*
X910290Y558034D01*
X908348Y559693D01*
X906237Y561131D01*
X903982Y562332D01*
X901610Y563281D01*
X899149Y563967D01*
X896629Y564381D01*
X894078Y564520D01*
X891527Y564381D01*
X889007Y563966D01*
X886546Y563280D01*
X884175Y562330D01*
X881920Y561129D01*
X879809Y559691D01*
X877867Y558031D01*
X876116Y556171D01*
X874578Y554132D01*
X873270Y551937D01*
X872208Y549614D01*
X871404Y547189D01*
X870869Y544692D01*
X870607Y542150D01*
X870623Y539596D01*
X870916Y537058D01*
X871483Y534567D01*
X872317Y532153D01*
X873408Y529843D01*
X874743Y527665D01*
X965290Y392260D02*
X964620Y394760D01*
X962790Y396590D01*
X960290Y397260D01*
X957790Y396590D01*
X955960Y394760D01*
X955290Y392260D01*
X955960Y389760D01*
X957790Y387930D01*
X960290Y387260D01*
X962790Y387930D01*
X964620Y389760D01*
X965290Y392260D01*
X1001591Y707630D02*
X1015591D01*
X1001591Y737630D02*
X1015591D01*
Y707630D02*
Y737630D01*
X1001591Y707630D02*
Y737630D01*
X874743Y527670D02*
X913417D01*
X951290Y330260D02*
Y401260D01*
X1022290Y330260D02*
Y401260D01*
X951290D02*
X1022290D01*
X951290Y330260D02*
X1022290D01*
X967410Y270650D02*
Y288150D01*
X957910Y270650D02*
Y288150D01*
X967410D01*
X957910Y270650D02*
X967410D01*
X983521Y459880D02*
Y477380D01*
X993021Y459880D02*
Y477380D01*
X983521Y459880D02*
X993021D01*
X983521Y477380D02*
X993021D01*
X825830Y640220D02*
Y657720D01*
X835330Y640220D02*
Y657720D01*
X825830Y640220D02*
X835330D01*
X825830Y657720D02*
X835330D01*
X1079640Y651180D02*
X1097140D01*
X1079640Y641680D02*
X1097140D01*
X1079640D02*
Y651180D01*
X1097140Y641680D02*
Y651180D01*
X1096850Y686640D02*
X1201850D01*
X1096850Y791640D02*
X1201850D01*
Y686640D02*
Y791640D01*
X1096850Y686640D02*
Y791640D01*
X1315529Y464301D02*
X1323529D01*
X1315530Y448300D02*
X1323530D01*
X1315529Y448301D02*
Y464301D01*
X1323530Y448300D02*
Y464300D01*
X1073691Y611010D02*
X1083191D01*
X1073691Y628510D02*
X1083191D01*
X1073691Y611010D02*
Y628510D01*
X1083191Y611010D02*
Y628510D01*
X1060081Y611260D02*
Y628260D01*
X1051081Y611260D02*
Y628260D01*
X1060081D01*
X1051081Y611260D02*
X1060081D01*
M02*
