G04*
G04 #@! TF.GenerationSoftware,Altium Limited,Altium Designer,22.5.1 (42)*
G04*
G04 Layer_Color=8388736*
%FSLAX44Y44*%
%MOMM*%
G71*
G04*
G04 #@! TF.SameCoordinates,548A175F-BCEF-4031-9993-F39C1D0A8298*
G04*
G04*
G04 #@! TF.FilePolarity,Negative*
G04*
G01*
G75*
%ADD16R,1.3000X1.5500*%
%ADD17R,1.1062X1.2549*%
G04:AMPARAMS|DCode=22|XSize=0.9mm|YSize=0.8mm|CornerRadius=0mm|HoleSize=0mm|Usage=FLASHONLY|Rotation=225.000|XOffset=0mm|YOffset=0mm|HoleType=Round|Shape=Rectangle|*
%AMROTATEDRECTD22*
4,1,4,0.0354,0.6010,0.6010,0.0354,-0.0354,-0.6010,-0.6010,-0.0354,0.0354,0.6010,0.0*
%
%ADD22ROTATEDRECTD22*%

%ADD24R,1.2062X0.9562*%
%ADD25R,0.9562X1.2062*%
%ADD26R,0.9000X0.7500*%
%ADD28R,1.8741X0.5421*%
G04:AMPARAMS|DCode=29|XSize=1.8741mm|YSize=0.5421mm|CornerRadius=0.2711mm|HoleSize=0mm|Usage=FLASHONLY|Rotation=0.000|XOffset=0mm|YOffset=0mm|HoleType=Round|Shape=RoundedRectangle|*
%AMROUNDEDRECTD29*
21,1,1.8741,0.0000,0,0,0.0*
21,1,1.3319,0.5421,0,0,0.0*
1,1,0.5421,0.6660,0.0000*
1,1,0.5421,-0.6660,0.0000*
1,1,0.5421,-0.6660,0.0000*
1,1,0.5421,0.6660,0.0000*
%
%ADD29ROUNDEDRECTD29*%
%ADD30R,1.0621X1.1350*%
%ADD31R,1.0000X0.7500*%
%ADD33R,0.8000X0.9000*%
%ADD35R,0.8000X0.6000*%
%ADD36R,0.9121X1.0578*%
%ADD39R,2.3300X1.9900*%
%ADD40R,0.7500X0.9000*%
%ADD41R,1.2032X0.8032*%
%ADD42O,1.2032X0.4532*%
%ADD43O,0.4532X1.2032*%
%ADD44R,5.8032X5.8032*%
%ADD45R,1.0532X0.9532*%
%ADD46R,1.6032X1.0032*%
%ADD47R,2.0250X3.1000*%
%ADD48R,1.1032X1.2532*%
%ADD49R,2.6032X3.6032*%
%ADD50R,1.0032X0.8032*%
%ADD51R,1.2032X1.1032*%
%ADD52R,1.2532X1.1532*%
%ADD53R,1.4000X1.4000*%
%ADD54C,1.4000*%
%ADD55C,1.2532*%
%ADD56R,1.2532X1.2532*%
%ADD57R,1.5500X1.5500*%
%ADD58C,1.5500*%
%ADD59R,1.5500X1.5500*%
%ADD60C,0.8132*%
%ADD61C,0.7032*%
D16*
X760031Y628270D02*
D03*
Y707770D02*
D03*
X805031Y628270D02*
D03*
Y707770D02*
D03*
D17*
X1290320Y495933D02*
D03*
Y512447D02*
D03*
Y446404D02*
D03*
Y462916D02*
D03*
X1227031Y755016D02*
D03*
Y738503D02*
D03*
D22*
X891331Y370789D02*
D03*
X881431Y360889D02*
D03*
X889209Y353111D02*
D03*
X899109Y363011D02*
D03*
D24*
X830580Y686890D02*
D03*
Y707390D02*
D03*
X967951Y467650D02*
D03*
Y488150D02*
D03*
X941281Y467650D02*
D03*
Y488150D02*
D03*
X914611Y467650D02*
D03*
Y488150D02*
D03*
X887941Y467650D02*
D03*
Y488150D02*
D03*
X1042670Y293460D02*
D03*
Y272960D02*
D03*
X1014730Y293460D02*
D03*
Y272960D02*
D03*
D25*
X881290Y330200D02*
D03*
X901790D02*
D03*
X900520Y393700D02*
D03*
X880020D02*
D03*
X1017571Y595630D02*
D03*
X997071D02*
D03*
D26*
X986790Y288420D02*
D03*
Y272920D02*
D03*
X1098550Y625760D02*
D03*
Y613760D02*
D03*
D28*
X980350Y655320D02*
D03*
D29*
Y642620D02*
D03*
Y629920D02*
D03*
Y617220D02*
D03*
X1026672D02*
D03*
Y629920D02*
D03*
Y642620D02*
D03*
Y655320D02*
D03*
D30*
X1227031Y696696D02*
D03*
Y713004D02*
D03*
D31*
X934720Y599560D02*
D03*
Y614560D02*
D03*
D33*
Y636660D02*
D03*
Y653660D02*
D03*
D35*
X1319530Y498210D02*
D03*
Y512710D02*
D03*
D36*
X1042881Y715858D02*
D03*
Y729402D02*
D03*
X973031Y715436D02*
D03*
Y728980D02*
D03*
D39*
X1219411Y592200D02*
D03*
Y652400D02*
D03*
X1163531Y592200D02*
D03*
Y652400D02*
D03*
D40*
X901781Y614680D02*
D03*
X917281D02*
D03*
X901781Y638810D02*
D03*
X917281D02*
D03*
D41*
X1020591Y732130D02*
D03*
Y713130D02*
D03*
X996591D02*
D03*
Y722630D02*
D03*
Y732130D02*
D03*
D42*
X951790Y393260D02*
D03*
Y388260D02*
D03*
Y383260D02*
D03*
Y378260D02*
D03*
Y373260D02*
D03*
Y368260D02*
D03*
Y363260D02*
D03*
Y358260D02*
D03*
Y353260D02*
D03*
Y348260D02*
D03*
Y343260D02*
D03*
Y338260D02*
D03*
X1021790D02*
D03*
Y343260D02*
D03*
Y348260D02*
D03*
Y353260D02*
D03*
Y358260D02*
D03*
Y363260D02*
D03*
Y368260D02*
D03*
Y373260D02*
D03*
Y378260D02*
D03*
Y383260D02*
D03*
Y388260D02*
D03*
Y393260D02*
D03*
D43*
X959290Y330760D02*
D03*
X964290D02*
D03*
X969290D02*
D03*
X974290D02*
D03*
X979290D02*
D03*
X984290D02*
D03*
X989290D02*
D03*
X994290D02*
D03*
X999290D02*
D03*
X1004290D02*
D03*
X1009290D02*
D03*
X1014290D02*
D03*
Y400760D02*
D03*
X1009290D02*
D03*
X1004290D02*
D03*
X999290D02*
D03*
X994290D02*
D03*
X989290D02*
D03*
X984290D02*
D03*
X979290D02*
D03*
X974290D02*
D03*
X969290D02*
D03*
X964290D02*
D03*
X959290D02*
D03*
D44*
X986790Y365760D02*
D03*
D45*
X962660Y285900D02*
D03*
Y272900D02*
D03*
X988271Y462130D02*
D03*
Y475130D02*
D03*
X830580Y642470D02*
D03*
Y655470D02*
D03*
D46*
X1253490Y513560D02*
D03*
Y538960D02*
D03*
Y526260D02*
D03*
Y401320D02*
D03*
Y363460D02*
D03*
Y388860D02*
D03*
Y376160D02*
D03*
Y325360D02*
D03*
Y350760D02*
D03*
Y338060D02*
D03*
Y312660D02*
D03*
X1090930Y513560D02*
D03*
Y538960D02*
D03*
Y526260D02*
D03*
Y401320D02*
D03*
Y363460D02*
D03*
Y388860D02*
D03*
Y376160D02*
D03*
Y325360D02*
D03*
Y350760D02*
D03*
Y338060D02*
D03*
Y312660D02*
D03*
D47*
X1003511Y636270D02*
D03*
D48*
X1081140Y646430D02*
D03*
X1095640D02*
D03*
D49*
X1190350Y739140D02*
D03*
X1108350D02*
D03*
D50*
X1319530Y449050D02*
D03*
Y463550D02*
D03*
D51*
X1078441Y613010D02*
D03*
Y626510D02*
D03*
D52*
X1055581Y627010D02*
D03*
Y612510D02*
D03*
D53*
X802851Y384140D02*
D03*
X796290Y525310D02*
D03*
D54*
X802851Y409140D02*
D03*
Y434140D02*
D03*
Y459140D02*
D03*
X796290Y550310D02*
D03*
Y575310D02*
D03*
D55*
X906780Y541020D02*
D03*
X894080D02*
D03*
D56*
X881380D02*
D03*
D57*
X1285410Y634589D02*
D03*
D58*
Y609589D02*
D03*
X914200Y758360D02*
D03*
D59*
X889200D02*
D03*
D60*
X1163320Y610870D02*
D03*
X946150Y280670D02*
D03*
X881380Y504190D02*
D03*
X1044930Y393420D02*
D03*
X1105890Y401040D02*
D03*
X1269720D02*
D03*
X1331950Y449300D02*
D03*
Y497560D02*
D03*
X1268450Y514070D02*
D03*
X792200Y628370D02*
D03*
X805011Y723517D02*
D03*
X867130Y348970D02*
D03*
X907770Y365480D02*
D03*
X1304290Y504190D02*
D03*
X1001214Y578960D02*
D03*
X1088390Y735330D02*
D03*
X1088978Y603614D02*
D03*
X1055958Y607424D02*
D03*
X967058Y617584D02*
D03*
X1007698Y646794D02*
D03*
X1062609Y726844D02*
D03*
X831168Y630284D02*
D03*
X842938Y516784D02*
D03*
X956310Y300990D02*
D03*
X926418Y333104D02*
D03*
X924560Y360680D02*
D03*
X918210Y351790D02*
D03*
X937260Y360680D02*
D03*
X963248Y311514D02*
D03*
X1014048Y312784D02*
D03*
X946738Y408034D02*
D03*
X965788Y447404D02*
D03*
X1025478Y414384D02*
D03*
X1006428Y419464D02*
D03*
X946738D02*
D03*
X1007110Y433070D02*
D03*
X947420D02*
D03*
X1043940Y356870D02*
D03*
X1050290Y364490D02*
D03*
X1046480Y373380D02*
D03*
X1074420Y350520D02*
D03*
Y363220D02*
D03*
Y337820D02*
D03*
X1046480Y347980D02*
D03*
X955040Y631190D02*
D03*
X1043940Y640080D02*
D03*
X993140Y662940D02*
D03*
X1005840Y608330D02*
D03*
X958850Y715010D02*
D03*
D61*
X964790Y387760D02*
D03*
X975790D02*
D03*
X986790D02*
D03*
X997790D02*
D03*
X1008790D02*
D03*
X964790Y376760D02*
D03*
X975790D02*
D03*
X986790D02*
D03*
X997790D02*
D03*
X1008790D02*
D03*
X964790Y365760D02*
D03*
X975790D02*
D03*
X986790D02*
D03*
X997790D02*
D03*
X1008790D02*
D03*
X964790Y354760D02*
D03*
X975790D02*
D03*
X986790D02*
D03*
X997790D02*
D03*
X1008790D02*
D03*
X964790Y343760D02*
D03*
X975790D02*
D03*
X986790D02*
D03*
X997790D02*
D03*
X1008790D02*
D03*
M02*
