%FSTAX23Y23*%
%MOIN*%
%SFA1B1*%

%IPPOS*%
%ADD53R,0.055118X0.055118*%
%ADD54C,0.055118*%
%ADD55C,0.049338*%
%ADD56R,0.049338X0.049338*%
%ADD57R,0.061024X0.061024*%
%ADD58C,0.061024*%
%ADD59R,0.061024X0.061024*%
%ADD60C,0.032016*%
%ADD61C,0.027685*%
%LNswimmingpool-1*%
%LPD*%
G54D53*
X0316Y01512D03*
X03135Y02068D03*
G54D54*
X0316Y0161D03*
Y01709D03*
Y01807D03*
X03135Y02166D03*
Y02265D03*
G54D55*
X0357Y0213D03*
X0352D03*
G54D56*
X0347Y0213D03*
G54D57*
X0506Y02498D03*
G54D58*
X0506Y02399D03*
X03599Y02985D03*
G54D59*
X035Y02985D03*
G54D60*
X0458Y02405D03*
X03725Y01105D03*
X0347Y01985D03*
X04113Y01548D03*
X04353Y01578D03*
X04998D03*
X05243Y01768D03*
Y01958D03*
X04993Y02023D03*
X03118Y02473D03*
X03169Y02848D03*
X03413Y01373D03*
X03573Y01438D03*
X05135Y01985D03*
X03941Y02279D03*
X04285Y02895D03*
X04287Y02376D03*
X04157Y02391D03*
X03807Y02431D03*
X03967Y02546D03*
X04183Y02861D03*
X03272Y02481D03*
X03318Y02034D03*
X03765Y01185D03*
X03647Y01311D03*
X0364Y0142D03*
X03615Y01385D03*
X0369Y0142D03*
X03792Y01226D03*
X03992Y01231D03*
X03727Y01606D03*
X03802Y01761D03*
X04037Y01631D03*
X03962Y01651D03*
X03727D03*
X03965Y01705D03*
X0373D03*
X0411Y01405D03*
X04135Y01435D03*
X0412Y0147D03*
X0423Y0138D03*
Y0143D03*
Y0133D03*
X0412Y0137D03*
X0376Y02485D03*
X0411Y0252D03*
X0391Y0261D03*
X0396Y02395D03*
X03775Y02815D03*
G54D61*
X03798Y01526D03*
X03841D03*
X03885D03*
X03928D03*
X03971D03*
X03798Y01483D03*
X03841D03*
X03885D03*
X03928D03*
X03971D03*
X03798Y0144D03*
X03841D03*
X03885D03*
X03928D03*
X03971D03*
X03798Y01396D03*
X03841D03*
X03885D03*
X03928D03*
X03971D03*
X03798Y01353D03*
X03841D03*
X03885D03*
X03928D03*
X03971D03*
M02*