%FSTAX23Y23*%
%MOIN*%
%SFA1B1*%

%IPPOS*%
%AMD22*
4,1,4,-0.001400,-0.023600,0.023600,0.001400,0.001400,0.023600,-0.023600,-0.001400,-0.001400,-0.023600,0.0*
%
%AMD29*
4,1,8,0.026200,0.010700,-0.026200,0.010700,-0.036900,0.000000,-0.036900,0.000000,-0.026200,-0.010700,0.026200,-0.010700,0.036900,0.000000,0.036900,0.000000,0.026200,0.010700,0.0*
1,1,0.021346,0.026200,0.000000*
1,1,0.021346,-0.026200,0.000000*
1,1,0.021346,-0.026200,0.000000*
1,1,0.021346,0.026200,0.000000*
%
%ADD13C,0.010000*%
%ADD16R,0.051181X0.061024*%
%ADD17R,0.043551X0.049405*%
%ADD18R,0.039370X0.023622*%
%ADD19O,0.039370X0.009843*%
%ADD20O,0.009843X0.039370*%
%ADD21R,0.220472X0.220472*%
G04~CAMADD=22~9~0.0~0.0~354.3~315.0~0.0~0.0~0~0.0~0.0~0.0~0.0~0~0.0~0.0~0.0~0.0~0~0.0~0.0~0.0~225.0~472.0~471.0*
%ADD22D22*%
%ADD23R,0.033465X0.029527*%
%ADD24R,0.047488X0.037646*%
%ADD25R,0.037646X0.047488*%
%ADD26R,0.035433X0.029527*%
%ADD27R,0.055118X0.031496*%
%ADD28R,0.073783X0.021342*%
G04~CAMADD=29~8~0.0~0.0~737.8~213.4~106.7~0.0~15~0.0~0.0~0.0~0.0~0~0.0~0.0~0.0~0.0~0~0.0~0.0~0.0~0.0~737.8~213.4*
%ADD29D29*%
%ADD30R,0.041815X0.044685*%
%ADD31R,0.039370X0.029527*%
%ADD32R,0.035433X0.041339*%
%ADD33R,0.031496X0.035433*%
%ADD34R,0.094488X0.133858*%
%ADD35R,0.031496X0.023622*%
%ADD36R,0.035909X0.041646*%
%ADD37R,0.039370X0.035433*%
%ADD38R,0.041339X0.037401*%
%ADD39R,0.091732X0.078346*%
%ADD40R,0.029527X0.035433*%
%ADD47R,0.079724X0.122047*%
%ADD53R,0.055118X0.055118*%
%ADD54C,0.055118*%
%ADD57R,0.061024X0.061024*%
%ADD58C,0.061024*%
%ADD59R,0.061024X0.061024*%
%ADD62C,0.041339*%
%ADD63R,0.041339X0.041339*%
%ADD64C,0.024016*%
%ADD65C,0.019685*%
%LNswimmingpool-1*%
%LPD*%
G36*
X0512Y03295D02*
X05145D01*
X0515Y0329*
X05165*
X05175Y0328*
X0519*
X05205Y03265*
X05215*
X05235Y03245*
X0524*
X0527Y03215*
Y03205*
X05285Y0319*
Y0318*
X05295Y0317*
Y0316*
X05305Y0315*
Y0313*
X0531Y03125*
Y03085*
X05315Y0308*
X0531Y03075*
Y01*
X05305Y00995*
Y0097*
X053Y00965*
Y0095*
X0529Y0094*
Y0093*
X0528Y0092*
Y00915*
X05275*
X05265Y00905*
Y00895*
X0525Y0088*
X05245*
X0522Y00855*
X05215*
X052Y0084*
X0518*
X0517Y0083*
X0516*
X05155Y00825*
X05135*
X0513Y0082*
X03*
X0299Y0083*
X02965*
X02955Y0084*
X02945*
X02925Y0086*
X0292*
X02885Y00895*
X0288*
Y009*
X0286Y0092*
Y00935*
X02845Y0095*
Y00965*
X02835Y00975*
Y0101*
X0283Y01015*
Y03105*
X02835Y0311*
Y03135*
X02845Y03145*
Y0316*
X0285Y03165*
Y03175*
X0286Y03185*
Y03195*
X0287Y03205*
Y0321*
X02915Y03255*
X02925*
X02935Y03265*
Y0327*
X0294*
X0295Y0328*
X0297*
X0298Y0329*
X02995*
X03Y03295*
X0302*
X03025Y033*
X05115*
X0512Y03295*
G37*
%LNswimmingpool-2*%
%LPC*%
G36*
X05102Y03206D02*
X05087D01*
X05086Y03206*
X05086Y03206*
X05071Y03204*
X0507Y03204*
X0507Y03204*
X05055Y032*
X05054Y032*
X05054*
X0504Y03194*
X05039Y03194*
X05039Y03194*
X05026Y03186*
X05025Y03185*
X05025Y03185*
X05013Y03176*
X05012Y03175*
X05012Y03175*
X05001Y03164*
X05001Y03164*
X05Y03164*
X04991Y03151*
X04991Y03151*
X0499Y03151*
X04983Y03137*
X04983Y03137*
X04982Y03137*
X04976Y03122*
Y03122*
X04976Y03121*
X04972Y03107*
X04972Y03106*
X04972Y03106*
X0497Y0309*
X0497Y0309*
X0497Y03089*
Y03074*
X0497Y03074*
X0497Y03073*
X04972Y03058*
X04972Y03057*
X04972Y03057*
X04976Y03042*
X04976Y03042*
Y03041*
X04982Y03027*
X04983Y03027*
X04983Y03026*
X0499Y03013*
X04991Y03012*
X04991Y03012*
X05Y03*
X05001Y03*
X05001Y02999*
X05012Y02988*
X05012Y02988*
X05013Y02988*
X05025Y02978*
X05025Y02978*
X05026Y02978*
X05039Y0297*
X05039Y0297*
X0504Y0297*
X05054Y02964*
X05054*
X05055Y02963*
X0507Y02959*
X0507Y02959*
X05071Y02959*
X05086Y02957*
X05086Y02957*
X05087Y02957*
X05102*
X05103Y02957*
X05103Y02957*
X05118Y02959*
X05119Y02959*
X05119Y02959*
X05134Y02963*
X05135Y02964*
X05135*
X05149Y0297*
X0515Y0297*
X0515Y0297*
X05163Y02978*
X05164Y02978*
X05164Y02978*
X05176Y02988*
X05177Y02988*
X05177Y02988*
X05188Y02999*
X05188Y03*
X05189Y03*
X05198Y03012*
X05198Y03012*
X05199Y03013*
X05206Y03026*
X05206Y03027*
X05207Y03027*
X05213Y03041*
Y03042*
X05213Y03042*
X05217Y03057*
X05217Y03057*
X05217Y03058*
X05219Y03073*
X05219Y03074*
X05219Y03074*
Y03089*
X05219Y0309*
X05219Y0309*
X05217Y03106*
X05217Y03106*
X05217Y03107*
X05213Y03121*
X05213Y03122*
Y03122*
X05207Y03137*
X05206Y03137*
X05206Y03137*
X05199Y03151*
X05198Y03151*
X05198Y03151*
X05189Y03164*
X05188Y03164*
X05188Y03164*
X05177Y03175*
X05177Y03175*
X05176Y03176*
X05164Y03185*
X05164Y03185*
X05163Y03186*
X0515Y03194*
X0515Y03194*
X05149Y03194*
X05135Y032*
X05135*
X05134Y032*
X05119Y03204*
X05119Y03204*
X05118Y03204*
X05103Y03206*
X05103Y03206*
X05102Y03206*
G37*
G36*
X03055D02*
X0304D01*
X03039Y03206*
X03039Y03206*
X03023Y03204*
X03023Y03204*
X03022Y03204*
X03008Y032*
X03007Y032*
X03007*
X02992Y03194*
X02992Y03194*
X02992Y03194*
X02978Y03186*
X02978Y03185*
X02978Y03185*
X02965Y03176*
X02965Y03175*
X02965Y03175*
X02954Y03164*
X02954Y03164*
X02953Y03164*
X02944Y03151*
X02944Y03151*
X02943Y03151*
X02935Y03137*
X02935Y03137*
X02935Y03137*
X02929Y03122*
Y03122*
X02929Y03121*
X02925Y03107*
X02925Y03106*
X02925Y03106*
X02923Y0309*
X02923Y0309*
X02923Y03089*
Y03074*
X02923Y03074*
X02923Y03073*
X02925Y03058*
X02925Y03057*
X02925Y03057*
X02929Y03042*
X02929Y03042*
Y03041*
X02935Y03027*
X02935Y03027*
X02935Y03026*
X02943Y03013*
X02944Y03012*
X02944Y03012*
X02953Y03*
X02954Y03*
X02954Y02999*
X02965Y02988*
X02965Y02988*
X02965Y02988*
X02978Y02978*
X02978Y02978*
X02978Y02978*
X02992Y0297*
X02992Y0297*
X02992Y0297*
X03007Y02964*
X03007*
X03008Y02963*
X03022Y02959*
X03023Y02959*
X03023Y02959*
X03039Y02957*
X03039Y02957*
X0304Y02957*
X03055*
X03055Y02957*
X03056Y02957*
X03071Y02959*
X03072Y02959*
X03072Y02959*
X03087Y02963*
X03087Y02964*
X03088*
X03102Y0297*
X03102Y0297*
X03103Y0297*
X03116Y02978*
X03117Y02978*
X03117Y02978*
X03129Y02988*
X03129Y02988*
X0313Y02988*
X03141Y02999*
X03141Y03*
X03141Y03*
X03151Y03012*
X03151Y03012*
X03151Y03013*
X03159Y03026*
X03159Y03027*
X03159Y03027*
X03165Y03041*
Y03042*
X03166Y03042*
X0317Y03057*
X0317Y03057*
X0317Y03058*
X03172Y03073*
X03172Y03074*
X03172Y03074*
Y03089*
X03172Y0309*
X03172Y0309*
X0317Y03106*
X0317Y03106*
X0317Y03107*
X03166Y03121*
X03165Y03122*
Y03122*
X03159Y03137*
X03159Y03137*
X03159Y03137*
X03151Y03151*
X03151Y03151*
X03151Y03151*
X03141Y03164*
X03141Y03164*
X03141Y03164*
X0313Y03175*
X03129Y03175*
X03129Y03176*
X03117Y03185*
X03117Y03185*
X03116Y03186*
X03103Y03194*
X03102Y03194*
X03102Y03194*
X03088Y032*
X03087*
X03087Y032*
X03072Y03204*
X03072Y03204*
X03071Y03204*
X03056Y03206*
X03055Y03206*
X03055Y03206*
G37*
G36*
X03541Y03026D02*
X03505D01*
Y0299*
X03541*
Y03026*
G37*
G36*
Y0298D02*
X03505D01*
Y02945*
X03541*
Y0298*
G37*
G36*
X03495Y03026D02*
X0346D01*
Y02996*
X03215*
X03211Y02996*
X03207Y02993*
X03161Y02947*
X03158Y02943*
X03158Y02939*
Y02867*
X03156Y02867*
X0315Y0286*
X03147Y02853*
X03191*
X03187Y0286*
X03181Y02867*
X0318Y02867*
Y02934*
X0322Y02974*
X0346*
Y02945*
X03495*
Y02985*
Y03026*
G37*
G36*
X04416Y02982D02*
X0431D01*
Y02906*
X04299*
X04295Y0291*
X04288Y02912*
X04281*
X04274Y0291*
X04269Y02905*
X04267Y02898*
Y02891*
X04269Y02884*
X04274Y02879*
X04281Y02877*
X04288*
X04295Y02879*
X04299Y02883*
X0431*
Y02837*
X04416*
Y02982*
G37*
G36*
X03303Y02813D02*
X03275D01*
Y0279*
X03303*
Y02813*
G37*
G36*
X04043Y02825D02*
X03992D01*
Y02789*
X04043*
Y02825*
G37*
G36*
X04133Y02813D02*
X0411D01*
Y02787*
X04133*
Y02813*
G37*
G36*
X03303Y0278D02*
X03275D01*
Y02756*
X03303*
Y0278*
G37*
G36*
X03191Y02843D02*
X03147D01*
X0315Y02836*
X03154Y02832*
X03152Y02827*
X03133*
Y02791*
X03169*
Y02786*
X03174*
Y02745*
X03205*
Y02775*
X03236*
Y02756*
X03265*
Y02785*
Y02813*
X03236*
Y02797*
X03205*
Y02827*
X03186*
X03183Y02832*
X03187Y02836*
X03191Y02843*
G37*
G36*
X03164Y02781D02*
X03133D01*
Y02745*
X03164*
Y02781*
G37*
G36*
X03636Y02542D02*
X03616D01*
Y0252*
X03636*
Y02542*
G37*
G36*
X03606D02*
X03586D01*
Y0252*
X03606*
Y02542*
G37*
G36*
X03604Y03022D02*
X03594D01*
X03585Y03019*
X03576Y03014*
X0357Y03008*
X03565Y02999*
X03562Y0299*
Y0298*
X03565Y02971*
X0357Y02963*
X03576Y02956*
X03585Y02951*
X03588Y0295*
Y0272*
X03588Y02716*
X03591Y02712*
X03667Y02636*
Y02597*
X03658*
Y02586*
X0356*
X03555Y02585*
X03552Y02582*
X03542Y02573*
X03539Y02569*
X03539Y02565*
Y02538*
X03529*
Y02491*
X03539*
Y02443*
X03529*
Y02396*
X03571*
Y02443*
X03561*
Y02491*
X03571*
Y02538*
X03561*
Y0256*
X03564Y02563*
X03658*
Y02549*
X03701*
Y02562*
X03731*
X03772Y02522*
X03775Y02519*
X0378Y02518*
X0382*
X03821Y02517*
X03826Y02514*
X03833Y02513*
X03885*
X03892Y02514*
X03895Y02516*
X039Y02514*
Y0251*
X03945*
Y02576*
X03902*
Y02589*
X03906Y02592*
X03913*
X0392Y02594*
X03925Y02599*
X03927Y02606*
Y02613*
X03925Y0262*
X0392Y02625*
X03913Y02627*
X03906*
X03899Y02625*
X03895Y02621*
X03865*
X03861Y0262*
X03857Y02617*
X03851Y02612*
X03849Y02608*
X03848Y02604*
Y02596*
X03816*
Y02563*
X039*
Y02545*
X03895Y02543*
X03892Y02545*
X03885Y02546*
X03833*
X03826Y02545*
X03821Y02542*
X0382Y02541*
X03784*
X03744Y02581*
X0374Y02583*
X03736Y02584*
X03701*
Y02597*
X03689*
Y02641*
X03688Y02645*
X03686Y02649*
X0361Y02725*
Y0295*
X03613Y02951*
X03621Y02956*
X03628Y02963*
X03633Y02971*
X03635Y0298*
Y0299*
X03633Y02999*
X03628Y03008*
X03621Y03014*
X03613Y03019*
X03604Y03022*
G37*
G36*
X03164Y02514D02*
X03133D01*
Y02496*
X03128Y02493*
X03123Y02495*
Y02473*
Y02452*
X03128Y02454*
X03133Y02451*
Y02432*
X03164*
Y02473*
Y02514*
G37*
G36*
X03945Y025D02*
X039D01*
Y02495*
X03895Y02493*
X03892Y02495*
X03885Y02496*
X03833*
X03826Y02495*
X03821Y02492*
X0382Y02491*
X03805*
X038Y0249*
X03797Y02487*
X03762Y02452*
X03759Y02449*
X03758Y02445*
Y02365*
X03759Y0236*
X03762Y02357*
X03782Y02337*
X03785Y02334*
X0379Y02333*
X039*
Y02315*
X03913*
Y02295*
X03914Y0229*
X03917Y02287*
X03923Y0228*
Y02275*
X03926Y02269*
X03931Y02264*
X03938Y02261*
X03945*
X03951Y02264*
X03957Y02269*
X03959Y02275*
Y02282*
X03957Y02289*
X03951Y02294*
X03945Y02297*
X03938*
X03936Y02299*
Y02315*
X0395*
Y0237*
Y02374*
X03953Y02378*
X03956Y02377*
X03963*
X0397Y02379*
X03974Y02383*
X03985*
X03989Y02379*
X03987Y02374*
X03981*
Y02315*
X0403*
Y02374*
X04017*
Y02378*
X04016Y02383*
X04014Y02386*
X03997Y02402*
X03994Y02405*
X0399Y02406*
X03974*
X0397Y0241*
X03963Y02412*
X03956*
X03949Y0241*
X03944Y02405*
X03942Y02398*
Y02391*
X03944Y02384*
X03949Y0238*
X03949Y02379*
X03949Y02379*
X03948Y02374*
X03945*
X03945*
X039*
Y02356*
X03794*
X03781Y02369*
Y02423*
X03786Y02424*
X03788Y02418*
X03794Y02412*
X03802Y02409*
Y02431*
X03812*
Y02409*
X03819Y02412*
X0382Y02413*
X03825Y0241*
X03833Y02408*
X03854*
Y0243*
X03864*
Y02408*
X03885*
X03893Y0241*
X039Y02415*
X03905Y02421*
X03906Y0243*
X03906Y0243*
X0391Y02433*
X03945*
Y025*
G37*
G36*
X03113Y02495D02*
X03106Y02492D01*
X031Y02486*
X03097Y02478*
X03113*
Y02495*
G37*
G36*
X03205Y02514D02*
X03174D01*
Y02478*
X03205*
Y02514*
G37*
G36*
X03701Y0253D02*
X03658D01*
Y02482*
X03668*
Y0244*
X03654*
Y02398*
X03705*
Y0244*
X03691*
Y02482*
X03701*
Y02495*
X03733*
X03742Y02487*
Y02481*
X03744Y02474*
X03749Y02469*
X03756Y02467*
X03763*
X0377Y02469*
X03775Y02474*
X03777Y02481*
Y02488*
X03775Y02495*
X0377Y025*
X03763Y02502*
X03757*
X03746Y02514*
X03742Y02516*
X03738Y02517*
X03701*
Y0253*
G37*
G36*
X03113Y02468D02*
X03097D01*
X031Y02461*
X03106Y02455*
X03113Y02452*
Y02468*
G37*
G36*
X03292Y0255D02*
X03247D01*
Y02508*
X03258*
Y02493*
X03257Y02491*
X03254Y02485*
Y02484*
X03252Y02483*
X03209Y0244*
X03205Y02442*
Y02468*
X03174*
Y02432*
X03195*
X03197Y02428*
X03088Y02319*
X03086Y02315*
X03085Y02311*
Y02249*
X03086Y02244*
X03088Y02241*
X03123Y02205*
Y02198*
X03122Y02197*
X03114Y02193*
X03108Y02187*
X03103Y02179*
X03103Y02177*
X03086*
X03082Y02176*
X03078Y02174*
X03067Y02162*
X03064Y02159*
X03063Y02155*
Y0187*
Y0152*
X03064Y01515*
X03067Y01512*
X03074Y01504*
X03078Y01502*
X03082Y01501*
X03127*
Y01478*
X03194*
Y01545*
X03127*
Y01523*
X03087*
X03086Y01524*
Y01865*
X03089Y01868*
X03365*
X03407Y01827*
X0341Y01824*
X03415Y01823*
X03466*
Y01816*
X03525*
Y01829*
X03571*
Y01816*
X0363*
Y01829*
X03676*
Y01816*
X03735*
Y01829*
X03781*
Y01816*
X03793*
Y01777*
X03792Y01776*
X03787Y01771*
X03784Y01765*
Y01757*
X03785Y01755*
X03768Y01739*
X03766Y01736*
X03765Y01731*
Y01617*
X03741*
X03737Y01621*
X0373Y01624*
X03723*
X03717Y01621*
X03712Y01616*
X03709Y0161*
Y01602*
X03712Y01596*
X03717Y01591*
X03723Y01588*
X0373*
X03737Y01591*
X03741Y01595*
X03765*
Y01581*
X0376*
X03756Y0158*
X03752Y01577*
X03747Y01572*
X03744Y01568*
X03743Y01564*
Y01559*
X03732*
X03728Y01558*
X03724Y01556*
X03722Y01552*
X03721Y01548*
X03722Y01544*
X03723Y01541*
X03724Y01538*
X03723Y01535*
X03722Y01532*
X03721Y01528*
X03722Y01524*
X03723Y01522*
X03724Y01518*
X03723Y01515*
X03722Y01513*
X03721Y01508*
X03722Y01504*
X03723Y01502*
X03724Y01499*
X03723Y01495*
X03722Y01493*
X03721Y01489*
X03722Y01485*
X0372Y01483*
X03718Y0148*
X03576*
X03556Y015*
Y0152*
X0357*
Y01579*
X0352*
Y0152*
X03534*
Y015*
X03518Y01484*
X0351Y01491*
X03477Y01458*
X03472Y01458*
X03471Y01458*
X03459Y01446*
X03456Y0145*
Y0148*
X03458Y01482*
X03461Y01486*
X03462Y0149*
Y01516*
X03493*
Y01545*
X03464*
X03435*
Y01516*
X03439*
Y01495*
X03437Y01492*
X03434Y01489*
X03433Y01485*
Y01446*
X03434Y01441*
X03437Y01438*
X03444Y01431*
X03432Y01419*
X03442Y01409*
X03437Y01403*
X03434Y01399*
X03433Y01395*
Y01392*
X03428Y0139*
X03426Y01392*
X03418Y01395*
Y01373*
Y01352*
X03426Y01355*
X03428Y01357*
X03433Y01355*
Y0135*
X03434Y01345*
X03437Y01342*
X0344Y01338*
X0344Y01333*
Y01305*
X03498*
Y01333*
X03467*
Y01339*
X03466Y01343*
X03463Y01347*
X03456Y01354*
Y01388*
X03461Y0139*
X03468Y01383*
X03471Y01385*
X03499Y01358*
X03508Y01366*
X03527Y01347*
X03539Y01336*
Y01329*
X03525*
Y0127*
X03575*
Y01329*
X03561*
Y0134*
X0356Y01344*
X03558Y01348*
X03551Y01355*
X03617Y01421*
X03622Y01419*
Y01416*
X03624Y01409*
X03629Y01404*
X03636Y01402*
X03642*
X03656Y01387*
X03654Y01382*
X03637*
X03632Y01386*
Y01388*
X0363Y01395*
X03625Y014*
X03618Y01402*
X03611*
X03604Y014*
X03599Y01395*
X03597Y01388*
Y01381*
X03599Y01374*
X03604Y01369*
X03611Y01367*
X03618*
X0362Y01367*
X03624Y01363*
X03628Y0136*
X03632Y01359*
X03718*
X0372Y01357*
X03722Y01354*
X03721Y01351*
X03722Y01347*
X03723Y01344*
X03724Y01341*
X03723Y01338*
X03722Y01335*
X03721Y01331*
X03722Y01327*
X03724Y01323*
X03728Y01321*
X03732Y0132*
X03761*
X03763Y01319*
X03764Y01318*
X03765Y01316*
Y01287*
X03766Y01283*
X03768Y01279*
X03772Y01277*
X03776Y01276*
X0378Y01277*
X03784Y01279*
X03788*
X03792Y01277*
X03796Y01276*
X038Y01277*
X03804Y01279*
X03808*
X03811Y01277*
X03816Y01276*
X0382Y01277*
X03823Y01279*
X03827*
X03831Y01277*
X03835Y01276*
X0384Y01277*
X03843Y01279*
X03847*
X03851Y01277*
X03855Y01276*
X03859Y01277*
X03863Y01279*
X03867*
X0387Y01277*
X03875Y01276*
X03879Y01277*
X03883Y01279*
X03886*
X0389Y01277*
X03894Y01276*
X03898Y01277*
X039Y01275*
X03903Y01273*
Y01239*
X0381Y01146*
X03767*
Y01104*
X03812*
Y01122*
X03814*
X03818Y01123*
X03822Y01126*
X03922Y01226*
X03924Y0123*
X03925Y01234*
Y01273*
X03928Y01275*
X0393Y01277*
X03934Y01276*
X03937Y01277*
X0394Y01275*
X03942Y01273*
Y01209*
X03889Y01156*
X03861*
Y01114*
X03908*
Y01143*
X03961Y01196*
X03964Y012*
X03965Y01204*
Y01269*
X03968Y01271*
Y01302*
X03978*
Y01273*
X03978Y01273*
X0398Y01272*
X03983Y01271*
Y01247*
X03982Y01246*
X03977Y01241*
X03974Y01235*
Y01227*
X03977Y01221*
X03982Y01216*
X03983Y01215*
Y0118*
X03965*
Y0113*
X04024*
Y01144*
X04075*
Y0113*
X04134*
Y0118*
X04075*
Y01166*
X04024*
Y0118*
X04006*
Y01219*
X04007Y01221*
X0401Y01227*
Y01235*
X04007Y01241*
X04006Y01242*
Y01269*
X04257*
X04261Y01266*
Y01259*
X04257Y01256*
X04257*
Y01235*
X04332*
Y01256*
X04332*
X04328Y01259*
Y01261*
Y01269*
X0452*
X04525Y0127*
X04528Y01273*
X04537Y01282*
X0454Y01285*
X04541Y0129*
Y0174*
X04547Y01746*
X05052*
Y01726*
X05107*
Y01786*
Y01788*
Y01791*
Y01793*
Y01813*
X05173*
Y01807*
X05216*
Y01842*
X05173*
Y01836*
X05107*
Y01853*
X05052*
Y01793*
Y01791*
Y01788*
Y01786*
Y01768*
X04542*
X04538Y01767*
X04534Y01765*
X04522Y01752*
X04519Y01749*
X04518Y01745*
Y01294*
X04516Y01292*
X04328*
Y01302*
X04261*
Y01292*
X04004*
X04004Y01292*
Y01302*
X04004Y01302*
Y01316*
X04005Y01318*
X04006Y01319*
X04008Y0132*
X04037*
X04041Y01321*
X04045Y01323*
X04047Y01327*
X04048Y01331*
X04047Y01335*
X04049Y01337*
X04051Y0134*
X04063*
X04102Y01302*
X04105Y01299*
X0411Y01298*
X0417*
X04174Y01299*
X04177Y01302*
X04197Y01322*
X042Y01325*
X04201Y0133*
Y01435*
X04235Y01469*
X04261*
Y01459*
X04328*
Y01502*
X04261*
Y01492*
X0423*
X04226Y01491*
X04223Y01488*
X04186Y01452*
X04181Y01454*
Y0146*
X0424Y01519*
X04261*
Y01509*
X04328*
Y01551*
X04332Y01554*
Y01555*
Y01562*
X04337Y01564*
X04341Y0156*
X04348Y01557*
Y01578*
Y016*
X04341Y01597*
X04337Y01593*
X04332Y01595*
Y01605*
X043*
Y0158*
X04295*
Y01575*
X04257*
Y01555*
Y01554*
X04261Y01551*
Y01549*
Y01542*
X04235*
X04231Y01541*
X04228Y01538*
X04162Y01472*
X04159Y01469*
X04158Y01465*
Y01344*
X04155Y01341*
X04124*
X04118Y01347*
X0412Y01352*
X04123*
X0413Y01354*
X04135Y01359*
X04137Y01366*
Y01373*
X04135Y0138*
X0413Y01385*
X04124Y01387*
X04123Y01391*
X04123Y01392*
X04125Y01394*
X04127Y01401*
Y01408*
X04125Y01413*
X04128Y01417*
X04129Y01417*
X04131Y01417*
X04138*
X04145Y01419*
X0415Y01424*
X04152Y01431*
Y01438*
X0415Y01445*
X04145Y0145*
X04138Y01452*
X04135*
X04133Y01457*
X04135Y01459*
X04137Y01466*
Y01473*
X04135Y0148*
X0413Y01485*
X04123Y01487*
X04116*
X04109Y01485*
X04104Y0148*
X04102Y01473*
Y01472*
X0409Y01461*
X04051*
X04049Y01463*
X04047Y01466*
X04048Y01469*
X04047Y01473*
X04046Y01475*
X04045Y01479*
X04046Y01482*
X04047Y01484*
X04048Y01489*
X04047Y01492*
X04049Y01495*
X04051Y01497*
X04133*
X04138Y01498*
X04141Y015*
X04152Y01512*
X04155Y01515*
X04156Y0152*
Y01665*
X04155Y01669*
X04152Y01672*
X04112Y01712*
X04109Y01715*
X04105Y01716*
X03979*
X03975Y0172*
X03968Y01722*
X03961*
X03954Y0172*
X03949Y01715*
X03947Y01708*
Y01701*
X03949Y01694*
X03954Y01689*
X03961Y01687*
X03968*
X03975Y01689*
X03979Y01693*
X041*
X04133Y0166*
Y01567*
X04128Y01565*
X04126Y01567*
X04118Y0157*
Y01548*
X04108*
Y0157*
X04101Y01567*
X04095Y01561*
X04091Y01553*
Y01546*
X04091Y01546*
X0409*
X04085Y01545*
X04082Y01542*
X04078Y01539*
X04051*
X04049Y01542*
X04047Y01544*
X04048Y01548*
X04048Y01549*
Y01617*
X04052Y01621*
X04055Y01627*
Y01635*
X04052Y01641*
X04047Y01646*
X0404Y01649*
X04033*
X04027Y01646*
X04022Y01641*
X04019Y01635*
Y01627*
X04022Y01621*
X04026Y01617*
Y01559*
X04022*
X04022Y01559*
X04008*
X04006Y0156*
X04005Y01561*
X04004Y01563*
Y01577*
X04004Y01577*
Y01641*
X04003Y01646*
X04001Y01649*
X03994Y01656*
X0399Y01659*
X03986Y01659*
X03978*
X03977Y01661*
X03972Y01666*
X03965Y01669*
X03958*
X03952Y01666*
X03947Y01661*
X03944Y01655*
Y01647*
X03947Y01641*
X03952Y01636*
X03958Y01633*
X03965*
X03972Y01636*
X03973Y01637*
X03981*
X03982Y01637*
Y01606*
X03979Y01604*
X03977Y01602*
X03973Y01603*
X03969Y01602*
X03965Y016*
X03961*
X03958Y01602*
X03953Y01603*
X03949Y01602*
X03946Y016*
X03942*
X03938Y01602*
X03934Y01603*
X03929Y01602*
X03926Y016*
X03922*
X03918Y01602*
X03914Y01603*
X0391Y01602*
X03906Y016*
X03902*
X03899Y01602*
X03894Y01603*
X0389Y01602*
X03886Y016*
X03883*
X03879Y01602*
X03875Y01603*
X03871Y01602*
X03869Y01604*
X03866Y01606*
Y0164*
X03866Y01643*
Y01685*
X03898Y01717*
X03901Y01721*
X03902Y01725*
Y01798*
X03913*
Y0184*
X03868*
Y01798*
X03879*
Y0173*
X03847Y01697*
X03844Y01694*
X03843Y0169*
Y01641*
X03844Y01639*
Y01606*
X03841Y01604*
X03839Y01602*
X03835Y01603*
X03831Y01602*
X03827Y016*
X03823*
X0382Y01602*
X03816Y01603*
X03811Y01602*
X03808Y016*
X03807Y01603*
X03802Y01606*
X03801Y01606*
Y01577*
X03791*
Y01608*
X03788Y0161*
X03787Y0161*
Y01727*
X03804Y01743*
X03805*
X03812Y01746*
X03817Y01751*
X0382Y01757*
Y01765*
X03817Y01771*
X03816Y01772*
Y01816*
X0384*
Y01865*
X03781*
Y01852*
X03735*
Y01865*
X03676*
Y01852*
X0363*
Y01865*
X03571*
Y01852*
X03525*
Y01865*
X03466*
Y01846*
X03419*
X03377Y01887*
X03374Y0189*
X0337Y01891*
X03086*
Y0215*
X03091Y02155*
X03103*
X03103Y02153*
X03108Y02145*
X03114Y02139*
X03122Y02135*
X0313Y02133*
X03139*
X03147Y02135*
X03155Y02139*
X03161Y02145*
X03166Y02153*
X03168Y02162*
Y0217*
X03166Y02179*
X03161Y02187*
X03155Y02193*
X03147Y02197*
X03146Y02198*
Y0221*
X03145Y02214*
X03142Y02218*
X03134Y02226*
X03136Y02231*
X03139*
X03147Y02233*
X03155Y02238*
X03161Y02244*
X03166Y02252*
X03168Y0226*
Y02269*
X03166Y02277*
X03161Y02285*
X03155Y02291*
X03147Y02296*
X03139Y02298*
X0313*
X03122Y02296*
X03114Y02291*
X03112Y0229*
X03107Y02292*
Y02306*
X03265Y02464*
X03265Y02464*
X03268Y02463*
X03275*
X03282Y02466*
X03287Y02471*
X0329Y02477*
Y02485*
X03287Y02491*
X03282Y02496*
X03281Y02497*
Y02508*
X03292*
Y0255*
G37*
G36*
X03636Y0251D02*
X03586D01*
Y02487*
X036*
Y02447*
X03586*
Y02425*
X03636*
Y02447*
X03622*
Y02487*
X03636*
Y0251*
G37*
G36*
X04337Y02571D02*
X04289D01*
Y02518*
X04313*
Y02484*
X04301*
Y02443*
X04297Y02441*
Y0244*
Y02421*
X04325*
X04352*
Y0244*
Y02441*
X04348Y02443*
Y02446*
Y02484*
X04336*
Y02518*
X04337*
Y02571*
G37*
G36*
X04585Y02426D02*
Y0241D01*
X04601*
X04598Y02417*
X04592Y02423*
X04585Y02426*
G37*
G36*
X04352Y02411D02*
X0433D01*
Y02391*
X04352*
Y02411*
G37*
G36*
X0432D02*
X04297D01*
Y02407*
X04292Y02402*
Y02381*
X04309*
X04307Y02385*
X04313Y02391*
X0432*
Y02411*
G37*
G36*
X03709Y02385D02*
X03685D01*
Y02365*
X03709*
Y02385*
G37*
G36*
X0464Y03056D02*
X03965D01*
X0396Y03055*
X03957Y03052*
X03922Y03017*
X03919Y03014*
X03918Y0301*
Y029*
X03897*
Y02896*
X0388*
X03875Y02895*
X03872Y02892*
X0386Y02881*
X03854*
Y02896*
X03806*
Y02881*
X0376*
X03755Y0288*
X03752Y02877*
X03737Y02862*
X03734Y02859*
X03733Y02855*
Y02775*
X03734Y0277*
X03737Y02767*
X03757Y02747*
X0376Y02744*
X03765Y02743*
X03912*
X03917Y02744*
X0392Y02747*
X03931Y02757*
X03933Y02761*
X03934Y02765*
Y02789*
X03949*
Y02823*
X03953*
Y02833*
X0405*
X04057Y02826*
X04061Y02823*
X04065Y02822*
X04077*
Y02787*
X041*
Y02818*
X04105*
Y02823*
X04133*
Y02849*
X04129*
Y0286*
X04145*
X04149Y02861*
X04153Y02863*
X04154Y02864*
X04165*
Y02858*
X04168Y02851*
X04173Y02846*
X04179Y02843*
X04187*
X04193Y02846*
X04198Y02851*
X04201Y02858*
Y02865*
X04198Y02871*
X04193Y02876*
X04188Y02879*
X04184Y02883*
X0418Y02885*
X04176Y02886*
X04149*
X04145Y02885*
X04141Y02883*
X0414Y02882*
X04129*
Y02898*
X04081*
Y02893*
X04043*
Y029*
X03992*
Y02864*
X04043*
Y02871*
X04081*
Y02849*
X04077*
Y02845*
X0407*
X04062Y02852*
X04059Y02855*
X04055Y02856*
X03953*
Y02866*
X03949*
Y029*
X03941*
Y03005*
X03969Y03033*
X04635*
X04675Y02993*
Y02982*
X04633*
Y02837*
X04739*
Y02953*
X0477*
X04774Y02954*
X04777Y02957*
X04782Y02961*
X04803*
Y02943*
Y02941*
Y02938*
Y02936*
Y02876*
X04819*
Y02835*
X04803*
Y02818*
X04787*
X04782Y02817*
X04779Y02815*
X04762Y02797*
X04759Y02794*
X04758Y0279*
Y02699*
X04715Y02656*
X04405*
X044Y02655*
X04397Y02652*
X04362Y02617*
X04359Y02614*
X04358Y0261*
Y02369*
X0435Y02361*
X04309*
X04306Y02366*
X04309Y02371*
X04287*
Y02376*
X04282*
Y02398*
X04279Y02397*
X04275Y02401*
Y02408*
X04245*
Y02418*
X04275*
Y02441*
X04271Y02442*
Y0249*
X04257*
Y02518*
X0428*
Y02571*
X04232*
Y02518*
X04234*
Y0249*
X0422*
Y02458*
X04197Y02435*
X04194Y02432*
X04193Y02427*
Y02379*
X04191Y02377*
X04185*
X04182Y02382*
X04182Y02382*
X04186*
Y02406*
X04155*
Y02416*
X04186*
Y0244*
X04185*
X04182Y02443*
Y02493*
X04167*
Y02549*
X04166Y02553*
X04163Y02557*
X04132Y02587*
X04129Y0259*
X04125Y02591*
X0408*
X0408Y02592*
X04074Y02595*
X04068Y02596*
X04015*
X04009Y02595*
X04003Y02592*
X04Y02586*
X03998Y0258*
X03998Y02579*
X03995Y02576*
X03955*
Y0251*
X04*
Y02514*
X04005Y02516*
X04009Y02514*
X04015Y02513*
X04068*
X04074Y02514*
X0408Y02517*
X0408Y02518*
X04092*
Y02516*
X04094Y02509*
X04099Y02504*
X04106Y02502*
X04113*
X0412Y02504*
X04125Y02509*
X04127Y02516*
Y02523*
X04125Y0253*
X0412Y02535*
X04113Y02537*
X04107*
X04104Y0254*
X041Y02541*
X0408*
X0408Y02542*
X04074Y02545*
X04068Y02546*
X04015*
X04009Y02545*
X04005Y02543*
X04Y02545*
Y02564*
X04005Y02566*
X04009Y02564*
X04015Y02563*
X04068*
X04074Y02564*
X0408Y02567*
X0408Y02568*
X0412*
X04144Y02544*
Y02493*
X04129*
Y02443*
X04126Y0244*
X04125*
X04121Y02442*
Y02474*
X0412Y02478*
X04117Y02482*
X04112Y02487*
X04108Y0249*
X04104Y02491*
X0408*
X0408Y02492*
X04074Y02495*
X04068Y02496*
X04015*
X04009Y02495*
X04005Y02493*
X04Y02495*
Y025*
X03955*
Y02433*
X03995*
X03998Y0243*
X03998Y0243*
X04Y02423*
X04003Y02417*
X04009Y02414*
X04015Y02413*
X04068*
X04074Y02414*
X04075Y02414*
X04079Y02412*
Y02364*
X0408Y02359*
X04082Y02356*
X04097Y02342*
X041Y02339*
X04105Y02338*
X04355*
X04359Y02339*
X04362Y02342*
X04377Y02357*
X0438Y0236*
X04381Y02365*
Y02605*
X04409Y02633*
X04475*
X04477Y02628*
X04467Y02617*
X04464Y02614*
X04463Y0261*
Y0245*
X04464Y02445*
X04467Y02442*
X04512Y02397*
X04515Y02394*
X0452Y02393*
X0456*
X04561Y02392*
X04567Y02386*
X04568Y02385*
Y0238*
X04524*
Y02336*
X0458*
Y02331*
X04585*
Y02282*
X04636*
Y0232*
X04744*
Y02282*
X04795*
Y02331*
Y0238*
X04744*
Y02342*
X04636*
Y0238*
X04591*
Y02385*
X04592Y02386*
X04598Y02392*
X04601Y024*
X0458*
Y02405*
X04575*
Y02426*
X04567Y02423*
X04561Y02417*
X0456Y02416*
X04524*
X04486Y02454*
Y02605*
X04494Y02613*
X04524*
X04528Y02613*
Y02608*
Y02523*
X04632*
Y02557*
X04748*
Y02523*
X04852*
Y02557*
X04916*
X04938Y02535*
Y0244*
X04939Y02435*
X04942Y02432*
X04982Y02392*
X04985Y02389*
X0499Y02388*
X05025*
X05026Y02385*
X05031Y02377*
X05038Y0237*
X05046Y02365*
X05055Y02363*
X05065*
X05074Y02365*
X05083Y0237*
X05089Y02377*
X05094Y02385*
X05097Y02395*
Y02404*
X05094Y02414*
X05089Y02422*
X05083Y02429*
X05074Y02433*
X05065Y02436*
X05055*
X05046Y02433*
X05038Y02429*
X05031Y02422*
X05026Y02414*
X05025Y02411*
X04994*
X04961Y02444*
Y0254*
X0496Y02544*
X04957Y02547*
X04929Y02576*
X04925Y02578*
X04921Y02579*
X04852*
Y02597*
X04937Y02683*
X0494Y02686*
X04941Y0269*
Y0296*
X0494Y02964*
X04937Y02967*
X04925Y0298*
X04921Y02982*
X04917Y02983*
X04858*
Y03003*
X04803*
Y02983*
X04777*
X04773Y02982*
X04769Y0298*
X04765Y02976*
X04739*
Y02982*
X04697*
Y02998*
X04696Y03002*
X04694Y03006*
X04647Y03052*
X04644Y03055*
X0464Y03056*
G37*
G36*
X04856Y0238D02*
X04805D01*
Y02336*
X04856*
Y0238*
G37*
G36*
X03709Y02355D02*
X03685D01*
Y02335*
X03709*
Y02355*
G37*
G36*
X03636Y02415D02*
X03586D01*
Y02392*
X036*
Y02373*
X036Y02369*
X03603Y02365*
X03616Y02352*
X0362Y0235*
X03624Y02349*
X0365*
Y02335*
X03675*
Y0236*
Y02385*
X0365*
Y02371*
X03629*
X03622Y02378*
Y02392*
X03636*
Y02415*
G37*
G36*
X04856Y02326D02*
X04805D01*
Y02282*
X04856*
Y02326*
G37*
G36*
X04575D02*
X04524D01*
Y02282*
X04575*
Y02326*
G37*
G36*
X05097Y02534D02*
X05024D01*
Y02461*
X05097*
Y02474*
X05102Y02476*
X05133Y02445*
Y02264*
X051Y02231*
X041*
X04095Y0223*
X04092Y02227*
X0401Y02146*
X03905*
X039Y02145*
X03897Y02142*
X03895Y02141*
X03594*
X03591Y02146*
X03586Y02151*
X0358Y02154*
X03573Y02156*
X03566*
X03559Y02154*
X03553Y02151*
X03548Y02146*
X03547Y02145*
X03542*
X03541Y02146*
X03536Y02151*
X0353Y02154*
X03523Y02156*
X03516*
X03509Y02154*
X03505Y02152*
X035Y02155*
Y0216*
X03475*
Y0213*
Y02099*
X035*
Y02104*
X03505Y02107*
X03509Y02105*
X03516Y02103*
X03523*
X0353Y02105*
X03536Y02108*
X03541Y02113*
X03542Y02114*
X03547*
X03548Y02113*
X03553Y02108*
X03559Y02105*
X03566Y02103*
X03573*
X0358Y02105*
X03586Y02108*
X03591Y02113*
X03594Y02118*
X039*
X03904Y02119*
X03907Y02122*
X03909Y02123*
X04015*
X04019Y02124*
X04022Y02127*
X04104Y02208*
X05105*
X05109Y02209*
X05112Y02212*
X05152Y02252*
X05155Y02255*
X05156Y0226*
Y0245*
X05155Y02454*
X05152Y02457*
X05112Y02497*
X05109Y025*
X05105Y02501*
X05097*
Y02534*
G37*
G36*
X03465Y0216D02*
X03439D01*
Y02135*
X03465*
Y0216*
G37*
G36*
X04332Y02147D02*
X043D01*
Y02126*
X04332*
Y02147*
G37*
G36*
X0429D02*
X04257D01*
Y02126*
X0429*
Y02147*
G37*
G36*
X0493D02*
X04897D01*
Y02126*
X0493*
Y02147*
G37*
G36*
X03465Y02125D02*
X03439D01*
Y02099*
X03465*
Y02125*
G37*
G36*
X04332Y02116D02*
X04257D01*
Y02096*
Y02076*
X04332*
Y02096*
Y02116*
G37*
G36*
X03172Y02105D02*
X0314D01*
Y02073*
X03172*
Y02105*
G37*
G36*
X0313D02*
X03097D01*
Y02073*
X0313*
Y02105*
G37*
G36*
X03172Y02063D02*
X0314D01*
Y0203*
X03172*
Y02063*
G37*
G36*
X0313D02*
X03097D01*
Y0203*
X0313*
Y02063*
G37*
G36*
X04332Y02066D02*
X04257D01*
Y02046*
Y02026*
X04332*
Y02046*
Y02066*
G37*
G36*
X03023Y02822D02*
X0296D01*
Y0275*
X02981*
Y0251*
X0296*
Y02437*
X03023*
Y0251*
X03003*
Y02748*
X03008Y02749*
X03061Y02696*
X03065Y02693*
X03069Y02693*
X0324*
Y02679*
X03258*
Y02601*
X03247*
Y02559*
X03292*
Y02569*
X03302*
X03307Y02564*
Y02048*
X03303Y02044*
X033Y02038*
Y02031*
X03303Y02024*
X03308Y02019*
X03315Y02016*
X03322*
X03328Y02019*
X03333Y02024*
X03336Y02031*
Y02038*
X03333Y02044*
X03329Y02048*
Y02569*
X03329Y02573*
X03326Y02577*
X03315Y02588*
X03311Y0259*
X03307Y02591*
X03292*
Y02601*
X03281*
Y02679*
X03299*
Y02729*
X0324*
Y02715*
X03074*
X03023Y02765*
Y02822*
G37*
G36*
X05015Y02018D02*
X04998D01*
Y02002*
X05006Y02005*
X05012Y02011*
X05015Y02018*
G37*
G36*
X04972Y02147D02*
X0494D01*
Y02121*
X04935*
Y02116*
X04897*
Y02096*
X04897*
X04901Y02093*
Y02091*
Y02052*
Y0205*
X04897Y02047*
X04897*
Y02026*
X04935*
Y02021*
X0494*
Y01996*
X04972*
Y02007*
X04977Y02009*
X04981Y02005*
X04988Y02002*
Y02023*
X04993*
Y02028*
X05015*
X05012Y02036*
X05006Y02042*
X05005Y02043*
Y02111*
X05004Y02115*
X05001Y02119*
X04991Y02129*
X04987Y02132*
X04983Y02133*
X04972*
Y02147*
G37*
G36*
X05107Y02048D02*
X05052D01*
Y01988*
Y01986*
Y01983*
Y01981*
Y01921*
X05107*
Y01941*
X05112*
X05116Y01942*
X0512Y01944*
X05129Y01954*
X05132Y01957*
X05133Y01962*
Y01963*
X05136Y01967*
X05138*
X05145Y01969*
X0515Y01974*
X05152Y01981*
Y01988*
X0515Y01995*
X05145Y02*
X0514Y02002*
X05141Y02007*
X05173*
Y02*
X05216*
Y02036*
X05173*
Y02029*
X05107*
Y02048*
G37*
G36*
X04332Y02016D02*
X043D01*
Y01996*
X04332*
Y02016*
G37*
G36*
X0429D02*
X04257D01*
Y01996*
X0429*
Y02016*
G37*
G36*
X0493D02*
X04897D01*
Y01996*
X0493*
Y02016*
G37*
G36*
X03475Y02006D02*
Y0199D01*
X03491*
X03488Y01997*
X03482Y02003*
X03475Y02006*
G37*
G36*
X03465D02*
X03457Y02003D01*
X03451Y01997*
X03448Y0199*
X03465*
Y02006*
G37*
G36*
X0519Y01983D02*
X05169D01*
Y01966*
X0519*
Y01983*
G37*
G36*
X05248Y0198D02*
Y01963D01*
X05265*
X05262Y01971*
X05256Y01977*
X05248Y0198*
G37*
G36*
X0519Y01956D02*
X05169D01*
Y01939*
X0519*
Y01956*
G37*
G36*
X05265Y01953D02*
X05248D01*
Y01937*
X05256Y0194*
X05262Y01946*
X05265Y01953*
G37*
G36*
X0522Y01983D02*
X052D01*
Y01961*
Y01939*
X0522*
Y01944*
X05223Y01945*
X05225Y01945*
X05231Y0194*
X05238Y01937*
Y01958*
Y0198*
X05231Y01977*
X05225Y01971*
X0522Y01972*
Y01983*
G37*
G36*
X03805Y0195D02*
X03777D01*
Y01933*
X03739*
Y0195*
X0371*
Y01921*
Y01893*
X03739*
Y0191*
X03777*
Y01893*
X03805*
Y01921*
Y0195*
G37*
G36*
X037D02*
X03672D01*
Y01933*
X03634*
Y0195*
X03605*
Y01921*
Y01893*
X03634*
Y0191*
X03672*
Y01893*
X037*
Y01921*
Y0195*
G37*
G36*
X03595D02*
X03567D01*
Y01933*
X03529*
Y0195*
X035*
Y01921*
Y01893*
X03529*
Y0191*
X03567*
Y01893*
X03595*
Y01921*
Y0195*
G37*
G36*
X03491Y0198D02*
X03448D01*
X03451Y01972*
X03457Y01966*
X03458Y01965*
Y01947*
X03459Y01943*
X03462Y01939*
X03462Y01939*
Y01926*
X0349*
Y0195*
X03482*
X03481Y01952*
Y01965*
X03482Y01966*
X03488Y01972*
X03491Y0198*
G37*
G36*
X0349Y01916D02*
X03462D01*
Y01893*
X0349*
Y01916*
G37*
G36*
X03844Y0195D02*
X03815D01*
Y01921*
Y01893*
X03844*
Y01898*
X0386*
X03864Y01895*
Y01875*
X03917*
Y01895*
X03902*
Y01904*
X03901Y01908*
X03898Y01912*
X03892Y01917*
X03889Y0192*
X03884Y01921*
X03844*
Y0195*
G37*
G36*
X03917Y01865D02*
X03895D01*
Y01845*
X03917*
Y01865*
G37*
G36*
X03885D02*
X03864D01*
Y01845*
X03885*
Y01865*
G37*
G36*
X03165Y01845D02*
Y01812D01*
X03198*
X03195Y01822*
X0319Y0183*
X03183Y01837*
X03175Y01842*
X03165Y01845*
G37*
G36*
X03155D02*
X03146Y01842D01*
X03137Y01837*
X0313Y0183*
X03125Y01822*
X03123Y01812*
X03155*
Y01845*
G37*
G36*
X05238Y0179D02*
X05231Y01787D01*
X05225Y01781*
X05223Y01782*
X0522Y01783*
Y01789*
X052*
Y01767*
Y01746*
X0522*
Y01754*
X05223Y01755*
X05225Y01755*
X05231Y0175*
X05238Y01747*
Y01768*
Y0179*
G37*
G36*
X05248D02*
Y01773D01*
X05265*
X05262Y01781*
X05256Y01787*
X05248Y0179*
G37*
G36*
X0519Y01789D02*
X05169D01*
Y01772*
X0519*
Y01789*
G37*
G36*
X03198Y01802D02*
X03165D01*
Y0177*
X03175Y01772*
X03183Y01777*
X0319Y01784*
X03195Y01793*
X03198Y01802*
G37*
G36*
X03155D02*
X03123D01*
X03125Y01793*
X0313Y01784*
X03137Y01777*
X03146Y01772*
X03155Y0177*
Y01802*
G37*
G36*
X05265Y01763D02*
X05248D01*
Y01747*
X05256Y0175*
X05262Y01756*
X05265Y01763*
G37*
G36*
X0519Y01762D02*
X05169D01*
Y01746*
X0519*
Y01762*
G37*
G36*
X03165Y01742D02*
X03156D01*
X03147Y0174*
X0314Y01736*
X03133Y01729*
X03129Y01722*
X03127Y01713*
Y01704*
X03129Y01696*
X03133Y01688*
X0314Y01682*
X03147Y01677*
X03156Y01675*
X03165*
X03173Y01677*
X03181Y01682*
X03187Y01688*
X03192Y01696*
X03192Y01698*
X03713*
X03714Y01694*
X03719Y01689*
X03726Y01687*
X03733*
X0374Y01689*
X03745Y01694*
X03747Y01701*
Y01708*
X03745Y01715*
X0374Y0172*
X03733Y01722*
X03726*
X03721Y0172*
X0372Y01721*
X03716Y0172*
X03192*
X03192Y01722*
X03187Y01729*
X03181Y01736*
X03173Y0174*
X03165Y01742*
G37*
G36*
X0357Y01676D02*
X03215D01*
X0321Y01675*
X03207Y01672*
X03175Y01641*
X03173Y01642*
X03165Y01644*
X03156*
X03147Y01642*
X0314Y01637*
X03133Y01631*
X03129Y01623*
X03127Y01615*
Y01606*
X03129Y01597*
X03133Y0159*
X0314Y01583*
X03147Y01579*
X03156Y01577*
X03165*
X03173Y01579*
X03181Y01583*
X03187Y0159*
X03192Y01597*
X03194Y01606*
Y01615*
X03192Y01623*
X03191Y01625*
X03219Y01653*
X03565*
X03577Y01642*
X0358Y01639*
X03585Y01638*
X03714*
X03717Y01636*
X03723Y01633*
X0373*
X03737Y01636*
X03742Y01641*
X03745Y01647*
Y01655*
X03742Y01661*
X03737Y01666*
X0373Y01669*
X03723*
X03717Y01666*
X03712Y01661*
X03711Y01661*
X03589*
X03577Y01672*
X03574Y01675*
X0357Y01676*
G37*
G36*
X0493Y01605D02*
X04897D01*
Y01585*
X0493*
Y01605*
G37*
G36*
X0429D02*
X04257D01*
Y01585*
X0429*
Y01605*
G37*
G36*
X05003Y016D02*
Y01583D01*
X0502*
X05017Y01591*
X05011Y01597*
X05003Y016*
G37*
G36*
X04358D02*
Y01583D01*
X04375*
X04372Y01591*
X04366Y01597*
X04358Y016*
G37*
G36*
X04375Y01573D02*
X04358D01*
Y01557*
X04366Y0156*
X04372Y01566*
X04375Y01573*
G37*
G36*
X03493Y01583D02*
X03469D01*
Y01555*
X03493*
Y01583*
G37*
G36*
X03459D02*
X03435D01*
Y01555*
X03459*
Y01583*
G37*
G36*
X04968Y01502D02*
X04901D01*
Y01459*
X04968*
Y01502*
G37*
G36*
X04328Y01452D02*
X04261D01*
Y01441*
X04244*
X0424Y01445*
X04233Y01447*
X04226*
X04219Y01445*
X04214Y0144*
X04212Y01433*
Y01426*
X04214Y01419*
X04219Y01414*
X04226Y01412*
X04233*
X0424Y01414*
X04244Y01418*
X04261*
Y01409*
X04328*
Y01452*
G37*
G36*
X04968D02*
X04901D01*
Y01409*
X04968*
Y01452*
G37*
G36*
X04328Y01402D02*
X04261D01*
Y01391*
X04244*
X0424Y01395*
X04233Y01397*
X04226*
X04219Y01395*
X04214Y0139*
X04212Y01383*
Y01376*
X04214Y01369*
X04219Y01364*
X04226Y01362*
X04233*
X0424Y01364*
X04244Y01368*
X04261*
Y01359*
X04328*
Y01402*
G37*
G36*
X03408Y01395D02*
X03401Y01392D01*
X03395Y01386*
X03392Y01378*
X03408*
Y01395*
G37*
G36*
X04968Y01402D02*
X04901D01*
Y01359*
X04968*
Y01402*
G37*
G36*
X03408Y01368D02*
X03392D01*
X03395Y01361*
X03401Y01355*
X03408Y01352*
Y01368*
G37*
G36*
X04328Y01352D02*
X04261D01*
Y01341*
X04244*
X0424Y01345*
X04233Y01347*
X04226*
X04219Y01345*
X04214Y0134*
X04212Y01333*
Y01326*
X04214Y01319*
X04219Y01314*
X04226Y01312*
X04233*
X0424Y01314*
X04244Y01318*
X04261*
Y01309*
X04328*
Y01352*
G37*
G36*
X04972Y01605D02*
X0494D01*
Y0158*
X04935*
Y01575*
X04897*
Y01555*
Y01554*
X04901Y01551*
Y01549*
Y01509*
X04968*
Y01551*
X04972Y01554*
Y01555*
Y01567*
X04979*
X0498Y01566*
X04986Y0156*
X04987Y01559*
Y01298*
X0498Y01291*
X04972*
Y01306*
X04972*
X04968Y01309*
Y01311*
Y01352*
X04901*
Y01311*
Y01309*
X04897Y01306*
X04897*
Y01285*
X04935*
Y01275*
X04897*
Y01255*
X04897*
X04901Y01252*
Y0125*
Y01209*
X04968*
Y0125*
Y01252*
X04972Y01255*
X04972*
Y01268*
X04985*
X04989Y01269*
X04992Y01272*
X05006Y01285*
X05009Y01289*
X0501Y01293*
Y01559*
X05011Y0156*
X05017Y01566*
X0502Y01573*
X04998*
Y01578*
X04993*
Y016*
X04986Y01597*
X0498Y01591*
X04979Y0159*
X04972*
Y01605*
G37*
G36*
X03498Y01295D02*
X03474D01*
Y01266*
X03498*
Y01295*
G37*
G36*
X03464D02*
X0344D01*
Y01266*
X03464*
Y01295*
G37*
G36*
X03797Y01248D02*
Y01231D01*
X03814*
X0381Y01238*
X03804Y01245*
X03797Y01248*
G37*
G36*
X03787D02*
X03779Y01245D01*
X03773Y01238*
X0377Y01231*
X03787*
Y01248*
G37*
G36*
X03814Y01221D02*
X03797D01*
Y01204*
X03804Y01207*
X0381Y01213*
X03814Y01221*
G37*
G36*
X03787D02*
X0377D01*
X03773Y01213*
X03779Y01207*
X03787Y01204*
Y01221*
G37*
G36*
X0365Y01329D02*
X03643D01*
X03637Y01326*
X03632Y01321*
X03629Y01315*
Y01307*
X03632Y01301*
X03636Y01297*
Y01277*
X03636Y01273*
X03639Y01269*
X0373Y01179*
X03733Y01176*
X03737Y01175*
X03749*
X03749Y01174*
X03754Y01169*
X03761Y01167*
X03768*
X03775Y01169*
X0378Y01174*
X03782Y01181*
Y01188*
X0378Y01195*
X03775Y012*
X03768Y01202*
X03761*
X03754Y012*
X03752Y01198*
X03742*
X03658Y01282*
Y01297*
X03662Y01301*
X03665Y01307*
Y01315*
X03662Y01321*
X03657Y01326*
X0365Y01329*
G37*
G36*
X05102Y01159D02*
X05087D01*
X05086Y01159*
X05086Y01159*
X05071Y01157*
X0507Y01157*
X0507Y01157*
X05055Y01153*
X05054Y01153*
X05054*
X0504Y01147*
X05039Y01146*
X05039Y01146*
X05026Y01139*
X05025Y01138*
X05025Y01138*
X05013Y01129*
X05012Y01128*
X05012Y01128*
X05001Y01117*
X05001Y01117*
X05Y01116*
X04991Y01104*
X04991Y01104*
X0499Y01103*
X04983Y0109*
X04983Y0109*
X04982Y01089*
X04976Y01075*
Y01075*
X04976Y01074*
X04972Y01059*
X04972Y01059*
X04972Y01058*
X0497Y01043*
X0497Y01043*
X0497Y01042*
Y01027*
X0497Y01026*
X0497Y01026*
X04972Y01011*
X04972Y0101*
X04972Y0101*
X04976Y00995*
X04976Y00994*
Y00994*
X04982Y0098*
X04983Y00979*
X04983Y00979*
X0499Y00966*
X04991Y00965*
X04991Y00965*
X05Y00953*
X05001Y00952*
X05001Y00952*
X05012Y00941*
X05012Y00941*
X05013Y0094*
X05025Y00931*
X05025Y00931*
X05026Y0093*
X05039Y00923*
X05039Y00923*
X0504Y00922*
X05054Y00916*
X05054*
X05055Y00916*
X0507Y00912*
X0507Y00912*
X05071Y00912*
X05086Y0091*
X05086Y0091*
X05087Y0091*
X05102*
X05103Y0091*
X05103Y0091*
X05118Y00912*
X05119Y00912*
X05119Y00912*
X05134Y00916*
X05135Y00916*
X05135*
X05149Y00922*
X0515Y00923*
X0515Y00923*
X05163Y0093*
X05164Y00931*
X05164Y00931*
X05176Y0094*
X05177Y00941*
X05177Y00941*
X05188Y00952*
X05188Y00952*
X05189Y00953*
X05198Y00965*
X05198Y00965*
X05199Y00966*
X05206Y00979*
X05206Y00979*
X05207Y0098*
X05213Y00994*
Y00994*
X05213Y00995*
X05217Y0101*
X05217Y0101*
X05217Y01011*
X05219Y01026*
X05219Y01026*
X05219Y01027*
Y01042*
X05219Y01043*
X05219Y01043*
X05217Y01058*
X05217Y01059*
X05217Y01059*
X05213Y01074*
X05213Y01075*
Y01075*
X05207Y01089*
X05206Y0109*
X05206Y0109*
X05199Y01103*
X05198Y01104*
X05198Y01104*
X05189Y01116*
X05188Y01117*
X05188Y01117*
X05177Y01128*
X05177Y01128*
X05176Y01129*
X05164Y01138*
X05164Y01138*
X05163Y01139*
X0515Y01146*
X0515Y01146*
X05149Y01147*
X05135Y01153*
X05135*
X05134Y01153*
X05119Y01157*
X05119Y01157*
X05118Y01157*
X05103Y01159*
X05103Y01159*
X05102Y01159*
G37*
G36*
X03055D02*
X0304D01*
X03039Y01159*
X03039Y01159*
X03023Y01157*
X03023Y01157*
X03022Y01157*
X03008Y01153*
X03007Y01153*
X03007*
X02992Y01147*
X02992Y01146*
X02992Y01146*
X02978Y01139*
X02978Y01138*
X02978Y01138*
X02965Y01129*
X02965Y01128*
X02965Y01128*
X02954Y01117*
X02954Y01117*
X02953Y01116*
X02944Y01104*
X02944Y01104*
X02943Y01103*
X02935Y0109*
X02935Y0109*
X02935Y01089*
X02929Y01075*
Y01075*
X02929Y01074*
X02925Y01059*
X02925Y01059*
X02925Y01058*
X02923Y01043*
X02923Y01043*
X02923Y01042*
Y01027*
X02923Y01026*
X02923Y01026*
X02925Y01011*
X02925Y0101*
X02925Y0101*
X02929Y00995*
X02929Y00994*
Y00994*
X02935Y0098*
X02935Y00979*
X02935Y00979*
X02943Y00966*
X02944Y00965*
X02944Y00965*
X02953Y00953*
X02954Y00952*
X02954Y00952*
X02965Y00941*
X02965Y00941*
X02965Y0094*
X02978Y00931*
X02978Y00931*
X02978Y0093*
X02992Y00923*
X02992Y00923*
X02992Y00922*
X03007Y00916*
X03007*
X03008Y00916*
X03022Y00912*
X03023Y00912*
X03023Y00912*
X03039Y0091*
X03039Y0091*
X0304Y0091*
X03055*
X03055Y0091*
X03056Y0091*
X03071Y00912*
X03072Y00912*
X03072Y00912*
X03087Y00916*
X03087Y00916*
X03088*
X03102Y00922*
X03102Y00923*
X03103Y00923*
X03116Y0093*
X03117Y00931*
X03117Y00931*
X03129Y0094*
X03129Y00941*
X0313Y00941*
X03141Y00952*
X03141Y00952*
X03141Y00953*
X03151Y00965*
X03151Y00965*
X03151Y00966*
X03159Y00979*
X03159Y00979*
X03159Y0098*
X03165Y00994*
Y00994*
X03166Y00995*
X0317Y0101*
X0317Y0101*
X0317Y01011*
X03172Y01026*
X03172Y01026*
X03172Y01027*
Y01042*
X03172Y01043*
X03172Y01043*
X0317Y01058*
X0317Y01059*
X0317Y01059*
X03166Y01074*
X03165Y01075*
Y01075*
X03159Y01089*
X03159Y0109*
X03159Y0109*
X03151Y01103*
X03151Y01104*
X03151Y01104*
X03141Y01116*
X03141Y01117*
X03141Y01117*
X0313Y01128*
X03129Y01128*
X03129Y01129*
X03117Y01138*
X03117Y01138*
X03116Y01139*
X03103Y01146*
X03102Y01146*
X03102Y01147*
X03088Y01153*
X03087*
X03087Y01153*
X03072Y01157*
X03072Y01157*
X03071Y01157*
X03056Y01159*
X03055Y01159*
X03055Y01159*
G37*
G36*
X0373Y01126D02*
Y0111D01*
X03746*
X03743Y01117*
X03737Y01123*
X0373Y01126*
G37*
G36*
X0372D02*
X03712Y01123D01*
X03706Y01117*
X03703Y0111*
X0372*
Y01126*
G37*
G36*
X04332Y01225D02*
X04257D01*
Y01205*
X04283*
Y01149*
X0422Y01086*
X04138*
Y01103*
X0411*
Y01074*
Y01045*
X04138*
Y01063*
X04225*
X04229Y01064*
X04232Y01067*
X04302Y01137*
X04305Y0114*
X04306Y01145*
Y01205*
X04332*
Y01225*
G37*
G36*
X041Y01103D02*
X04071D01*
Y01085*
X04028*
Y01103*
X04*
Y01074*
Y01045*
X04028*
Y01063*
X04071*
Y01045*
X041*
Y01074*
Y01103*
G37*
G36*
X0399D02*
X03961D01*
Y01085*
X03912*
Y01099*
X0389*
Y01074*
Y01049*
X03912*
Y01063*
X03961*
Y01045*
X0399*
Y01074*
Y01103*
G37*
G36*
X0388Y01099D02*
X03857D01*
Y01085*
X03816*
Y01099*
X03795*
Y01074*
Y01049*
X03816*
Y01063*
X03857*
Y01049*
X0388*
Y01074*
Y01099*
G37*
G36*
X0372Y011D02*
X03703D01*
X03706Y01092*
X03712Y01086*
X0372Y01083*
Y011*
G37*
G36*
X03746D02*
X0373D01*
Y01083*
X0373Y01083*
X03746Y01067*
X0375Y01065*
X03754Y01064*
X03763*
Y01049*
X03785*
Y01074*
Y01099*
X03763*
Y01088*
X03758Y01087*
X03746Y01099*
X03746Y011*
G37*
%LNswimmingpool-3*%
%LPD*%
G36*
X03893Y02823D02*
D01*
X03897Y0282*
Y02789*
X03912*
Y0277*
X03908Y02766*
X03769*
X03756Y02779*
Y02795*
X03761Y02797*
X03762Y02796*
X0377Y02793*
Y02815*
X0378*
Y02793*
X03787Y02796*
X03793Y02802*
X03794Y02803*
X03802*
Y02785*
X03825*
Y02816*
X03835*
Y02785*
X03858*
Y02805*
X03865*
X03869Y02806*
X03873Y02808*
X03888Y02824*
X03893Y02823*
G37*
G36*
X04918Y02955D02*
Y02695D01*
X04836Y02613*
X04826*
X04824Y02618*
X04838Y02632*
X04841Y02636*
X04842Y0264*
Y0271*
X04861*
Y02737*
X0483*
X04799*
Y0271*
X04819*
Y02645*
X0481Y02636*
X04734*
X04732Y02641*
X04777Y02687*
X0478Y0269*
X04781Y02695*
Y02785*
X04791Y02795*
X04803*
Y02778*
X048Y02775*
X04799*
Y02747*
X0483*
X04861*
Y02775*
X04861*
X04857Y02778*
Y02835*
X04842*
Y02876*
X04858*
Y02936*
Y02938*
Y02941*
Y02943*
Y02961*
X04912*
X04918Y02955*
G37*
G36*
X04748Y02613D02*
Y02608D01*
Y02579*
X04632*
Y02613*
X04637Y02613*
X04744*
X04748Y02613*
G37*
G54D13*
X03075Y02155D02*
X03086Y02166D01*
X03075Y0187D02*
Y02155D01*
X03086Y02166D02*
X03135D01*
X03075Y0187D02*
X03085Y0188D01*
X0452Y02405D02*
X0458D01*
X04475Y0245D02*
X0452Y02405D01*
X04475Y0261D02*
X0449Y02625D01*
X04475Y0245D02*
Y0261D01*
X04814Y02625D02*
X0483Y0264D01*
X0449Y02625D02*
X04814D01*
X0483Y0264D02*
Y02742D01*
X0472Y02645D02*
X0477Y02695D01*
X04405Y02645D02*
X0472D01*
X0437Y0261D02*
X04405Y02645D01*
X03611Y02373D02*
Y0242D01*
Y02373D02*
X03624Y0236D01*
X0368*
X04983Y02121D02*
X04993Y02111D01*
Y02023D02*
Y02111D01*
X04935Y02121D02*
X04983D01*
X03169Y02848D02*
Y02939D01*
X03215Y02985*
X035*
X03923Y02845D02*
X04055D01*
X04065Y02834D02*
X04092D01*
X04055Y02845D02*
X04065Y02834D01*
X04105Y02818D02*
Y02821D01*
X04092Y02834D02*
X04105Y02821D01*
X03829Y02815D02*
X0383Y02816D01*
X03775Y02815D02*
X03829D01*
X0458Y02332D02*
X0458Y02331D01*
X0458Y02332D02*
Y02405D01*
X03268Y02481D02*
X03272D01*
X03262Y02475D02*
X03268Y02481D01*
X0326Y02475D02*
X03262D01*
X03096Y02311D02*
X0326Y02475D01*
X0327Y02481D02*
Y02529D01*
X03805Y0176D02*
Y01835D01*
X03776Y01731D02*
X03805Y0176D01*
X03995Y01155D02*
Y01285D01*
X03725Y01105D02*
X03754Y01075D01*
X03788D02*
X0379Y01074D01*
X04104*
X03754Y01075D02*
X03788D01*
X0347Y01947D02*
X03477Y0194D01*
X0347Y01947D02*
Y01985D01*
X0349Y01921D02*
X03495D01*
X03477Y01935D02*
X0349Y01921D01*
X03477Y01935D02*
Y0194D01*
X0409Y01535D02*
X04096D01*
X0411Y01548D02*
X04113D01*
X04096Y01535D02*
X0411Y01548D01*
X04022Y01528D02*
X04083D01*
X0409Y01535*
X04295Y0158D02*
X04296Y01578D01*
X04353*
X0453Y0129D02*
Y01745D01*
X04542Y01757D02*
X0508D01*
X0453Y01745D02*
X04542Y01757D01*
X04935Y0128D02*
X04935Y0128D01*
X04985*
X04998Y01293*
Y01578*
X04935Y0158D02*
X04936Y01578D01*
X04998*
X05195Y01768D02*
X05243D01*
X05195Y01767D02*
X05195Y01768D01*
X05243D02*
X05243Y01768D01*
X05196Y0196D02*
X05242D01*
X05243Y01958*
X05195Y01961D02*
X05196Y0196D01*
X04937Y02023D02*
X04993D01*
X04935Y02021D02*
X04937Y02023D01*
X03118Y02473D02*
X03169D01*
X03169Y02473*
X03169Y02786D02*
Y02848D01*
Y02786D02*
X03169Y02786D01*
X03445Y01372D02*
Y01395D01*
Y0135D02*
Y01372D01*
X03443Y01373D02*
X03445Y01372D01*
X03413Y01373D02*
X03443D01*
X03562Y01436D02*
X03571D01*
X03573Y01438*
X03539Y01429D02*
X03555D01*
X03562Y01436*
X04295Y01145D02*
Y0123D01*
X04225Y01075D02*
X04295Y01145D01*
X04105Y01075D02*
X04225D01*
X04105Y01074D02*
X04105Y01075D01*
X0452Y0128D02*
X0453Y0129D01*
X04295Y0128D02*
X0452D01*
X0508Y01822D02*
X05082Y01825D01*
X05195*
X05081Y02018D02*
X05195D01*
X0508Y02017D02*
X05081Y02018D01*
X05122Y01968D02*
X05135Y01981D01*
Y01985*
X05122Y01962D02*
Y01968D01*
X05112Y01952D02*
X05122Y01962D01*
X0508Y01952D02*
X05112D01*
X05105Y0249D02*
X05145Y0245D01*
Y0226D02*
Y0245D01*
X05069Y0249D02*
X05105D01*
X0506Y02498D02*
X05069Y0249D01*
X05105Y0222D02*
X05145Y0226D01*
X041Y0222D02*
X05105D01*
X04015Y02135D02*
X041Y0222D01*
X03905Y02135D02*
X04015D01*
X0357Y0213D02*
X039D01*
X03905Y02135*
X04686Y02922D02*
Y02998D01*
X0393Y02888D02*
Y0301D01*
X03923Y02882D02*
X0393Y02888D01*
X03965Y03045D02*
X0464D01*
X0393Y0301D02*
X03965Y03045D01*
X0464D02*
X04686Y02998D01*
X03925Y02295D02*
Y02344D01*
X03925Y02345*
X0394Y02279D02*
X03941D01*
X03925Y02295D02*
X0394Y02279D01*
X04285Y02895D02*
X04348D01*
X04363Y0291*
X04289Y02379D02*
Y02384D01*
X04322Y02416D02*
X04325D01*
X04289Y02384D02*
X04322Y02416D01*
X04287Y02376D02*
X04289Y02379D01*
X04247Y02413D02*
X04284Y02376D01*
X04245Y02413D02*
X04247D01*
X04284Y02376D02*
X04287D01*
X04355Y0235D02*
X0437Y02365D01*
X04105Y0235D02*
X04355D01*
X0409Y02364D02*
X04105Y0235D01*
X03808Y0243D02*
X03858D01*
X03859Y0243*
X03807Y02431D02*
X03808Y0243D01*
X04105Y02871D02*
X04145D01*
X04149Y02875D02*
X04176D01*
X0418Y0287*
Y02864D02*
Y0287D01*
X04145Y02871D02*
X04149Y02875D01*
X0418Y02864D02*
X04183Y02861D01*
X0327Y0258D02*
X03307D01*
X03318Y02569*
Y02034D02*
Y02569D01*
X03737Y01187D02*
X03762D01*
X03765Y01185*
X03647Y01277D02*
X03737Y01187D01*
X03647Y01277D02*
Y01311D01*
X03693Y0142D02*
X03703Y0143D01*
X0369Y0142D02*
X03693D01*
X03703Y0143D02*
X03747D01*
X03669Y0139D02*
X03747D01*
X0364Y0142D02*
X03669Y0139D01*
X03632Y01371D02*
X03747D01*
X03618Y01385D02*
X03632Y01371D01*
X03615Y01385D02*
X03618D01*
X03747Y0141D02*
X03784D01*
X03798Y01396*
X03971Y01526D02*
X03973Y01528D01*
X04022*
X03776Y01605D02*
Y01731D01*
Y01577D02*
Y01605D01*
X03727Y01606D02*
X03775D01*
X03776Y01605*
X03268Y02786D02*
X0327Y02785D01*
X03169Y02786D02*
X03268D01*
X04037Y01548D02*
Y01631D01*
X04037Y01548D02*
X04037Y01548D01*
X04022Y01548D02*
X04037D01*
X03993Y01577D02*
Y01641D01*
X03986Y01648D02*
X03993Y01641D01*
X03962Y01651D02*
X03964Y01648D01*
X03986*
X03585Y0165D02*
X0373D01*
X0357Y01665D02*
X03585Y0165D01*
X03215Y01665D02*
X0357D01*
X0316Y0161D02*
X03215Y01665D01*
X03805Y01835D02*
X0381Y01841D01*
X03776Y0157D02*
Y01577D01*
X03855Y01641D02*
X03855Y0164D01*
X03855Y01641D02*
Y0169D01*
X0389Y01725*
X03855Y01577D02*
Y0164D01*
X03705Y01841D02*
X0381D01*
X04105Y01705D02*
X04145Y01665D01*
X03965Y01705D02*
X04105D01*
X04133Y01508D02*
X04145Y0152D01*
Y01665*
X04022Y01508D02*
X04133D01*
X0316Y01709D02*
X03719D01*
X0372Y0171*
X0345Y0149D02*
Y01536D01*
X03464Y0155*
X03445Y01485D02*
X0345Y0149D01*
X03445Y01446D02*
X0347Y0142D01*
X03445Y01446D02*
Y01485D01*
X0347Y0142D02*
D01*
X03445Y01395D02*
X0347Y0142D01*
X03455Y01313D02*
X03469Y013D01*
X03455Y01313D02*
Y01339D01*
X03445Y0135D02*
X03455Y01339D01*
X03796Y01528D02*
Y01577D01*
Y01528D02*
X03798Y01526D01*
X03747Y01548D02*
X03754D01*
X03755Y01548D02*
Y01564D01*
X0376Y0157*
X03776*
X03754Y01548D02*
X03755Y01548D01*
X03776Y0157D02*
X03776Y0157D01*
X04106Y01405D02*
X0411D01*
X04022Y0141D02*
X041D01*
X04106Y01405*
X04022Y0143D02*
X04126D01*
X04131Y01435*
X04135*
X03973Y01302D02*
Y01351D01*
X03971Y01353D02*
X03973Y01351D01*
X03995Y01285D02*
X03999Y0128D01*
X03993Y01287D02*
X03995Y01285D01*
X03999Y0128D02*
X04295D01*
X03993Y01287D02*
Y01302D01*
X0423Y0138D02*
X04294D01*
X04295Y0138*
X0416Y0133D02*
X0417Y0134D01*
Y01465D02*
X04235Y0153D01*
X0417Y0134D02*
Y01465D01*
X0423Y0143D02*
X04294D01*
X04295Y0143*
X0423Y0133D02*
X04294D01*
X04295Y0133*
X04235Y0153D02*
X04295D01*
X0412Y0133D02*
X0416D01*
X0423Y0148D02*
X04295D01*
X0419Y0144D02*
X0423Y0148D01*
X0419Y0133D02*
Y0144D01*
X0417Y0131D02*
X0419Y0133D01*
X0411Y0131D02*
X0417D01*
X04022Y01351D02*
X04068D01*
X0411Y0131*
X04022Y01371D02*
X04078D01*
X0412Y0133*
X04022Y0139D02*
X04089D01*
X0411Y0137*
X04094Y01449D02*
X04115Y0147D01*
X04022Y01449D02*
X04094D01*
X03885Y01135D02*
X03887D01*
X03897Y01145D02*
Y01148D01*
X03953Y01204D02*
Y01302D01*
X03887Y01135D02*
X03897Y01145D01*
Y01148D02*
X03953Y01204D01*
X03798Y01134D02*
X03814D01*
X03914Y01234*
X0379Y01125D02*
X03798Y01134D01*
X04104Y01074D02*
X04105Y01074D01*
X03995Y01155D02*
X04105D01*
X03914Y01234D02*
Y01302D01*
X0381Y01921D02*
X03822Y0191D01*
X03884*
X0389Y0187D02*
Y01904D01*
X03884Y0191D02*
X0389Y01904D01*
X036Y01841D02*
X03705D01*
X03495D02*
X036D01*
X0389Y01725D02*
Y01819D01*
X03705Y01921D02*
X0381D01*
X036D02*
X03705D01*
X03495D02*
X036D01*
X03075Y0152D02*
X03082Y01512D01*
X03075Y0152D02*
Y0187D01*
X03085Y0188D02*
X0337D01*
X03489Y01835D02*
X03495Y01841D01*
X03415Y01835D02*
X03489D01*
X0337Y0188D02*
X03415Y01835D01*
X03082Y01512D02*
X0316D01*
X03096Y02249D02*
X03135Y0221D01*
Y02166D02*
Y0221D01*
X03096Y02249D02*
Y02311D01*
X0327Y0258D02*
Y02704D01*
X02992Y02473D02*
Y02781D01*
Y02786*
Y02781D02*
X03069Y02704D01*
X0327*
X03678Y02575D02*
Y02641D01*
X03599Y0272D02*
X03678Y02641D01*
X03599Y0272D02*
Y02985D01*
X03629Y01449D02*
X03747D01*
X035Y0139D02*
X03535Y01355D01*
X0355Y0134*
X03535Y01355D02*
X03629Y01449D01*
X03571Y01469D02*
X03747D01*
X03545Y01495D02*
X03571Y01469D01*
X035Y0139D02*
D01*
X0355Y013D02*
Y0134D01*
X03509Y01459D02*
D01*
X03545Y01495D02*
Y0155D01*
X03509Y01459D02*
X03545Y01495D01*
X04807Y02568D02*
X04921D01*
X048D02*
X04807D01*
X04921D02*
X0495Y0254D01*
Y0244D02*
Y0254D01*
X0499Y02399D02*
X0506D01*
X0495Y0244D02*
X0499Y02399D01*
X04807Y02568D02*
X0493Y0269D01*
Y0296*
X0483Y02972D02*
X04917D01*
X0493Y0296*
X0483Y02807D02*
Y02907D01*
X03738Y02506D02*
X0376Y02485D01*
X0368Y02506D02*
X03738D01*
X04042Y0253D02*
X041D01*
X04105Y02525*
X03678Y02575D02*
X0368Y02573D01*
X0356Y02575D02*
X03678D01*
X0355Y02515D02*
Y02565D01*
X0356Y02575*
X0477Y0279D02*
X04787Y02807D01*
X0483*
X0477Y02695D02*
Y0279D01*
X0437Y02365D02*
Y0261D01*
X04195Y02365D02*
X04205Y02375D01*
X0411Y0238D02*
X04124Y02365D01*
X04195*
X04205Y02375D02*
Y02427D01*
X04085Y0243D02*
X0409Y02424D01*
Y02364D02*
Y02424D01*
X04042Y0243D02*
X04085D01*
X04104Y0248D02*
X0411Y02474D01*
Y0238D02*
Y02474D01*
X04042Y0248D02*
X04104D01*
X04243Y02466D02*
X04245D01*
X04205Y02427D02*
X04243Y02466D01*
X04245D02*
Y02534D01*
X04256Y02545*
X04325Y02463D02*
Y02533D01*
X04313Y02545D02*
X04325Y02533D01*
X0355Y0242D02*
Y02515D01*
X03611Y0242D02*
Y02515D01*
X0368Y02573D02*
X03736D01*
X0378Y0253*
X03859*
X0368Y02419D02*
Y02506D01*
X04042Y0258D02*
X04125D01*
X04155Y02468D02*
Y02549D01*
X04125Y0258D02*
X04155Y02549D01*
X0377Y02445D02*
X03805Y0248D01*
X03859*
X0377Y02365D02*
Y02445D01*
X03915Y02448D02*
X0395Y02483D01*
X03859Y0243D02*
X03885D01*
X03904Y02448*
X03915*
X0395Y02483D02*
Y02505D01*
X03865Y0261D02*
X0391D01*
X03859Y02604D02*
X03865Y0261D01*
X03859Y0258D02*
Y02604D01*
X0399Y02395D02*
X04006Y02378D01*
X0396Y02395D02*
X0399D01*
X04006Y02345D02*
Y02378D01*
X0377Y02365D02*
X0379Y02345D01*
X03925*
X04777Y02972D02*
X0483D01*
X0477Y02965D02*
X04777Y02972D01*
X04686Y02922D02*
X04728Y02965D01*
X0477*
X04686Y0291D02*
Y02922D01*
X0458Y02331D02*
X048D01*
X0458Y02568D02*
X048D01*
X04243Y02411D02*
X04245Y02413D01*
X04153Y02411D02*
X04155D01*
X04095Y02882D02*
X04105Y02871D01*
X04018Y02882D02*
X04095D01*
X03745Y02775D02*
X03765Y02755D01*
X03745Y02775D02*
Y02855D01*
X03765Y02755D02*
X03912D01*
X0376Y0287D02*
X0383D01*
X03745Y02855D02*
X0376Y0287D01*
X03923Y02765D02*
Y02807D01*
X03912Y02755D02*
X03923Y02765D01*
X0383Y0287D02*
X03865D01*
X03865Y02816D02*
X03888Y02839D01*
X03918D02*
X03923Y02845D01*
X0383Y02816D02*
X03865D01*
X03888Y02839D02*
X03918D01*
X0392Y02885D02*
X03923Y02882D01*
X0388Y02885D02*
X0392D01*
X03865Y0287D02*
X0388Y02885D01*
G54D16*
X02992Y02473D03*
Y02786D03*
X03169Y02473D03*
Y02786D03*
G54D17*
X0508Y01952D03*
Y02017D03*
Y01757D03*
Y01822D03*
X0483Y02972D03*
Y02907D03*
G54D18*
X04018Y02882D03*
Y02807D03*
X03923D03*
Y02845D03*
Y02882D03*
G54D19*
X03747Y01548D03*
Y01528D03*
Y01508D03*
Y01489D03*
Y01469D03*
Y01449D03*
Y0143D03*
Y0141D03*
Y0139D03*
Y01371D03*
Y01351D03*
Y01331D03*
X04022D03*
Y01351D03*
Y01371D03*
Y0139D03*
Y0141D03*
Y0143D03*
Y01449D03*
Y01469D03*
Y01489D03*
Y01508D03*
Y01528D03*
Y01548D03*
G54D20*
X03776Y01302D03*
X03796D03*
X03816D03*
X03835D03*
X03855D03*
X03875D03*
X03894D03*
X03914D03*
X03934D03*
X03953D03*
X03973D03*
X03993D03*
Y01577D03*
X03973D03*
X03953D03*
X03934D03*
X03914D03*
X03894D03*
X03875D03*
X03855D03*
X03835D03*
X03816D03*
X03796D03*
X03776D03*
G54D21*
X03885Y0144D03*
G54D22*
X03509Y01459D03*
X0347Y0142D03*
X035Y0139D03*
X03539Y01429D03*
G54D23*
X0379Y01125D03*
Y01074D03*
X0389Y01819D03*
Y0187D03*
X0327Y02529D03*
Y0258D03*
G54D24*
X0327Y02704D03*
Y02785D03*
X0381Y01841D03*
Y01921D03*
X03705Y01841D03*
Y01921D03*
X036Y01841D03*
Y01921D03*
X03495Y01841D03*
Y01921D03*
X04105Y01155D03*
Y01074D03*
X03995Y01155D03*
Y01074D03*
G54D25*
X03469Y013D03*
X0355D03*
X03545Y0155D03*
X03464D03*
X04006Y02345D03*
X03925D03*
G54D26*
X03885Y01135D03*
Y01074D03*
X04325Y02463D03*
Y02416D03*
G54D27*
X04935Y02021D03*
Y02121D03*
Y02071D03*
Y0158D03*
Y0143D03*
Y0153D03*
Y0148D03*
Y0128D03*
Y0138D03*
Y0133D03*
Y0123D03*
X04295Y02021D03*
Y02121D03*
Y02071D03*
Y0158D03*
Y0143D03*
Y0153D03*
Y0148D03*
Y0128D03*
Y0138D03*
Y0133D03*
Y0123D03*
G54D28*
X03859Y0258D03*
G54D29*
X03859Y0253D03*
Y0248D03*
Y0243D03*
X04042D03*
Y0248D03*
Y0253D03*
Y0258D03*
G54D30*
X0483Y02742D03*
Y02807D03*
G54D31*
X0368Y0236D03*
Y02419D03*
G54D32*
X04256Y02545D03*
X04313D03*
G54D33*
X0368Y02506D03*
Y02573D03*
G54D34*
X04686Y0291D03*
X04363D03*
G54D35*
X05195Y01767D03*
Y01825D03*
Y01961D03*
Y02018D03*
G54D36*
X04105Y02818D03*
Y02871D03*
X0383Y02816D03*
Y0287D03*
G54D37*
X04245Y02413D03*
Y02466D03*
G54D38*
X04155Y02468D03*
Y02411D03*
G54D39*
X048Y02331D03*
Y02568D03*
X0458Y02331D03*
Y02568D03*
G54D40*
X0355Y0242D03*
X03611D03*
X0355Y02515D03*
X03611D03*
G54D47*
X0395Y02505D03*
G54D53*
X0316Y01512D03*
X03135Y02068D03*
G54D54*
X0316Y0161D03*
Y01709D03*
Y01807D03*
X03135Y02166D03*
Y02265D03*
G54D57*
X0506Y02498D03*
G54D58*
X0506Y02399D03*
X03599Y02985D03*
G54D59*
X035Y02985D03*
G54D62*
X0357Y0213D03*
X0352D03*
G54D63*
X0347Y0213D03*
G54D64*
X0458Y02405D03*
X03725Y01105D03*
X0347Y01985D03*
X04113Y01548D03*
X04353Y01578D03*
X04998D03*
X05243Y01768D03*
Y01958D03*
X04993Y02023D03*
X03118Y02473D03*
X03169Y02848D03*
X03413Y01373D03*
X03573Y01438D03*
X05135Y01985D03*
X03941Y02279D03*
X04285Y02895D03*
X04287Y02376D03*
X04157Y02391D03*
X03807Y02431D03*
X03967Y02546D03*
X04183Y02861D03*
X03272Y02481D03*
X03318Y02034D03*
X03765Y01185D03*
X03647Y01311D03*
X0364Y0142D03*
X03615Y01385D03*
X0369Y0142D03*
X03792Y01226D03*
X03992Y01231D03*
X03727Y01606D03*
X03802Y01761D03*
X04037Y01631D03*
X03962Y01651D03*
X03727D03*
X03965Y01705D03*
X0373D03*
X0411Y01405D03*
X04135Y01435D03*
X0412Y0147D03*
X0423Y0138D03*
Y0143D03*
Y0133D03*
X0412Y0137D03*
X0376Y02485D03*
X0411Y0252D03*
X0391Y0261D03*
X0396Y02395D03*
X03775Y02815D03*
G54D65*
X03798Y01526D03*
X03841D03*
X03885D03*
X03928D03*
X03971D03*
X03798Y01483D03*
X03841D03*
X03885D03*
X03928D03*
X03971D03*
X03798Y0144D03*
X03841D03*
X03885D03*
X03928D03*
X03971D03*
X03798Y01396D03*
X03841D03*
X03885D03*
X03928D03*
X03971D03*
X03798Y01353D03*
X03841D03*
X03885D03*
X03928D03*
X03971D03*
M02*