%FSTAX23Y23*%
%MOIN*%
%SFA1B1*%

%IPPOS*%
%ADD66C,0.003937*%
%LNswimmingpool-1*%
%LPD*%
G54D66*
X0308Y0261D02*
Y02649D01*
X03061Y0263D02*
X031D01*
X0316Y0164D02*
Y01679D01*
X03141Y0166D02*
X0318D01*
X0508Y01965D02*
Y02004D01*
X0506Y01985D02*
X05099D01*
X03491Y01411D02*
X03518Y01438D01*
X03491D02*
X03518Y01411D01*
X0504Y02429D02*
Y02468D01*
X0502Y02449D02*
X05059D01*
X03155Y02146D02*
Y02186D01*
X03135Y02166D02*
X03175D01*
X0327Y02724D02*
Y02764D01*
X0325Y02744D02*
X03289D01*
X0349Y013D02*
X03529D01*
X0351Y0128D02*
Y01319D01*
X03885Y01085D02*
Y01124D01*
X03865Y01105D02*
X03904D01*
X03485Y0155D02*
X03524D01*
X03505Y0153D02*
Y01569D01*
X0381Y01861D02*
Y01901D01*
X03791Y01881D02*
X0383D01*
X03705Y01861D02*
Y01901D01*
X03686Y01881D02*
X03725D01*
X036Y01861D02*
Y01901D01*
X03581Y01881D02*
X0362D01*
X03495Y01861D02*
Y01901D01*
X03476Y01881D02*
X03515D01*
X04105Y01095D02*
Y01134D01*
X04085Y01115D02*
X04124D01*
X03995Y01095D02*
Y01134D01*
X03975Y01115D02*
X04014D01*
X03931Y02505D02*
X0397D01*
X0395Y02485D02*
Y02524D01*
X0508Y0177D02*
Y01809D01*
X0506Y0179D02*
X05099D01*
X0483Y02755D02*
Y02794D01*
X04811Y02775D02*
X0485D01*
X0368Y0237D02*
Y02409D01*
X0366Y0239D02*
X03699D01*
X0483Y0292D02*
Y02959D01*
X04811Y0294D02*
X0485D01*
X0368Y0252D02*
Y02559D01*
X0366Y0254D02*
X03699D01*
X0353Y02965D02*
X03569D01*
X0355Y02945D02*
Y02984D01*
X05195Y0197D02*
Y02009D01*
X05175Y0199D02*
X05214D01*
X04105Y02825D02*
Y02864D01*
X04086Y02845D02*
X04125D01*
X0383Y02823D02*
Y02863D01*
X03811Y02843D02*
X0385D01*
X04325Y0242D02*
Y02459D01*
X04305Y0244D02*
X04344D01*
X048Y0243D02*
Y02469D01*
X04781Y0245D02*
X0482D01*
X0458Y0243D02*
Y02469D01*
X04561Y0245D02*
X046D01*
X03561Y0242D02*
X036D01*
X0358Y024D02*
Y02439D01*
X03561Y02515D02*
X036D01*
X0358Y02495D02*
Y02534D01*
X03946Y02345D02*
X03985D01*
X03965Y02325D02*
Y02364D01*
M02*