%FSTAX23Y23*%
%MOIN*%
%SFA1B1*%

%IPPOS*%
%ADD11C,0.007874*%
%ADD66C,0.003937*%
%ADD67C,0.001969*%
%LNswimmingpool-1*%
%LPD*%
G54D11*
X02958Y02439D02*
Y0282D01*
X03202*
Y02439D02*
Y0282D01*
X02958Y02439D02*
X03202D01*
X0329Y0141D02*
Y0191D01*
X0303Y0141D02*
X0329D01*
X0303D02*
Y0191D01*
X0329*
X05038Y01908D02*
Y02061D01*
X05121*
Y01908D02*
Y02061D01*
X05038Y01908D02*
X05121D01*
X03499Y0136D02*
X03569Y0143D01*
X0344Y01419D02*
X03499Y0136D01*
X0344Y01419D02*
X0351Y01489D01*
X03569Y0143*
X05157Y02299D02*
Y02598D01*
X04922Y02299D02*
X05157D01*
X04922D02*
Y02598D01*
X05157*
X03038Y01967D02*
Y02365D01*
X03272*
Y01967D02*
Y02365D01*
X03038Y01967D02*
X03272D01*
X03226Y02665D02*
Y02823D01*
X03313*
Y02665D02*
Y02823D01*
X03226Y02665D02*
X03313D01*
X03431Y01343D02*
X03588D01*
Y01256D02*
Y01343D01*
X03431Y01256D02*
X03588D01*
X03431D02*
Y01343D01*
X03908Y01055D02*
Y01154D01*
X03861Y01055D02*
X03908D01*
X03861D02*
Y01154D01*
X03908*
X03426Y01506D02*
X03583D01*
X03426D02*
Y01593D01*
X03583*
Y01506D02*
Y01593D01*
X03767Y01802D02*
Y0196D01*
X03854*
Y01802D02*
Y0196D01*
X03767Y01802D02*
X03854D01*
X03662D02*
Y0196D01*
X03749*
Y01802D02*
Y0196D01*
X03662Y01802D02*
X03749D01*
X03557D02*
Y0196D01*
X03644*
Y01802D02*
Y0196D01*
X03557Y01802D02*
X03644D01*
X03452D02*
Y0196D01*
X03539*
Y01802D02*
Y0196D01*
X03452Y01802D02*
X03539D01*
X04148Y01036D02*
Y01193D01*
X04061Y01036D02*
X04148D01*
X04061D02*
Y01193D01*
X04148*
X04038Y01036D02*
Y01193D01*
X03951Y01036D02*
X04038D01*
X03951D02*
Y01193D01*
X04038*
X03818Y02605D02*
X04082D01*
Y02404D02*
Y02605D01*
X03818Y02404D02*
X04082D01*
X03818D02*
Y02605D01*
X05038Y01713D02*
Y01866D01*
X05121*
Y01713D02*
Y01866D01*
X05038Y01713D02*
X05121D01*
X0479Y027D02*
Y02849D01*
X04871*
Y027D02*
Y02849D01*
X0479Y027D02*
X04871D01*
X03656Y02341D02*
Y02438D01*
X03703*
Y02341D02*
Y02438D01*
X03656Y02341D02*
X03703D01*
X04872Y02863D02*
Y03016D01*
X04789Y02863D02*
X04872D01*
X04789D02*
Y03016D01*
X04872*
X03658Y02484D02*
Y02595D01*
X03701*
Y02484D02*
Y02595D01*
X03658Y02484D02*
X03701D01*
X034Y03082D02*
X03699D01*
Y02847D02*
Y03082D01*
X034Y02847D02*
X03699D01*
X034D02*
Y03082D01*
X05173Y01945D02*
Y02034D01*
X05216*
Y01945D02*
Y02034D01*
X05173Y01945D02*
X05216D01*
X04078Y02787D02*
Y02902D01*
X04133*
Y02787D02*
Y02902D01*
X04078Y02787D02*
X04133D01*
X03803Y02786D02*
Y029D01*
X03858*
Y02786D02*
Y029D01*
X03803Y02786D02*
X03858D01*
X04348Y02392D02*
Y02487D01*
X04301Y02392D02*
X04348D01*
X04301D02*
Y02487D01*
X04348*
X04705Y02287D02*
Y02612D01*
X04896*
Y02287D02*
Y02612D01*
X04705Y02287D02*
X04896D01*
X04485D02*
Y02612D01*
X04676*
Y02287D02*
Y02612D01*
X04485Y02287D02*
X04676D01*
X03531Y02443D02*
X0363D01*
Y02396D02*
Y02443D01*
X03531Y02396D02*
X0363D01*
X03531D02*
Y02443D01*
Y02538D02*
X0363D01*
Y02491D02*
Y02538D01*
X03531Y02491D02*
X0363D01*
X03531D02*
Y02538D01*
X03886Y02301D02*
X04044D01*
X03886D02*
Y02388D01*
X04044*
Y02301D02*
Y02388D01*
G54D66*
X0397Y02825D02*
Y02864D01*
X03951Y02845D02*
X0399D01*
X0352Y0211D02*
Y02149D01*
X035Y0213D02*
X03539D01*
X03865Y0144D02*
X03904D01*
X03885Y0142D02*
Y01459D01*
X03771Y011D02*
X03808D01*
X0379Y01081D02*
Y01118D01*
X03872Y01845D02*
X03909D01*
X0389Y01826D02*
Y01863D01*
X03251Y02555D02*
X03288D01*
X0327Y02536D02*
Y02573D01*
X04285Y02526D02*
Y02563D01*
X04266Y02545D02*
X04303D01*
X04525Y0289D02*
Y02929D01*
X04505Y0291D02*
X04544D01*
X04288Y02693D02*
X04761D01*
X04288Y03126D02*
X04761D01*
Y02693D02*
Y03126D01*
X04288Y02693D02*
Y03126D01*
X05195Y01786D02*
Y01806D01*
X05185Y01796D02*
X05204D01*
X04245Y02421D02*
Y02458D01*
X04227Y0244D02*
X04264D01*
X04138D02*
X04173D01*
X04155Y02422D02*
Y02457D01*
G54D67*
X03895Y02776D02*
X04046D01*
X03895Y02913D02*
X04046D01*
Y02776D02*
Y02913D01*
X03895Y02776D02*
Y02913D01*
X03423Y02073D02*
X03616D01*
Y02226*
X03423Y02073D02*
Y02226D01*
X03616*
X03707Y01262D02*
Y01617D01*
X04062Y01262D02*
Y01617D01*
X03707D02*
X04062D01*
X03707Y01262D02*
X04062D01*
X03813Y01054D02*
Y01145D01*
X03766Y01054D02*
Y01145D01*
X03813*
X03766Y01054D02*
X03813D01*
X03867Y01799D02*
Y0189D01*
X03914Y01799D02*
Y0189D01*
X03867Y01799D02*
X03914D01*
X03867Y0189D02*
X03914D01*
X03246Y02509D02*
Y026D01*
X03293Y02509D02*
Y026D01*
X03246Y02509D02*
X03293D01*
X03246Y026D02*
X03293D01*
X04218Y02586D02*
X04351D01*
X04218Y02503D02*
X04351D01*
X04218D02*
Y02586D01*
X04351Y02503D02*
Y02586D01*
X05175Y01752D02*
Y0184D01*
Y01752D02*
X05214D01*
Y0184*
X05175D02*
X05214D01*
X04216Y02386D02*
X04275D01*
X04216Y02493D02*
X04275D01*
X04216Y02386D02*
Y02493D01*
X04275Y02386D02*
Y02493D01*
X04197Y02373D02*
Y02506D01*
X04114Y02373D02*
Y02506D01*
X04197*
X04114Y02373D02*
X04197D01*
M02*