%FSTAX23Y23*%
%MOIN*%
%SFA1B1*%

%IPPOS*%
%ADD68C,0.002000*%
%ADD69C,0.002665*%
%LNswimmingpool-1*%
%LPD*%
G54D68*
X0316Y01504D02*
X03152Y0152D01*
X03168*
X0316Y01504*
Y01602D02*
X03152Y01618D01*
X03168*
X0316Y01602*
Y01701D02*
X03152Y01717D01*
X03168*
X0316Y01701*
Y01799D02*
X03152Y01815D01*
X03168*
X0316Y01799*
X05052Y0249D02*
Y02506D01*
X05068*
Y0249*
X05052*
Y02391D02*
Y02407D01*
X05068*
Y02391*
X05052*
X03135Y0206D02*
X03127Y02076D01*
X03143*
X03135Y0206*
Y02158D02*
X03127Y02174D01*
X03143*
X03135Y02158*
Y02257D02*
X03127Y02273D01*
X03143*
X03135Y02257*
X03492Y02977D02*
Y02993D01*
X03508*
Y02977*
X03492*
X03591D02*
Y02993D01*
X03607*
Y02977*
X03591*
X04576Y02401D02*
Y02397D01*
X04584*
Y02401*
X04588*
Y02409*
X04584*
Y02413*
X04576*
Y02409*
X04572*
Y02401*
X04576*
X03721Y01101D02*
Y01097D01*
X03729*
Y01101*
X03733*
Y01109*
X03729*
Y01113*
X03721*
Y01109*
X03717*
Y01101*
X03721*
X03466Y01981D02*
Y01977D01*
X03474*
Y01981*
X03478*
Y01989*
X03474*
Y01993*
X03466*
Y01989*
X03462*
Y01981*
X03466*
X04109Y01544D02*
Y0154D01*
X04117*
Y01544*
X04121*
Y01552*
X04117*
Y01556*
X04109*
Y01552*
X04105*
Y01544*
X04109*
X04349Y01574D02*
Y0157D01*
X04357*
Y01574*
X04361*
Y01582*
X04357*
Y01586*
X04349*
Y01582*
X04345*
Y01574*
X04349*
X04994D02*
Y0157D01*
X05002*
Y01574*
X05006*
Y01582*
X05002*
Y01586*
X04994*
Y01582*
X0499*
Y01574*
X04994*
X05239Y01764D02*
Y0176D01*
X05247*
Y01764*
X05251*
Y01772*
X05247*
Y01776*
X05239*
Y01772*
X05235*
Y01764*
X05239*
Y01954D02*
Y0195D01*
X05247*
Y01954*
X05251*
Y01962*
X05247*
Y01966*
X05239*
Y01962*
X05235*
Y01954*
X05239*
X04989Y02019D02*
Y02015D01*
X04997*
Y02019*
X05001*
Y02027*
X04997*
Y02031*
X04989*
Y02027*
X04985*
Y02019*
X04989*
X03114Y02469D02*
Y02465D01*
X03122*
Y02469*
X03126*
Y02477*
X03122*
Y02481*
X03114*
Y02477*
X0311*
Y02469*
X03114*
X03165Y02844D02*
Y0284D01*
X03173*
Y02844*
X03177*
Y02852*
X03173*
Y02856*
X03165*
Y02852*
X03161*
Y02844*
X03165*
X03409Y01369D02*
Y01365D01*
X03417*
Y01369*
X03421*
Y01377*
X03417*
Y01381*
X03409*
Y01377*
X03405*
Y01369*
X03409*
X03569Y01434D02*
Y0143D01*
X03577*
Y01434*
X03581*
Y01442*
X03577*
Y01446*
X03569*
Y01442*
X03565*
Y01434*
X03569*
X05131Y01981D02*
Y01977D01*
X05139*
Y01981*
X05143*
Y01989*
X05139*
Y01993*
X05131*
Y01989*
X05127*
Y01981*
X05131*
X03937Y02275D02*
Y02271D01*
X03945*
Y02275*
X03949*
Y02283*
X03945*
Y02287*
X03937*
Y02283*
X03933*
Y02275*
X03937*
X04281Y02891D02*
Y02887D01*
X04289*
Y02891*
X04293*
Y02899*
X04289*
Y02903*
X04281*
Y02899*
X04277*
Y02891*
X04281*
X04283Y02372D02*
Y02368D01*
X04291*
Y02372*
X04295*
Y0238*
X04291*
Y02384*
X04283*
Y0238*
X04279*
Y02372*
X04283*
X04153Y02387D02*
Y02383D01*
X04161*
Y02387*
X04165*
Y02395*
X04161*
Y02399*
X04153*
Y02395*
X04149*
Y02387*
X04153*
X03803Y02427D02*
Y02423D01*
X03811*
Y02427*
X03815*
Y02435*
X03811*
Y02439*
X03803*
Y02435*
X03799*
Y02427*
X03803*
X03963Y02542D02*
Y02538D01*
X03971*
Y02542*
X03975*
Y0255*
X03971*
Y02554*
X03963*
Y0255*
X03959*
Y02542*
X03963*
X04179Y02857D02*
Y02853D01*
X04187*
Y02857*
X04191*
Y02865*
X04187*
Y02869*
X04179*
Y02865*
X04175*
Y02857*
X04179*
X03268Y02477D02*
Y02473D01*
X03276*
Y02477*
X0328*
Y02485*
X03276*
Y02489*
X03268*
Y02485*
X03264*
Y02477*
X03268*
X03314Y0203D02*
Y02026D01*
X03322*
Y0203*
X03326*
Y02038*
X03322*
Y02042*
X03314*
Y02038*
X0331*
Y0203*
X03314*
X03761Y01181D02*
Y01177D01*
X03769*
Y01181*
X03773*
Y01189*
X03769*
Y01193*
X03761*
Y01189*
X03757*
Y01181*
X03761*
X03643Y01307D02*
Y01303D01*
X03651*
Y01307*
X03655*
Y01315*
X03651*
Y01319*
X03643*
Y01315*
X03639*
Y01307*
X03643*
X03636Y01416D02*
Y01412D01*
X03644*
Y01416*
X03648*
Y01424*
X03644*
Y01428*
X03636*
Y01424*
X03632*
Y01416*
X03636*
X03611Y01381D02*
Y01377D01*
X03619*
Y01381*
X03623*
Y01389*
X03619*
Y01393*
X03611*
Y01389*
X03607*
Y01381*
X03611*
X03686Y01416D02*
Y01412D01*
X03694*
Y01416*
X03698*
Y01424*
X03694*
Y01428*
X03686*
Y01424*
X03682*
Y01416*
X03686*
X03788Y01222D02*
Y01218D01*
X03796*
Y01222*
X038*
Y0123*
X03796*
Y01234*
X03788*
Y0123*
X03784*
Y01222*
X03788*
X03988Y01227D02*
Y01223D01*
X03996*
Y01227*
X04*
Y01235*
X03996*
Y01239*
X03988*
Y01235*
X03984*
Y01227*
X03988*
X03723Y01602D02*
Y01598D01*
X03731*
Y01602*
X03735*
Y0161*
X03731*
Y01614*
X03723*
Y0161*
X03719*
Y01602*
X03723*
X03798Y01757D02*
Y01753D01*
X03806*
Y01757*
X0381*
Y01765*
X03806*
Y01769*
X03798*
Y01765*
X03794*
Y01757*
X03798*
X04033Y01627D02*
Y01623D01*
X04041*
Y01627*
X04045*
Y01635*
X04041*
Y01639*
X04033*
Y01635*
X04029*
Y01627*
X04033*
X03958Y01647D02*
Y01643D01*
X03966*
Y01647*
X0397*
Y01655*
X03966*
Y01659*
X03958*
Y01655*
X03954*
Y01647*
X03958*
X03723D02*
Y01643D01*
X03731*
Y01647*
X03735*
Y01655*
X03731*
Y01659*
X03723*
Y01655*
X03719*
Y01647*
X03723*
X03961Y01701D02*
Y01697D01*
X03969*
Y01701*
X03973*
Y01709*
X03969*
Y01713*
X03961*
Y01709*
X03957*
Y01701*
X03961*
X03726D02*
Y01697D01*
X03734*
Y01701*
X03738*
Y01709*
X03734*
Y01713*
X03726*
Y01709*
X03722*
Y01701*
X03726*
X04106Y01401D02*
Y01397D01*
X04114*
Y01401*
X04118*
Y01409*
X04114*
Y01413*
X04106*
Y01409*
X04102*
Y01401*
X04106*
X04131Y01431D02*
Y01427D01*
X04139*
Y01431*
X04143*
Y01439*
X04139*
Y01443*
X04131*
Y01439*
X04127*
Y01431*
X04131*
X04116Y01466D02*
Y01462D01*
X04124*
Y01466*
X04128*
Y01474*
X04124*
Y01478*
X04116*
Y01474*
X04112*
Y01466*
X04116*
X04226Y01376D02*
Y01372D01*
X04234*
Y01376*
X04238*
Y01384*
X04234*
Y01388*
X04226*
Y01384*
X04222*
Y01376*
X04226*
Y01426D02*
Y01422D01*
X04234*
Y01426*
X04238*
Y01434*
X04234*
Y01438*
X04226*
Y01434*
X04222*
Y01426*
X04226*
Y01326D02*
Y01322D01*
X04234*
Y01326*
X04238*
Y01334*
X04234*
Y01338*
X04226*
Y01334*
X04222*
Y01326*
X04226*
X04116Y01366D02*
Y01362D01*
X04124*
Y01366*
X04128*
Y01374*
X04124*
Y01378*
X04116*
Y01374*
X04112*
Y01366*
X04116*
X03756Y02481D02*
Y02477D01*
X03764*
Y02481*
X03768*
Y02489*
X03764*
Y02493*
X03756*
Y02489*
X03752*
Y02481*
X03756*
X04106Y02516D02*
Y02512D01*
X04114*
Y02516*
X04118*
Y02524*
X04114*
Y02528*
X04106*
Y02524*
X04102*
Y02516*
X04106*
X03906Y02606D02*
Y02602D01*
X03914*
Y02606*
X03918*
Y02614*
X03914*
Y02618*
X03906*
Y02614*
X03902*
Y02606*
X03906*
X03956Y02391D02*
Y02387D01*
X03964*
Y02391*
X03968*
Y02399*
X03964*
Y02403*
X03956*
Y02399*
X03952*
Y02391*
X03956*
X03771Y02811D02*
Y02807D01*
X03779*
Y02811*
X03783*
Y02819*
X03779*
Y02823*
X03771*
Y02819*
X03767*
Y02811*
X03771*
X03798Y01518D02*
X03802Y01522D01*
X03806*
X03802Y01526*
X03806Y0153*
X03802*
X03798Y01534*
X03794Y0153*
X0379*
X03794Y01526*
X0379Y01522*
X03794*
X03798Y01518*
X03841D02*
X03845Y01522D01*
X03849*
X03845Y01526*
X03849Y0153*
X03845*
X03841Y01534*
X03837Y0153*
X03833*
X03837Y01526*
X03833Y01522*
X03837*
X03841Y01518*
X03885D02*
X03889Y01522D01*
X03893*
X03889Y01526*
X03893Y0153*
X03889*
X03885Y01534*
X03881Y0153*
X03877*
X03881Y01526*
X03877Y01522*
X03881*
X03885Y01518*
X03928D02*
X03932Y01522D01*
X03936*
X03932Y01526*
X03936Y0153*
X03932*
X03928Y01534*
X03924Y0153*
X0392*
X03924Y01526*
X0392Y01522*
X03924*
X03928Y01518*
X03971D02*
X03975Y01522D01*
X03979*
X03975Y01526*
X03979Y0153*
X03975*
X03971Y01534*
X03967Y0153*
X03963*
X03967Y01526*
X03963Y01522*
X03967*
X03971Y01518*
X03798Y01475D02*
X03802Y01479D01*
X03806*
X03802Y01483*
X03806Y01487*
X03802*
X03798Y01491*
X03794Y01487*
X0379*
X03794Y01483*
X0379Y01479*
X03794*
X03798Y01475*
X03841D02*
X03845Y01479D01*
X03849*
X03845Y01483*
X03849Y01487*
X03845*
X03841Y01491*
X03837Y01487*
X03833*
X03837Y01483*
X03833Y01479*
X03837*
X03841Y01475*
X03885D02*
X03889Y01479D01*
X03893*
X03889Y01483*
X03893Y01487*
X03889*
X03885Y01491*
X03881Y01487*
X03877*
X03881Y01483*
X03877Y01479*
X03881*
X03885Y01475*
X03928D02*
X03932Y01479D01*
X03936*
X03932Y01483*
X03936Y01487*
X03932*
X03928Y01491*
X03924Y01487*
X0392*
X03924Y01483*
X0392Y01479*
X03924*
X03928Y01475*
X03971D02*
X03975Y01479D01*
X03979*
X03975Y01483*
X03979Y01487*
X03975*
X03971Y01491*
X03967Y01487*
X03963*
X03967Y01483*
X03963Y01479*
X03967*
X03971Y01475*
X03798Y01432D02*
X03802Y01436D01*
X03806*
X03802Y0144*
X03806Y01444*
X03802*
X03798Y01448*
X03794Y01444*
X0379*
X03794Y0144*
X0379Y01436*
X03794*
X03798Y01432*
X03841D02*
X03845Y01436D01*
X03849*
X03845Y0144*
X03849Y01444*
X03845*
X03841Y01448*
X03837Y01444*
X03833*
X03837Y0144*
X03833Y01436*
X03837*
X03841Y01432*
X03885D02*
X03889Y01436D01*
X03893*
X03889Y0144*
X03893Y01444*
X03889*
X03885Y01448*
X03881Y01444*
X03877*
X03881Y0144*
X03877Y01436*
X03881*
X03885Y01432*
X03928D02*
X03932Y01436D01*
X03936*
X03932Y0144*
X03936Y01444*
X03932*
X03928Y01448*
X03924Y01444*
X0392*
X03924Y0144*
X0392Y01436*
X03924*
X03928Y01432*
X03971D02*
X03975Y01436D01*
X03979*
X03975Y0144*
X03979Y01444*
X03975*
X03971Y01448*
X03967Y01444*
X03963*
X03967Y0144*
X03963Y01436*
X03967*
X03971Y01432*
X03798Y01388D02*
X03802Y01392D01*
X03806*
X03802Y01396*
X03806Y014*
X03802*
X03798Y01404*
X03794Y014*
X0379*
X03794Y01396*
X0379Y01392*
X03794*
X03798Y01388*
X03841D02*
X03845Y01392D01*
X03849*
X03845Y01396*
X03849Y014*
X03845*
X03841Y01404*
X03837Y014*
X03833*
X03837Y01396*
X03833Y01392*
X03837*
X03841Y01388*
X03885D02*
X03889Y01392D01*
X03893*
X03889Y01396*
X03893Y014*
X03889*
X03885Y01404*
X03881Y014*
X03877*
X03881Y01396*
X03877Y01392*
X03881*
X03885Y01388*
X03928D02*
X03932Y01392D01*
X03936*
X03932Y01396*
X03936Y014*
X03932*
X03928Y01404*
X03924Y014*
X0392*
X03924Y01396*
X0392Y01392*
X03924*
X03928Y01388*
X03971D02*
X03975Y01392D01*
X03979*
X03975Y01396*
X03979Y014*
X03975*
X03971Y01404*
X03967Y014*
X03963*
X03967Y01396*
X03963Y01392*
X03967*
X03971Y01388*
X03798Y01345D02*
X03802Y01349D01*
X03806*
X03802Y01353*
X03806Y01357*
X03802*
X03798Y01361*
X03794Y01357*
X0379*
X03794Y01353*
X0379Y01349*
X03794*
X03798Y01345*
X03841D02*
X03845Y01349D01*
X03849*
X03845Y01353*
X03849Y01357*
X03845*
X03841Y01361*
X03837Y01357*
X03833*
X03837Y01353*
X03833Y01349*
X03837*
X03841Y01345*
X03885D02*
X03889Y01349D01*
X03893*
X03889Y01353*
X03893Y01357*
X03889*
X03885Y01361*
X03881Y01357*
X03877*
X03881Y01353*
X03877Y01349*
X03881*
X03885Y01345*
X03928D02*
X03932Y01349D01*
X03936*
X03932Y01353*
X03936Y01357*
X03932*
X03928Y01361*
X03924Y01357*
X0392*
X03924Y01353*
X0392Y01349*
X03924*
X03928Y01345*
X03971D02*
X03975Y01349D01*
X03979*
X03975Y01353*
X03979Y01357*
X03975*
X03971Y01361*
X03967Y01357*
X03963*
X03967Y01353*
X03963Y01349*
X03967*
X03971Y01345*
G54D69*
X03578Y0213D02*
X03572Y02137D01*
X03563Y02134*
Y02125*
X03572Y02122*
X03578Y0213*
X03528D02*
X03522Y02137D01*
X03513Y02134*
Y02125*
X03522Y02122*
X03528Y0213*
X03478D02*
X03472Y02137D01*
X03463Y02134*
Y02125*
X03472Y02122*
X03478Y0213*
M02*