%FSTAX23Y23*%
%MOIN*%
%SFA1B1*%

%IPPOS*%
%ADD68C,0.002000*%
%LNswimmingpool-1*%
%LPD*%
G54D68*
X03143Y01512D02*
X03178D01*
X0316Y01494D02*
Y0153D01*
X03143Y0161D02*
X03178D01*
X0316Y01593D02*
Y01628D01*
X03143Y01709D02*
X03178D01*
X0316Y01691D02*
Y01726D01*
X03143Y01807D02*
X03178D01*
X0316Y01789D02*
Y01825D01*
X03554Y0213D02*
X03585D01*
X0357Y02114D02*
Y02145D01*
X03504Y0213D02*
X03535D01*
X0352Y02114D02*
Y02145D01*
X03454Y0213D02*
X03485D01*
X0347Y02114D02*
Y02145D01*
X0504Y02498D02*
X0508D01*
X0506Y02478D02*
Y02518D01*
X0504Y02399D02*
X0508D01*
X0506Y0238D02*
Y02419D01*
X03117Y02068D02*
X03152D01*
X03135Y0205D02*
Y02085D01*
X03117Y02166D02*
X03152D01*
X03135Y02148D02*
Y02184D01*
X03117Y02265D02*
X03152D01*
X03135Y02247D02*
Y02282D01*
X03481Y02985D02*
X0352D01*
X035Y02965D02*
Y03005D01*
X03579Y02985D02*
X03618D01*
X03599Y02965D02*
Y03005D01*
X04573Y02405D02*
X04586D01*
X0458Y02398D02*
Y02411D01*
X03718Y01105D02*
X03731D01*
X03725Y01098D02*
Y01111D01*
X03463Y01985D02*
X03476D01*
X0347Y01978D02*
Y01991D01*
X04107Y01548D02*
X04119D01*
X04113Y01542D02*
Y01554D01*
X04347Y01578D02*
X04359D01*
X04353Y01572D02*
Y01584D01*
X04992Y01578D02*
X05004D01*
X04998Y01572D02*
Y01584D01*
X05237Y01768D02*
X05249D01*
X05243Y01762D02*
Y01774D01*
X05237Y01958D02*
X05249D01*
X05243Y01952D02*
Y01964D01*
X04987Y02023D02*
X04999D01*
X04993Y02017D02*
Y02029D01*
X03112Y02473D02*
X03124D01*
X03118Y02467D02*
Y02479D01*
X03163Y02848D02*
X03175D01*
X03169Y02842D02*
Y02854D01*
X03407Y01373D02*
X03419D01*
X03413Y01367D02*
Y01379D01*
X03567Y01438D02*
X03579D01*
X03573Y01432D02*
Y01444D01*
X05128Y01985D02*
X05141D01*
X05135Y01978D02*
Y01991D01*
X03935Y02279D02*
X03947D01*
X03941Y02273D02*
Y02285D01*
X04278Y02895D02*
X04291D01*
X04285Y02888D02*
Y02901D01*
X04281Y02376D02*
X04293D01*
X04287Y0237D02*
Y02382D01*
X04151Y02391D02*
X04163D01*
X04157Y02385D02*
Y02397D01*
X03801Y02431D02*
X03813D01*
X03807Y02425D02*
Y02437D01*
X03961Y02546D02*
X03973D01*
X03967Y0254D02*
Y02552D01*
X04177Y02861D02*
X04189D01*
X04183Y02855D02*
Y02867D01*
X03266Y02481D02*
X03278D01*
X03272Y02475D02*
Y02487D01*
X03312Y02034D02*
X03324D01*
X03318Y02028D02*
Y0204D01*
X03758Y01185D02*
X03771D01*
X03765Y01178D02*
Y01191D01*
X03641Y01311D02*
X03653D01*
X03647Y01305D02*
Y01317D01*
X03633Y0142D02*
X03646D01*
X0364Y01413D02*
Y01426D01*
X03608Y01385D02*
X03621D01*
X03615Y01378D02*
Y01391D01*
X03683Y0142D02*
X03696D01*
X0369Y01413D02*
Y01426D01*
X03786Y01226D02*
X03798D01*
X03792Y0122D02*
Y01232D01*
X03986Y01231D02*
X03998D01*
X03992Y01225D02*
Y01237D01*
X03721Y01606D02*
X03733D01*
X03727Y016D02*
Y01612D01*
X03796Y01761D02*
X03808D01*
X03802Y01755D02*
Y01767D01*
X04031Y01631D02*
X04043D01*
X04037Y01625D02*
Y01637D01*
X03956Y01651D02*
X03968D01*
X03962Y01645D02*
Y01657D01*
X03721Y01651D02*
X03733D01*
X03727Y01645D02*
Y01657D01*
X03958Y01705D02*
X03971D01*
X03965Y01698D02*
Y01711D01*
X03723Y01705D02*
X03736D01*
X0373Y01698D02*
Y01711D01*
X04103Y01405D02*
X04116D01*
X0411Y01398D02*
Y01411D01*
X04128Y01435D02*
X04141D01*
X04135Y01428D02*
Y01441D01*
X04113Y0147D02*
X04126D01*
X0412Y01463D02*
Y01476D01*
X04223Y0138D02*
X04236D01*
X0423Y01373D02*
Y01386D01*
X04223Y0143D02*
X04236D01*
X0423Y01423D02*
Y01436D01*
X04223Y0133D02*
X04236D01*
X0423Y01323D02*
Y01336D01*
X04113Y0137D02*
X04126D01*
X0412Y01363D02*
Y01376D01*
X03753Y02485D02*
X03766D01*
X0376Y02478D02*
Y02491D01*
X04103Y0252D02*
X04116D01*
X0411Y02513D02*
Y02526D01*
X03903Y0261D02*
X03916D01*
X0391Y02603D02*
Y02616D01*
X03953Y02395D02*
X03966D01*
X0396Y02388D02*
Y02401D01*
X03768Y02815D02*
X03781D01*
X03775Y02808D02*
Y02821D01*
X03794Y01526D02*
X03802D01*
X03798Y01522D02*
Y0153D01*
X03837Y01526D02*
X03845D01*
X03841Y01522D02*
Y0153D01*
X03881Y01526D02*
X03888D01*
X03885Y01522D02*
Y0153D01*
X03924Y01526D02*
X03932D01*
X03928Y01522D02*
Y0153D01*
X03967Y01526D02*
X03975D01*
X03971Y01522D02*
Y0153D01*
X03794Y01483D02*
X03802D01*
X03798Y01479D02*
Y01487D01*
X03837Y01483D02*
X03845D01*
X03841Y01479D02*
Y01487D01*
X03881Y01483D02*
X03888D01*
X03885Y01479D02*
Y01487D01*
X03924Y01483D02*
X03932D01*
X03928Y01479D02*
Y01487D01*
X03967Y01483D02*
X03975D01*
X03971Y01479D02*
Y01487D01*
X03794Y0144D02*
X03802D01*
X03798Y01436D02*
Y01443D01*
X03837Y0144D02*
X03845D01*
X03841Y01436D02*
Y01443D01*
X03881Y0144D02*
X03888D01*
X03885Y01436D02*
Y01443D01*
X03924Y0144D02*
X03932D01*
X03928Y01436D02*
Y01443D01*
X03967Y0144D02*
X03975D01*
X03971Y01436D02*
Y01443D01*
X03794Y01396D02*
X03802D01*
X03798Y01392D02*
Y014D01*
X03837Y01396D02*
X03845D01*
X03841Y01392D02*
Y014D01*
X03881Y01396D02*
X03888D01*
X03885Y01392D02*
Y014D01*
X03924Y01396D02*
X03932D01*
X03928Y01392D02*
Y014D01*
X03967Y01396D02*
X03975D01*
X03971Y01392D02*
Y014D01*
X03794Y01353D02*
X03802D01*
X03798Y01349D02*
Y01357D01*
X03837Y01353D02*
X03845D01*
X03841Y01349D02*
Y01357D01*
X03881Y01353D02*
X03888D01*
X03885Y01349D02*
Y01357D01*
X03924Y01353D02*
X03932D01*
X03928Y01349D02*
Y01357D01*
X03967Y01353D02*
X03975D01*
X03971Y01349D02*
Y01357D01*
M02*